<?xml version="1.0" standalone="no"?>
<!DOCTYPE svg PUBLIC "-//W3C//DTD SVG 1.1//EN" "http://www.w3.org/Graphics/SVG/1.1/DTD/svg11.dtd" >
<svg xmlns="http://www.w3.org/2000/svg" xmlns:xlink="http://www.w3.org/1999/xlink" version="1.1">
<metadata>
Created by FontForge 20161116 at Fri Mar  9 12:18:28 2012
 By Jimmy Wärting
Copyright (c) 2012 by TypeTogether. All rights reserved.
</metadata>
<defs>
<font id="TabletGothicCondensed-SemiBold" horiz-adv-x="500" >
  <font-face 
    font-family="Tablet Gothic Condensed Sb"
    font-weight="600"
    font-stretch="condensed"
    units-per-em="1000"
    panose-1="2 0 5 3 0 0 0 2 0 4"
    ascent="755"
    descent="-245"
    x-height="518"
    cap-height="734"
    bbox="-120 -247 822 1049"
    underline-thickness="50"
    underline-position="-100"
    stemh="87"
    stemv="105"
    unicode-range="U+0020-FB04"
  />
<missing-glyph horiz-adv-x="146" 
 />
    <glyph glyph-name="ij" unicode="ij" horiz-adv-x="392" 
d="M46 615v119h103v-119h-103zM46 0v518h103v-518h-103zM244 615v119h103v-119h-103zM134 -184l12 79c15 -5 28 -7 43 -7c39 0 56 28 56 92v538h102v-537c0 -125 -57 -176 -145 -176c-28 0 -54 6 -68 11z" />
    <glyph glyph-name="ff" unicode="ff" horiz-adv-x="525" 
d="M171 438v-438h-102v438h-60v80h60v47c0 125 58 177 152 177c33 0 61 -8 75 -13l-12 -79c-16 5 -34 9 -51 9c-45 0 -62 -29 -62 -89v-52h144v52c0 125 58 177 154 177c31 0 64 -9 78 -14l-12 -78c-16 5 -35 9 -53 9c-47 0 -65 -29 -65 -93v-53h104v-80h-104v-438h-102v438
h-144z" />
    <glyph glyph-name="fi" unicode="fi" horiz-adv-x="464" 
d="M278 738v-81c-13 3 -29 6 -45 6c-45 0 -62 -28 -62 -86v-59h247v-518h-103v438h-144v-438h-102v438h-60v80h60v52c0 125 56 177 150 177c25 0 45 -4 59 -9zM318 615v119h100v-119h-100z" />
    <glyph glyph-name="fl" unicode="fl" horiz-adv-x="463" 
d="M278 738v-81c-13 3 -29 6 -45 6c-45 0 -62 -28 -62 -86v-59h94v-80h-94v-438h-102v438h-60v80h60v52c0 125 56 177 150 177c25 0 45 -4 59 -9zM417 734v-734h-102v734h102z" />
    <glyph glyph-name="ffi" unicode="ffi" horiz-adv-x="711" 
d="M524 738v-81c-13 3 -29 6 -45 6c-45 0 -62 -28 -62 -86v-59h247v-518h-103v438h-144v-438h-102v438h-144v-438h-102v438h-60v80h60v48c0 125 58 176 152 176c33 0 61 -8 75 -13l-12 -79c-16 5 -34 9 -51 9c-45 0 -62 -28 -62 -89v-52h144v52c0 125 56 177 150 177
c25 0 45 -4 59 -9zM564 615v119h100v-119h-100z" />
    <glyph glyph-name="ffl" unicode="ffl" horiz-adv-x="710" 
d="M524 738v-81c-13 3 -29 6 -45 6c-45 0 -62 -28 -62 -86v-59h94v-80h-94v-438h-102v438h-144v-438h-102v438h-60v80h60v47c0 125 58 177 152 177c33 0 61 -9 75 -14l-12 -78c-16 5 -34 9 -51 9c-45 0 -62 -29 -62 -89v-52h144v52c0 125 56 177 150 177c25 0 45 -4 59 -9z
M663 734v-734h-102v734h102z" />
    <glyph glyph-name="t_t" unicode="tt" horiz-adv-x="556" 
d="M171 438v-281c0 -64 12 -86 59 -86c17 0 36 3 52 8l9 -77c-14 -6 -45 -14 -83 -14c-88 0 -139 39 -139 159v291h-60v80h60v100l102 33v-133h153v100l102 33v-133h105v-80h-105v-281c0 -64 13 -87 60 -87c18 0 40 5 55 10l10 -79c-14 -5 -45 -13 -84 -13
c-92 0 -143 39 -143 159v291h-153z" />
    <glyph glyph-name=".notdef" horiz-adv-x="146" 
 />
    <glyph glyph-name=".notdef" horiz-adv-x="146" 
 />
    <glyph glyph-name="space" unicode=" " horiz-adv-x="146" 
 />
    <glyph glyph-name="quotesingle" unicode="'" horiz-adv-x="196" 
d="M55 734h86l-9 -201h-68z" />
    <glyph glyph-name="quotedbl" unicode="&#x22;" horiz-adv-x="321" 
d="M133 734h86l-9 -201h-68zM103 734h86l-9 -201h-68z" />
    <glyph glyph-name="numbersign" unicode="#" horiz-adv-x="570" 
d="M384 0h-91l20 133h-101l-20 -133h-89l19 133h-87l13 79h86l21 143h-92l13 80h91l18 120h89l-18 -120h101l18 120h91l-18 -120h87l-12 -80h-87l-21 -143h94l-13 -79h-93zM325 212l21 143h-102l-20 -143h101z" />
    <glyph glyph-name="ampersand" unicode="&#x26;" horiz-adv-x="605" 
d="M369 141l-147 193c-46 -40 -74 -87 -74 -145c0 -76 44 -110 99 -110c42 0 85 21 122 62zM424 530l-97 13c4 13 5 31 5 42c0 49 -22 73 -62 73c-43 0 -65 -27 -65 -69c0 -40 19 -85 54 -132l167 -225c26 62 32 132 34 195l95 -14c-4 -100 -23 -191 -61 -269l82 -108
l-83 -60l-67 89c-52 -50 -117 -77 -190 -77c-133 0 -201 77 -201 190c0 90 45 170 131 229c-40 54 -66 115 -66 177c0 99 66 162 172 162c95 0 159 -51 159 -154c0 -20 -2 -45 -7 -62z" />
    <glyph glyph-name="asterisk" unicode="*" horiz-adv-x="378" 
d="M149 734h81l-22 -128l114 60l26 -78l-129 -19l92 -89l-66 -48l-57 113l-57 -112l-66 48l92 89l-127 20l25 77l115 -61z" />
    <glyph glyph-name="comma" unicode="," horiz-adv-x="203" 
d="M49 0v131h115v-112l-63 -147l-48 14l29 114h-33z" />
    <glyph glyph-name="hyphen" unicode="-" horiz-adv-x="280" 
d="M255 251h-230v81h230v-81z" />
    <glyph glyph-name="period" unicode="." horiz-adv-x="217" 
d="M52 0v131h114v-131h-114z" />
    <glyph glyph-name="colon" unicode=":" horiz-adv-x="217" 
d="M52 0v131h114v-131h-114zM52 385v131h114v-131h-114z" />
    <glyph glyph-name="semicolon" unicode=";" horiz-adv-x="203" 
d="M53 385v131h111v-131h-111zM49 0v131h115v-112l-63 -147l-48 14l29 114h-33z" />
    <glyph glyph-name="question" unicode="?" horiz-adv-x="446" 
d="M289 523c0 107 -34 133 -78 133c-45 0 -73 -33 -76 -129l-107 8c2 119 41 212 187 212c128 0 187 -82 187 -225c0 -152 -77 -212 -170 -232l-7 -92h-97l-7 161c134 4 168 55 168 164zM119 0v131h114v-131h-114z" />
    <glyph glyph-name="exclam" unicode="!" horiz-adv-x="252" 
d="M175 196h-96l-13 538h121zM70 0v131h115v-131h-115z" />
    <glyph glyph-name="exclamdown" unicode="&#xa1;" horiz-adv-x="252" 
d="M79 323h96l12 -538h-121zM70 388v131h115v-131h-115z" />
    <glyph glyph-name="questiondown" unicode="&#xbf;" horiz-adv-x="446" 
d="M157 -4c0 109 34 160 168 164l-7 161h-97l-7 -92c-93 -20 -170 -80 -170 -232c0 -143 59 -225 187 -225c146 0 185 93 187 212l-107 8c-3 -96 -31 -129 -76 -129c-44 0 -78 26 -78 133zM327 519v-131h-114v131h114z" />
    <glyph glyph-name="at" unicode="@" horiz-adv-x="716" 
d="M534 -29l39 -51c-47 -52 -132 -83 -216 -83c-179 0 -317 109 -317 349c0 230 132 377 333 377c177 0 303 -99 303 -313c0 -180 -61 -252 -153 -252c-49 0 -89 25 -103 53c-24 -34 -62 -59 -107 -59c-93 0 -117 80 -117 161c0 115 47 244 161 244c42 0 65 -21 80 -44l7 38
h71l-28 -239c-7 -56 -4 -93 43 -93c45 0 72 52 72 176c0 196 -90 263 -236 263c-162 0 -250 -130 -250 -311c0 -192 98 -282 249 -282c75 0 134 27 169 66zM413 151l13 114c5 43 -18 71 -58 71c-68 0 -91 -92 -93 -177c-2 -64 12 -103 57 -103c40 0 75 38 81 95z" />
    <glyph glyph-name="at.case" horiz-adv-x="716" 
d="M534 126l39 -51c-47 -52 -132 -83 -216 -83c-179 0 -317 109 -317 349c0 230 132 377 333 377c177 0 303 -99 303 -313c0 -180 -61 -252 -153 -252c-49 0 -89 25 -103 53c-24 -34 -62 -59 -107 -59c-93 0 -117 80 -117 161c0 115 47 244 161 244c42 0 65 -21 80 -44l7 38
h71l-28 -239c-7 -56 -4 -93 43 -93c45 0 72 52 72 176c0 196 -90 263 -236 263c-162 0 -250 -130 -250 -311c0 -192 98 -282 249 -282c75 0 134 27 169 66zM413 306l13 114c5 43 -18 71 -58 71c-68 0 -91 -92 -93 -177c-2 -64 12 -103 57 -103c40 0 75 38 81 95z" />
    <glyph glyph-name="A" unicode="A" horiz-adv-x="510" 
d="M182 734h141l175 -734h-113l-42 187h-180l-41 -187h-110zM325 283l-72 339h-2l-72 -339h146z" />
    <glyph glyph-name="B" unicode="B" horiz-adv-x="486" 
d="M210 0h-154v734h161c157 0 214 -67 214 -175c0 -110 -61 -159 -134 -174v-2c112 -12 160 -72 160 -175c0 -151 -89 -208 -247 -208zM164 91h38c94 0 143 25 143 121c0 83 -50 118 -130 118h-51v-239zM164 420h22c75 0 134 32 134 126c0 75 -41 98 -110 98h-46v-224z" />
    <glyph glyph-name="C" unicode="C" horiz-adv-x="484" 
d="M256 78c68 0 86 67 89 173l105 -7c-6 -184 -69 -256 -204 -256c-157 0 -206 123 -206 373c0 258 75 386 233 386c132 0 184 -100 182 -267l-105 -9c-1 139 -26 183 -87 183c-76 0 -109 -80 -109 -290c0 -200 23 -286 102 -286z" />
    <glyph glyph-name="D" unicode="D" horiz-adv-x="502" 
d="M174 0h-118v734h119c230 0 288 -113 288 -354c0 -269 -57 -380 -289 -380zM164 91h29c122 0 156 68 156 282c0 195 -33 270 -158 270h-27v-552z" />
    <glyph glyph-name="E" unicode="E" horiz-adv-x="422" 
d="M360 421v-89h-196v-239h237v-93h-345v734h327v-93h-219v-220h196z" />
    <glyph glyph-name="F" unicode="F" horiz-adv-x="397" 
d="M358 411v-89h-194v-322h-108v734h327v-93h-219v-230h194z" />
    <glyph glyph-name="G" unicode="G" horiz-adv-x="504" 
d="M248 268v90h205v-370h-75l-14 79c-28 -58 -73 -79 -126 -79c-147 0 -198 123 -198 366c0 266 75 393 230 393c136 0 187 -98 185 -267l-105 -9c-1 140 -26 183 -86 183c-77 0 -109 -79 -109 -293c0 -197 22 -283 101 -283c59 0 88 60 91 158v32h-99z" />
    <glyph glyph-name="H" unicode="H" horiz-adv-x="517" 
d="M462 734v-734h-108v318h-190v-318h-108v734h108v-320h190v320h108z" />
    <glyph glyph-name="I" unicode="I" horiz-adv-x="293" 
d="M200 649v-564h62v-85h-231v85h61v564h-61v85h231v-85h-62z" />
    <glyph glyph-name="J" unicode="J" horiz-adv-x="410" 
d="M13 201l102 7c3 -60 10 -126 72 -126c43 0 68 19 68 109v543h105v-552c0 -129 -60 -194 -177 -194c-122 0 -170 79 -170 213z" />
    <glyph glyph-name="K" unicode="K" horiz-adv-x="487" 
d="M164 734v-319l215 319h116l-208 -299l197 -435h-116l-154 329l-50 -72v-257h-108v734h108z" />
    <glyph glyph-name="L" unicode="L" horiz-adv-x="392" 
d="M164 734v-641h212v-93h-320v734h108z" />
    <glyph glyph-name="M" unicode="M" horiz-adv-x="671" 
d="M385 0h-99l-124 588h-4v-588h-102v734h162l119 -596h3l114 596h161v-734h-102v589h-4z" />
    <glyph glyph-name="N" unicode="N" horiz-adv-x="538" 
d="M483 0h-124l-201 549l-3 -1v-548h-100v734h135l191 -542l3 1v541h99v-734z" />
    <glyph glyph-name="O" unicode="O" horiz-adv-x="509" 
d="M249 -12c-163 0 -209 127 -209 378c0 252 67 381 225 381c163 0 204 -126 204 -367c0 -261 -55 -392 -220 -392zM255 79c85 0 101 92 101 294c0 195 -15 280 -95 280c-84 0 -107 -89 -107 -284c0 -199 15 -290 101 -290z" />
    <glyph glyph-name="P" unicode="P" horiz-adv-x="466" 
d="M164 273v-273h-108v734h169c157 0 219 -82 219 -214c0 -138 -52 -247 -241 -247h-39zM164 364h34c93 0 136 40 136 152c0 92 -42 125 -111 125h-59v-277z" />
    <glyph glyph-name="Q" unicode="Q" horiz-adv-x="509" 
d="M249 -12c-163 0 -209 127 -209 378c0 252 67 381 225 381c163 0 204 -126 204 -367c0 -180 -26 -298 -97 -354l72 -147l-69 -31l-89 143c-12 -2 -24 -3 -37 -3zM255 79c85 0 101 92 101 294c0 195 -15 280 -95 280c-84 0 -107 -89 -107 -284c0 -199 15 -290 101 -290z
" />
    <glyph glyph-name="R" unicode="R" horiz-adv-x="483" 
d="M359 0l-136 314c-7 -1 -13 0 -20 0h-39v-314h-108v734h166c159 0 222 -78 222 -197c0 -90 -28 -167 -116 -203l152 -334h-121zM164 405h34c93 0 136 30 136 128c0 81 -42 108 -113 108h-57v-236z" />
    <glyph glyph-name="S" unicode="S" horiz-adv-x="470" 
d="M428 515l-103 -14c-4 107 -28 153 -94 153c-59 0 -88 -39 -88 -93c0 -69 43 -99 102 -128c85 -41 192 -76 192 -229c0 -147 -92 -216 -207 -216c-137 0 -202 74 -207 235l108 12c5 -113 33 -156 103 -156c59 0 93 33 93 105c0 81 -50 112 -110 140
c-83 39 -182 71 -182 219c0 136 91 204 204 204c122 0 189 -74 189 -232z" />
    <glyph glyph-name="T" unicode="T" horiz-adv-x="429" 
d="M160 0v641h-157v93h422v-93h-157v-641h-108z" />
    <glyph glyph-name="U" unicode="U" horiz-adv-x="508" 
d="M351 255v479h106v-491c0 -163 -51 -255 -206 -255c-165 0 -201 101 -201 254v492h107v-476c0 -131 20 -179 98 -179c74 0 96 47 96 176z" />
    <glyph glyph-name="V" unicode="V" 
d="M382 734h111l-171 -734h-141l-174 734h113l131 -623h2z" />
    <glyph glyph-name="W" unicode="W" horiz-adv-x="715" 
d="M589 0h-147l-80 558h-4l-81 -558h-147l-118 734h111l79 -617h4l93 617h125l91 -616h4l76 616h108z" />
    <glyph glyph-name="X" unicode="X" horiz-adv-x="480" 
d="M119 0h-117l163 383l-158 351h115l115 -268h2l106 268h116l-151 -355l168 -379h-118l-124 291h-1z" />
    <glyph glyph-name="Y" unicode="Y" horiz-adv-x="458" 
d="M283 284v-284h-106v282l-177 452h115l117 -337l117 337h110z" />
    <glyph glyph-name="Z" unicode="Z" horiz-adv-x="380" 
d="M27 641v93h332v-86l-223 -555h226v-93h-347v86l225 555h-213z" />
    <glyph glyph-name="a" unicode="a" horiz-adv-x="411" 
d="M393 71l3 -69c-68 -20 -117 -5 -128 50c-16 -35 -55 -64 -115 -64c-99 0 -131 70 -131 140c0 122 88 151 232 170v46c0 75 -22 102 -65 102c-66 0 -62 -57 -57 -111l-92 -7c-19 112 26 202 162 202c155 0 154 -127 154 -246v-183c0 -27 6 -37 37 -30zM254 145v80
c-99 -8 -129 -29 -129 -89c0 -34 16 -71 59 -71c40 0 70 35 70 80z" />
    <glyph glyph-name="b" unicode="b" horiz-adv-x="437" 
d="M130 0h-81v734h102v-275h1c12 33 48 71 109 71c81 0 142 -53 142 -256c0 -209 -59 -284 -159 -284c-48 0 -80 21 -99 53h-2zM147 263c0 -139 17 -191 72 -191c52 0 77 43 77 200c0 150 -28 174 -71 174c-57 0 -78 -70 -78 -183z" />
    <glyph glyph-name="c" unicode="c" horiz-adv-x="404" 
d="M383 338l-93 -5c-3 75 -20 111 -70 111c-64 0 -78 -64 -78 -195c0 -110 13 -175 81 -175c45 0 61 30 66 106l93 -5c-6 -149 -84 -187 -166 -187c-147 0 -182 115 -182 264c0 176 60 278 192 278c119 0 156 -82 157 -192z" />
    <glyph glyph-name="d" unicode="d" horiz-adv-x="434" 
d="M287 734h101v-734h-88l-9 55h-1c-18 -39 -59 -67 -112 -67c-89 0 -144 66 -144 257c0 200 52 285 159 285c49 0 78 -26 93 -54h1v258zM290 255c0 142 -21 191 -72 191c-58 0 -77 -56 -77 -199c0 -139 23 -175 72 -175c62 0 77 75 77 183z" />
    <glyph glyph-name="e" unicode="e" horiz-adv-x="417" 
d="M291 181l91 -5c-5 -150 -86 -188 -165 -188c-148 0 -183 113 -183 267c0 172 60 275 192 275c126 0 171 -105 156 -291h-240c0 -98 12 -165 80 -165c46 0 65 30 69 107zM142 312h138c3 87 -13 134 -65 134c-56 0 -71 -54 -73 -134z" />
    <glyph glyph-name="f" unicode="f" horiz-adv-x="279" 
d="M9 438v80h60v52c0 125 58 177 154 177c31 0 64 -9 78 -14l-12 -78c-16 5 -35 9 -53 9c-47 0 -65 -29 -65 -93v-53h104v-80h-104v-438h-102v438h-60z" />
    <glyph glyph-name="g" unicode="g" horiz-adv-x="434" 
d="M303 518h85v-490c0 -142 -58 -223 -184 -223c-78 0 -148 36 -158 145l96 12c5 -44 18 -73 66 -73c46 0 80 27 80 125v62h-1c-13 -32 -50 -69 -108 -69c-82 0 -145 54 -145 241c0 207 61 282 160 282c48 0 78 -21 96 -57h2zM290 256c0 138 -19 190 -71 190
s-78 -42 -78 -199c0 -135 28 -156 72 -156c56 0 77 57 77 165z" />
    <glyph glyph-name="h" unicode="h" horiz-adv-x="436" 
d="M393 363v-363h-101v349c0 57 -11 94 -60 94c-74 0 -81 -77 -81 -159v-284h-102v734h102v-276h1c13 30 45 72 115 72c91 0 126 -57 126 -167z" />
    <glyph glyph-name="i" unicode="i" horiz-adv-x="198" 
d="M48 615v119h103v-119h-103zM48 0v518h103v-518h-103z" />
    <glyph glyph-name="j" unicode="j" horiz-adv-x="197" 
d="M49 615v119h103v-119h-103zM-61 -184l12 79c15 -5 28 -7 43 -7c39 0 56 28 56 92v538h102v-537c0 -125 -57 -176 -145 -176c-28 0 -54 6 -68 11z" />
    <glyph glyph-name="k" unicode="k" horiz-adv-x="422" 
d="M150 734v-421l144 205h115l-141 -184l152 -334h-113l-107 248l-50 -65v-183h-102v734h102z" />
    <glyph glyph-name="l" unicode="l" horiz-adv-x="195" 
d="M148 734v-734h-102v734h102z" />
    <glyph glyph-name="m" unicode="m" horiz-adv-x="653" 
d="M260 530c67 0 98 -34 112 -86h1c14 42 47 86 116 86c89 0 121 -56 121 -167v-363h-101v349c0 67 -15 94 -56 94c-48 0 -73 -41 -73 -124v-319h-101v349c0 64 -13 94 -55 94c-52 0 -74 -49 -74 -132v-311h-101v518h90l4 -69h2c13 35 44 81 115 81z" />
    <glyph glyph-name="n" unicode="n" horiz-adv-x="437" 
d="M394 363v-363h-102v349c0 58 -11 94 -59 94c-75 0 -82 -77 -82 -159v-284h-102v518h92l3 -69h2c11 29 41 81 120 81c93 0 128 -56 128 -167z" />
    <glyph glyph-name="o" unicode="o" horiz-adv-x="427" 
d="M209 -12c-130 0 -175 91 -175 271c0 181 66 271 186 271c128 0 172 -88 172 -261c0 -188 -53 -281 -183 -281zM214 73c64 0 72 68 72 190c0 118 -8 181 -70 181c-63 0 -75 -66 -75 -184c0 -120 7 -187 73 -187z" />
    <glyph glyph-name="p" unicode="p" horiz-adv-x="437" 
d="M150 -183h-101v701h89l6 -56h1c13 30 52 68 118 68c82 0 140 -61 140 -256c0 -216 -62 -286 -155 -286c-49 0 -80 24 -96 54h-2v-225zM147 263c0 -137 19 -191 73 -191c58 0 76 58 76 200c0 144 -25 175 -71 175c-60 0 -78 -70 -78 -184z" />
    <glyph glyph-name="q" unicode="q" horiz-adv-x="434" 
d="M307 518h81v-701h-101v242h-1c-13 -32 -49 -71 -109 -71c-82 0 -143 54 -143 257c0 210 59 285 159 285c49 0 80 -21 99 -54h2zM290 256c0 138 -17 190 -71 190c-52 0 -78 -42 -78 -199c0 -150 28 -175 72 -175c56 0 77 70 77 184z" />
    <glyph glyph-name="r" unicode="r" horiz-adv-x="373" 
d="M361 344l-99 -6c6 76 -5 105 -38 105c-54 0 -73 -76 -73 -176v-267h-102v518h92l3 -71h2c11 30 44 83 114 83c77 0 114 -60 101 -186z" />
    <glyph glyph-name="s" unicode="s" horiz-adv-x="372" 
d="M346 365l-91 -10c-2 59 -16 93 -67 93c-36 0 -59 -18 -59 -56c0 -112 223 -64 223 -247c0 -108 -76 -157 -168 -157c-106 0 -163 49 -167 167l96 9c5 -62 21 -96 74 -96c42 0 63 22 63 62c0 120 -221 67 -221 246c0 106 78 154 164 154c97 0 153 -52 153 -165z" />
    <glyph glyph-name="t" unicode="t" horiz-adv-x="301" 
d="M9 438v80h60v100l102 33v-133h104v-80h-104v-280c0 -64 12 -86 59 -86c18 0 40 4 56 9l10 -79c-14 -5 -51 -14 -87 -14c-92 0 -140 42 -140 154v296h-60z" />
    <glyph glyph-name="u" unicode="u" horiz-adv-x="431" 
d="M43 170v348h102v-337c0 -70 9 -105 57 -105c71 0 79 80 79 162v280h102v-518h-88l-7 74h-2c-12 -32 -39 -86 -118 -86c-92 0 -125 57 -125 182z" />
    <glyph glyph-name="v" unicode="v" horiz-adv-x="376" 
d="M254 0h-125l-132 518h113l81 -402h2l80 402h106z" />
    <glyph glyph-name="w" unicode="w" horiz-adv-x="645" 
d="M247 0h-125l-123 518h114l72 -412h2l78 412h123l79 -412h2l71 412h105l-115 -518h-125l-79 401h-2z" />
    <glyph glyph-name="x" unicode="x" horiz-adv-x="424" 
d="M118 0h-111l142 268l-135 250h114l86 -175h2l82 175h109l-132 -255l142 -263h-114l-93 185h-2z" />
    <glyph glyph-name="y" unicode="y" horiz-adv-x="376" 
d="M380 518l-146 -534c-33 -120 -68 -179 -160 -179c-27 0 -57 6 -69 12l12 75c15 -5 30 -8 44 -8c46 0 58 27 75 95l7 26l-146 513h114l81 -388h2l79 388h107z" />
    <glyph glyph-name="z" unicode="z" horiz-adv-x="367" 
d="M31 428v90h314v-84l-204 -343h207v-91h-328v85l206 343h-195z" />
    <glyph glyph-name="bracketleft" unicode="[" horiz-adv-x="287" 
d="M257 -50v-82h-197v915h195v-82l-89 -3v-745z" />
    <glyph glyph-name="bracketright" unicode="]" horiz-adv-x="287" 
d="M30 -132v82l91 3v745l-89 3v82h195v-915h-197z" />
    <glyph glyph-name="parenleft" unicode="(" horiz-adv-x="307" 
d="M206 792l65 -21c-66 -136 -100 -284 -100 -435c0 -160 37 -313 99 -452l-65 -27c-104 148 -152 302 -152 472c0 161 52 323 153 463z" />
    <glyph glyph-name="parenright" unicode=")" horiz-adv-x="307" 
d="M102 -142l-65 23c71 155 99 297 99 442c0 165 -39 308 -99 445l64 26c100 -137 153 -295 153 -466c0 -163 -51 -328 -152 -470z" />
    <glyph glyph-name="braceleft" unicode="{" horiz-adv-x="351" 
d="M125 449v184c0 111 41 142 168 149l5 -42c-56 -16 -66 -36 -66 -82v-192c0 -73 -20 -123 -105 -144v-2c80 -9 105 -55 105 -130v-193c0 -45 8 -66 67 -82l-6 -44c-105 5 -168 31 -168 133v192c0 44 -13 94 -81 95v54c68 9 81 53 81 104z" />
    <glyph glyph-name="braceright" unicode="}" horiz-adv-x="351" 
d="M226 633v-184c0 -51 13 -95 81 -104v-54c-68 -1 -81 -51 -81 -95v-192c0 -102 -63 -128 -168 -133l-6 44c59 16 67 37 67 82v193c0 75 25 121 105 130v2c-85 21 -105 71 -105 144v192c0 46 -10 66 -66 82l5 42c127 -7 168 -38 168 -149z" />
    <glyph glyph-name="backslash" unicode="\" horiz-adv-x="318" 
d="M99 777l230 -851l-90 -25l-232 853z" />
    <glyph glyph-name="slash" unicode="/" horiz-adv-x="347" 
d="M-15 -71l273 849l94 -27l-273 -851z" />
    <glyph glyph-name="brokenbar" unicode="&#xa6;" horiz-adv-x="232" 
d="M66 -240v445h100v-445h-100zM66 760h100v-445h-100v445z" />
    <glyph glyph-name="bar" unicode="|" horiz-adv-x="232" 
d="M66 760h100v-1000h-100v1000z" />
    <glyph glyph-name="asciicircum" unicode="^" horiz-adv-x="442" 
d="M185 755h88l149 -370l-83 -29l-112 283h-2l-122 -283l-83 29z" />
    <glyph glyph-name="underscore" unicode="_" horiz-adv-x="363" 
d="M0 -53h363v-76h-363v76z" />
    <glyph glyph-name="asciitilde" unicode="~" 
d="M131 215l-64 22c15 82 53 110 106 110c26 0 53 -9 83 -22c30 -14 48 -21 66 -21c23 0 37 17 46 49l65 -20c-17 -71 -52 -109 -102 -109c-28 0 -65 14 -92 26c-25 9 -42 17 -59 17c-19 0 -39 -12 -49 -52z" />
    <glyph glyph-name="uni00A0" unicode="&#xa0;" horiz-adv-x="166" 
 />
    <glyph glyph-name="zero" unicode="0" horiz-adv-x="483" 
d="M236 -12c-156 0 -196 127 -196 378c0 252 60 381 211 381c156 0 192 -126 192 -367c0 -261 -48 -392 -207 -392zM242 79c79 0 93 92 93 294c0 195 -14 283 -89 283c-77 0 -97 -92 -97 -287c0 -199 12 -290 93 -290z" />
    <glyph glyph-name="one" unicode="1" horiz-adv-x="317" 
d="M33 553l-21 87c49 20 100 52 150 94h80v-734h-106v608c-20 -14 -58 -36 -103 -55z" />
    <glyph glyph-name="two" unicode="2" horiz-adv-x="409" 
d="M161 95h201v-95h-314c0 11 -1 24 -1 37c-1 24 1 49 6 70c20 179 215 285 215 467c0 58 -23 82 -60 82c-57 0 -70 -46 -58 -157l-98 -7c-19 137 14 255 160 255c108 0 163 -61 163 -174c0 -215 -215 -331 -214 -478z" />
    <glyph glyph-name="three" unicode="3" horiz-adv-x="424" 
d="M144 335l-5 87c95 3 131 36 131 135c0 78 -29 99 -66 99c-55 0 -73 -44 -63 -151l-98 -5c-18 130 15 247 166 247c103 0 169 -63 169 -182c0 -113 -57 -158 -121 -178c93 -20 131 -90 131 -185c0 -141 -64 -214 -181 -214c-143 0 -178 97 -181 231l102 6
c4 -102 22 -145 80 -145c42 0 72 32 72 124c0 115 -49 134 -136 131z" />
    <glyph glyph-name="four" unicode="4" horiz-adv-x="445" 
d="M118 246h140v352h-2zM359 734v-488h71v-94h-71v-152h-101v152h-238v71l208 511h131z" />
    <glyph glyph-name="five" unicode="5" horiz-adv-x="436" 
d="M215 390c-35 0 -65 -21 -81 -65l-82 6l24 403h300v-94h-213l-20 -212c25 31 62 52 106 52c82 0 152 -55 152 -235c0 -172 -65 -257 -190 -257c-128 0 -179 85 -181 228l103 7c3 -106 32 -143 79 -143c52 0 81 48 81 162c0 124 -33 148 -78 148z" />
    <glyph glyph-name="six" unicode="6" horiz-adv-x="454" 
d="M248 656c-62 0 -93 -71 -100 -267c26 44 72 66 119 66c91 0 156 -71 156 -227c0 -176 -83 -240 -185 -240c-149 0 -195 111 -195 337c0 283 59 422 216 422c121 0 165 -82 155 -214l-104 -6c4 89 -10 129 -62 129zM233 370c-50 0 -83 -30 -83 -132
c0 -103 31 -159 87 -159c57 0 78 57 78 147c0 102 -24 144 -82 144z" />
    <glyph glyph-name="seven" unicode="7" horiz-adv-x="356" 
d="M195 0h-120c7 274 75 467 170 639h-237v95h341v-74c-123 -218 -149 -413 -154 -660z" />
    <glyph glyph-name="eight" unicode="8" horiz-adv-x="467" 
d="M231 -12c-145 0 -198 90 -198 207c0 102 34 172 120 205c-72 23 -99 88 -99 155c0 115 65 192 183 192c127 0 175 -75 175 -184c0 -74 -31 -138 -101 -160c88 -26 124 -97 124 -196c0 -126 -56 -219 -204 -219zM235 79c69 0 94 51 94 128c0 90 -21 148 -96 148
c-65 0 -93 -57 -93 -144c0 -81 23 -132 95 -132zM234 443c58 0 72 47 72 118c0 59 -16 104 -72 104c-55 0 -73 -47 -73 -107c0 -73 16 -115 73 -115z" />
    <glyph glyph-name="nine" unicode="9" horiz-adv-x="454" 
d="M212 79c69 0 93 81 99 267c-26 -44 -70 -66 -114 -66c-94 0 -163 71 -163 219c0 183 86 248 192 248c142 0 189 -109 189 -335c0 -283 -48 -424 -208 -424c-121 0 -176 80 -174 214l103 7c3 -93 24 -130 76 -130zM222 365c52 0 86 33 86 139c0 96 -27 152 -84 152
c-56 0 -82 -57 -82 -150c0 -99 24 -141 80 -141z" />
    <glyph glyph-name="dollar" unicode="$" horiz-adv-x="465" 
d="M201 798h77v-75c93 -14 145 -88 145 -226l-101 -11c-2 75 -15 118 -44 137v-208c74 -29 153 -64 153 -196c0 -122 -65 -189 -153 -206v-78h-77v75c-111 10 -166 84 -170 230l107 12c5 -90 21 -134 63 -148v228c-75 30 -158 61 -158 202c0 109 67 174 158 189v75zM152 544
c0 -46 20 -73 49 -93v177c-34 -12 -49 -44 -49 -84zM321 198c0 46 -18 74 -43 94v-185c28 14 43 45 43 91z" />
    <glyph glyph-name="Euro" unicode="&#x20ac;" horiz-adv-x="488" 
d="M276 76c66 0 83 64 88 144l102 -8c-13 -153 -71 -224 -196 -224c-129 0 -181 88 -194 265h-68l12 78h53v30v33h-50l14 78h41c19 184 88 275 215 275c128 0 172 -100 173 -233l-101 -8c-3 103 -23 150 -80 150c-59 0 -90 -54 -100 -184h138l-12 -78h-129v-30v-33h126
l-12 -78h-112c7 -126 31 -177 92 -177z" />
    <glyph glyph-name="cent" unicode="&#xa2;" horiz-adv-x="409" 
d="M385 431l-92 -6c-2 51 -11 84 -31 100v-349c18 15 26 45 30 96l93 -5c-5 -123 -59 -169 -123 -182v-84h-74v82c-122 15 -151 123 -151 261c0 158 47 256 151 275v76h74v-75c93 -14 123 -90 123 -189zM145 342c0 -86 7 -145 43 -167v353c-34 -22 -43 -84 -43 -186z" />
    <glyph glyph-name="sterling" unicode="&#xa3;" horiz-adv-x="423" 
d="M22 322v83h73c-22 43 -44 93 -44 163c0 113 76 179 184 179c120 0 165 -79 165 -185c0 -21 -2 -42 -5 -64l-97 8c2 17 2 33 2 47c0 73 -21 103 -69 103c-40 0 -75 -22 -75 -88c0 -64 26 -114 49 -163h156v-83h-126c3 -14 5 -29 5 -44c0 -55 -23 -110 -88 -185h238v-93
h-349v90c73 75 98 129 98 189c0 15 -3 29 -7 43h-110z" />
    <glyph glyph-name="yen" unicode="&#xa5;" horiz-adv-x="457" 
d="M377 337h-95v-69h95v-77h-95v-191h-106v191h-98v77h98v69h-98v77h67l-145 320h116l115 -293l117 293h109l-146 -320h66v-77z" />
    <glyph glyph-name="florin" unicode="&#x192;" horiz-adv-x="407" 
d="M36 379l15 80h94l21 115c22 125 82 173 183 173c31 0 63 -9 77 -14l-26 -78c-15 5 -34 9 -51 9c-47 0 -72 -29 -83 -93l-20 -112h128l-15 -80h-127l-60 -349c-21 -122 -82 -170 -183 -170c-31 0 -63 9 -76 14l25 78c15 -5 34 -9 52 -9c46 0 69 27 80 88l61 348h-95z" />
    <glyph glyph-name="section" unicode="&#xa7;" horiz-adv-x="536" 
d="M52 252c0 63 37 113 91 153c-34 29 -58 70 -58 134c0 125 92 196 203 196c108 0 183 -58 191 -187l-106 -15c-6 69 -30 109 -91 109c-54 0 -81 -34 -81 -85c0 -159 283 -81 283 -285c0 -61 -36 -121 -86 -161c31 -28 60 -65 60 -137c0 -116 -87 -187 -199 -187
c-110 0 -192 56 -202 189l112 15c6 -65 29 -110 93 -110c54 0 82 35 82 88c0 153 -292 74 -292 283zM159 276c0 -76 90 -86 168 -120c28 21 49 54 49 93c0 74 -90 79 -169 115c-30 -23 -48 -54 -48 -88z" />
    <glyph glyph-name="copyright" unicode="&#xa9;" horiz-adv-x="674" 
d="M634 340c0 -219 -121 -357 -297 -357c-200 0 -297 149 -297 342c0 223 132 356 298 356c183 0 296 -134 296 -341zM338 49c146 0 226 108 226 285c0 184 -88 281 -226 281c-136 0 -225 -105 -225 -289c0 -173 77 -277 225 -277zM417 284l60 -11
c-15 -105 -77 -137 -139 -137c-107 0 -152 82 -152 199c0 116 57 199 158 199c74 0 125 -44 131 -138l-63 -10c-6 55 -23 88 -70 88c-49 0 -83 -38 -83 -143c0 -78 22 -134 81 -134c52 0 66 38 77 87z" />
    <glyph glyph-name="registered" unicode="&#xae;" horiz-adv-x="409" 
d="M379 547c0 -115 -72 -193 -175 -193c-116 0 -174 80 -174 186c0 120 78 194 174 194c108 0 175 -74 175 -187zM326 544c0 94 -47 143 -122 143c-72 0 -120 -53 -120 -146c0 -88 41 -140 120 -140c81 0 122 54 122 143zM239 537l46 -86h-43l-39 76h-19v-76h-40v191h68
c47 0 59 -26 59 -54c0 -26 -11 -43 -32 -51zM184 558h11c22 0 35 4 35 28c0 20 -12 24 -32 24h-14v-52z" />
    <glyph glyph-name="trademark" unicode="&#x2122;" horiz-adv-x="648" 
d="M93 350v321h-83v63h241v-63h-84v-321h-74zM471 350h-57l-70 290v-290h-61v384h93l68 -291l66 291h96v-384h-65v290z" />
    <glyph glyph-name="ordfeminine" unicode="&#xaa;" horiz-adv-x="291" 
d="M278 473l2 -53c-45 -12 -90 -10 -101 30c-11 -21 -35 -39 -75 -39c-68 0 -88 43 -88 86c0 79 64 97 153 108v21c0 37 -11 56 -36 56c-33 0 -33 -26 -30 -56l-74 -5c-13 69 18 126 115 126c108 0 108 -78 108 -151v-104c0 -17 5 -24 26 -19zM169 511v43
c-50 -4 -71 -17 -71 -50c0 -17 8 -35 33 -35c22 0 38 18 38 42z" />
    <glyph glyph-name="ordmasculine" unicode="&#xba;" horiz-adv-x="302" 
d="M148 411c-89 0 -123 54 -123 167s48 169 131 169c88 0 121 -55 121 -163c0 -118 -41 -173 -129 -173zM151 475c33 0 40 30 40 105c0 73 -7 101 -38 101c-32 0 -43 -29 -43 -103s7 -104 41 -103z" />
    <glyph glyph-name="guillemotleft" unicode="&#xab;" horiz-adv-x="380" 
d="M350 80l-65 -30l-106 201l106 193l66 -28l-77 -163zM205 80l-66 -30l-105 201l106 193l66 -28l-77 -163z" />
    <glyph glyph-name="guillemotright" unicode="&#xbb;" horiz-adv-x="380" 
d="M95 50l-65 30l76 173l-77 163l66 28l106 -193zM241 50l-66 30l76 173l-77 163l66 28l106 -193z" />
    <glyph glyph-name="guilsinglleft" unicode="&#x2039;" horiz-adv-x="235" 
d="M205 80l-66 -30l-105 201l106 193l66 -28l-77 -163z" />
    <glyph glyph-name="guilsinglright" unicode="&#x203a;" horiz-adv-x="233" 
d="M96 50l-66 30l76 173l-77 163l66 28l106 -193z" />
    <glyph glyph-name="quoteleft" unicode="&#x2018;" horiz-adv-x="187" 
d="M152 613v-126h-113v101l61 164l45 -12l-36 -127h43z" />
    <glyph glyph-name="quoteright" unicode="&#x2019;" horiz-adv-x="184" 
d="M32 608v126h112v-102l-60 -164l-45 13l35 127h-42z" />
    <glyph glyph-name="quotesinglbase" unicode="&#x201a;" horiz-adv-x="187" 
d="M42 0v126h112v-101l-60 -164l-45 12l35 127h-42z" />
    <glyph glyph-name="quotedblleft" unicode="&#x201c;" horiz-adv-x="334" 
d="M299 613v-126h-113v101l61 164l45 -12l-36 -127h43zM152 613v-126h-113v101l61 164l45 -12l-36 -127h43z" />
    <glyph glyph-name="quotedblright" unicode="&#x201d;" horiz-adv-x="331" 
d="M179 608v126h112v-102l-60 -164l-45 13l35 127h-42zM32 608v126h112v-102l-60 -164l-45 13l35 127h-42z" />
    <glyph glyph-name="quotedblbase" unicode="&#x201e;" horiz-adv-x="334" 
d="M179 0v126h112v-102l-60 -164l-45 13l35 127h-42zM32 0v126h112v-102l-60 -164l-45 13l35 127h-42z" />
    <glyph glyph-name="dagger" unicode="&#x2020;" horiz-adv-x="359" 
d="M340 535l-116 -10l-13 -238h-64l-13 238l-114 10v62l114 10l11 127h68l11 -127l116 -10v-62z" />
    <glyph glyph-name="daggerdbl" unicode="&#x2021;" horiz-adv-x="359" 
d="M339 365l-115 -9l-13 -89h-64l-12 89l-115 9v62l115 10l12 57l-12 65l-115 10v62l115 10l10 93h69l10 -93l115 -10v-62l-115 -10l-13 -65l13 -57l115 -10v-62z" />
    <glyph glyph-name="bullet" unicode="&#x2022;" horiz-adv-x="379" 
d="M86 340c0 73 46 110 102 110c58 0 105 -37 105 -110s-47 -111 -105 -111c-57 0 -102 38 -102 111z" />
    <glyph glyph-name="ellipsis" unicode="&#x2026;" horiz-adv-x="650" 
d="M52 0v131h114v-131h-114zM268 0v131h115v-131h-115zM485 0v131h114v-131h-114z" />
    <glyph glyph-name="paragraph" unicode="&#xb6;" horiz-adv-x="538" 
d="M251 -141v374h-2c-148 0 -204 114 -204 249c0 133 56 251 227 251h68v-874h-89zM389 -140v873h89v-873h-89z" />
    <glyph glyph-name="periodcentered" unicode="&#xb7;" horiz-adv-x="217" 
d="M52 265v131h114v-131h-114z" />
    <glyph glyph-name="uni00AD" unicode="&#xad;" horiz-adv-x="315" 
d="M40 346h236v-76h-236v76z" />
    <glyph glyph-name="endash" unicode="&#x2013;" horiz-adv-x="363" 
d="M0 346h363v-76h-363v76z" />
    <glyph glyph-name="emdash" unicode="&#x2014;" horiz-adv-x="726" 
d="M0 346h726v-76h-726v76z" />
    <glyph glyph-name="hyphen.case" horiz-adv-x="280" 
d="M255 311h-230v81h230v-81z" />
    <glyph glyph-name="Agrave" unicode="&#xc0;" horiz-adv-x="510" 
d="M182 734h141l175 -734h-113l-42 187h-180l-41 -187h-110zM325 283l-72 339h-2l-72 -339h146zM144 844l48 76l155 -109l-30 -48z" />
    <glyph glyph-name="Aacute" unicode="&#xc1;" horiz-adv-x="510" 
d="M182 734h141l175 -734h-113l-42 187h-180l-41 -187h-110zM325 283l-72 339h-2l-72 -339h146zM317 923l47 -79l-173 -81l-29 49z" />
    <glyph glyph-name="Acircumflex" unicode="&#xc2;" horiz-adv-x="510" 
d="M182 734h141l175 -734h-113l-42 187h-180l-41 -187h-110zM325 283l-72 339h-2l-72 -339h146zM226 914h53l116 -111l-33 -41l-110 73l-109 -73l-33 41z" />
    <glyph glyph-name="Atilde" unicode="&#xc3;" horiz-adv-x="510" 
d="M182 734h141l175 -734h-113l-42 187h-180l-41 -187h-110zM325 283l-72 339h-2l-72 -339h146zM176 782l-49 7c11 68 42 98 79 98s67 -27 93 -27c12 0 23 6 31 37l49 -6c-13 -71 -38 -103 -80 -103s-71 26 -93 26c-12 0 -23 -6 -30 -32z" />
    <glyph glyph-name="Adieresis" unicode="&#xc4;" horiz-adv-x="510" 
d="M182 734h141l175 -734h-113l-42 187h-180l-41 -187h-110zM325 283l-72 339h-2l-72 -339h146zM282 782v103h82v-103h-82zM142 782v103h82v-103h-82z" />
    <glyph glyph-name="Aring" unicode="&#xc5;" horiz-adv-x="510" 
d="M182 734h141l175 -734h-113l-42 187h-180l-41 -187h-110zM325 283l-72 339h-2l-72 -339h146zM251 762c-63 0 -91 31 -91 85s40 85 95 85c59 0 90 -30 90 -82c0 -57 -34 -88 -94 -88zM253 804c18 0 30 13 30 44c0 32 -12 43 -29 43c-20 0 -33 -11 -33 -44
c0 -32 11 -43 32 -43z" />
    <glyph glyph-name="Aringacute" unicode="&#x1fa;" horiz-adv-x="510" 
d="M122 0h-110l170 733c-15 14 -21 35 -21 62c0 54 40 85 95 85c59 0 90 -30 90 -82c0 -28 -8 -49 -23 -64l175 -734h-113l-42 187h-180zM325 283l-72 339h-2l-72 -339h146zM312 1049l47 -79l-173 -81l-29 49zM254 752c18 0 30 13 30 44c0 32 -12 43 -29 43
c-20 0 -33 -11 -33 -44c0 -32 11 -43 32 -43z" />
    <glyph glyph-name="AE" unicode="&#xc6;" horiz-adv-x="704" 
d="M642 411v-89h-196v-229h237v-93h-345v322h-135l-81 -322h-110l195 734h458v-93h-219v-230h196zM282 641l-60 -231h116v231h-56z" />
    <glyph glyph-name="AEacute" unicode="&#x1fc;" horiz-adv-x="704" 
d="M505 923l47 -79l-173 -81l-29 49zM642 411v-89h-196v-229h237v-93h-345v322h-135l-81 -322h-110l195 734h458v-93h-219v-230h196zM282 641l-60 -231h116v231h-56z" />
    <glyph glyph-name="Ccedilla" unicode="&#xc7;" horiz-adv-x="484" 
d="M197 -83l28 72c-140 11 -185 133 -185 372c0 258 75 386 233 386c132 0 184 -100 182 -267l-105 -9c-1 139 -26 183 -87 183c-76 0 -109 -80 -109 -290c0 -200 23 -286 102 -286c68 0 86 67 89 173l105 -7c-6 -170 -60 -244 -175 -255l-16 -38c8 4 15 5 24 5
c45 0 72 -32 72 -82c0 -60 -42 -91 -98 -91c-34 0 -71 12 -95 60l45 26c13 -25 27 -32 41 -32c20 0 31 12 31 38c0 25 -10 37 -25 37c-8 0 -15 -3 -22 -10z" />
    <glyph glyph-name="Egrave" unicode="&#xc8;" horiz-adv-x="422" 
d="M109 844l48 76l155 -109l-30 -48zM360 421v-89h-196v-239h237v-93h-345v734h327v-93h-219v-220h196z" />
    <glyph glyph-name="Eacute" unicode="&#xc9;" horiz-adv-x="422" 
d="M287 923l47 -79l-173 -81l-29 49zM360 421v-89h-196v-239h237v-93h-345v734h327v-93h-219v-220h196z" />
    <glyph glyph-name="Ecircumflex" unicode="&#xca;" horiz-adv-x="422" 
d="M360 421v-89h-196v-239h237v-93h-345v734h327v-93h-219v-220h196zM192 914h53l116 -111l-33 -41l-110 73l-109 -73l-33 41z" />
    <glyph glyph-name="Edieresis" unicode="&#xcb;" horiz-adv-x="422" 
d="M250 782v103h82v-103h-82zM110 782v103h82v-103h-82zM360 421v-89h-196v-239h237v-93h-345v734h327v-93h-219v-220h196z" />
    <glyph glyph-name="Igrave" unicode="&#xcc;" horiz-adv-x="293" 
d="M200 649v-564h62v-85h-231v85h61v564h-61v85h231v-85h-62zM31 844l48 76l155 -109l-30 -48z" />
    <glyph glyph-name="Iacute" unicode="&#xcd;" horiz-adv-x="293" 
d="M200 649v-564h62v-85h-231v85h61v564h-61v85h231v-85h-62zM207 923l47 -79l-173 -81l-29 49z" />
    <glyph glyph-name="Icircumflex" unicode="&#xce;" horiz-adv-x="293" 
d="M200 649v-564h62v-85h-231v85h61v564h-61v85h231v-85h-62zM119 914h53l116 -111l-33 -41l-110 73l-109 -73l-33 41z" />
    <glyph glyph-name="Idieresis" unicode="&#xcf;" horiz-adv-x="293" 
d="M200 649v-564h62v-85h-231v85h61v564h-61v85h231v-85h-62zM175 782v103h82v-103h-82zM35 782v103h82v-103h-82z" />
    <glyph glyph-name="Eth" unicode="&#xd0;" horiz-adv-x="521" 
d="M193 0h-118v323h-57v89h57v322h119c230 0 288 -113 288 -354c0 -269 -57 -380 -289 -380zM183 91h29c122 0 156 68 156 282c0 195 -33 270 -158 270h-27v-231h118v-89h-118v-232z" />
    <glyph glyph-name="Ntilde" unicode="&#xd1;" horiz-adv-x="538" 
d="M202 782l-49 7c11 68 42 98 79 98s67 -27 93 -27c12 0 23 6 31 37l49 -6c-13 -71 -38 -103 -80 -103s-71 26 -93 26c-12 0 -23 -6 -30 -32zM483 0h-124l-201 549l-3 -1v-548h-100v734h135l191 -542l3 1v541h99v-734z" />
    <glyph glyph-name="Ograve" unicode="&#xd2;" horiz-adv-x="509" 
d="M145 844l48 76l155 -109l-30 -48zM249 -12c-163 0 -209 127 -209 378c0 252 67 381 225 381c163 0 204 -126 204 -367c0 -261 -55 -392 -220 -392zM255 79c85 0 101 92 101 294c0 195 -15 280 -95 280c-84 0 -107 -89 -107 -284c0 -199 15 -290 101 -290z" />
    <glyph glyph-name="Oacute" unicode="&#xd3;" horiz-adv-x="509" 
d="M326 923l47 -79l-173 -81l-29 49zM249 -12c-163 0 -209 127 -209 378c0 252 67 381 225 381c163 0 204 -126 204 -367c0 -261 -55 -392 -220 -392zM255 79c85 0 101 92 101 294c0 195 -15 280 -95 280c-84 0 -107 -89 -107 -284c0 -199 15 -290 101 -290z" />
    <glyph glyph-name="Ocircumflex" unicode="&#xd4;" horiz-adv-x="509" 
d="M249 -12c-163 0 -209 127 -209 378c0 252 67 381 225 381c163 0 204 -126 204 -367c0 -261 -55 -392 -220 -392zM255 79c85 0 101 92 101 294c0 195 -15 280 -95 280c-84 0 -107 -89 -107 -284c0 -199 15 -290 101 -290zM233 914h53l116 -111l-33 -41l-110 73l-109 -73
l-33 41z" />
    <glyph glyph-name="Otilde" unicode="&#xd5;" horiz-adv-x="509" 
d="M182 782l-49 7c11 68 42 98 79 98s67 -27 93 -27c12 0 23 6 31 37l49 -6c-13 -71 -38 -103 -80 -103s-71 26 -93 26c-12 0 -23 -6 -30 -32zM249 -12c-163 0 -209 127 -209 378c0 252 67 381 225 381c163 0 204 -126 204 -367c0 -261 -55 -392 -220 -392zM255 79
c85 0 101 92 101 294c0 195 -15 280 -95 280c-84 0 -107 -89 -107 -284c0 -199 15 -290 101 -290z" />
    <glyph glyph-name="Odieresis" unicode="&#xd6;" horiz-adv-x="509" 
d="M289 782v103h82v-103h-82zM149 782v103h82v-103h-82zM249 -12c-163 0 -209 127 -209 378c0 252 67 381 225 381c163 0 204 -126 204 -367c0 -261 -55 -392 -220 -392zM255 79c85 0 101 92 101 294c0 195 -15 280 -95 280c-84 0 -107 -89 -107 -284
c0 -199 15 -290 101 -290z" />
    <glyph glyph-name="Oslash" unicode="&#xd8;" horiz-adv-x="509" 
d="M249 -12c-31 0 -58 5 -81 13l-22 -64l-73 24l30 89c-47 61 -63 167 -63 316c0 252 67 381 225 381c27 0 52 -4 73 -11l23 67l73 -22l-31 -90c50 -58 66 -163 66 -311c0 -261 -55 -392 -220 -392zM255 79c85 0 100 92 100 294c0 64 -2 116 -7 157l-147 -432
c14 -13 31 -19 54 -19zM154 369c0 -62 1 -113 6 -154l145 425c-12 9 -26 13 -44 13c-84 0 -107 -89 -107 -284z" />
    <glyph glyph-name="Oslashacute" unicode="&#x1fe;" horiz-adv-x="509" 
d="M326 937l47 -79l-173 -81l-29 49zM249 -12c-31 0 -58 5 -81 13l-22 -64l-73 24l30 89c-47 61 -63 167 -63 316c0 252 67 381 225 381c27 0 52 -4 73 -11l23 67l73 -22l-31 -90c50 -58 66 -163 66 -311c0 -261 -55 -392 -220 -392zM255 79c85 0 100 92 100 294
c0 64 -2 116 -7 157l-147 -432c14 -13 31 -19 54 -19zM154 369c0 -62 1 -113 6 -154l145 425c-12 9 -26 13 -44 13c-84 0 -107 -89 -107 -284z" />
    <glyph glyph-name="Ugrave" unicode="&#xd9;" horiz-adv-x="508" 
d="M140 844l48 76l155 -109l-30 -48zM351 255v479h106v-491c0 -163 -51 -255 -206 -255c-165 0 -201 101 -201 254v492h107v-476c0 -131 20 -179 98 -179c74 0 96 47 96 176z" />
    <glyph glyph-name="Uacute" unicode="&#xda;" horiz-adv-x="508" 
d="M321 923l47 -79l-173 -81l-29 49zM351 255v479h106v-491c0 -163 -51 -255 -206 -255c-165 0 -201 101 -201 254v492h107v-476c0 -131 20 -179 98 -179c74 0 96 47 96 176z" />
    <glyph glyph-name="Ucircumflex" unicode="&#xdb;" horiz-adv-x="508" 
d="M351 255v479h106v-491c0 -163 -51 -255 -206 -255c-165 0 -201 101 -201 254v492h107v-476c0 -131 20 -179 98 -179c74 0 96 47 96 176zM228 914h53l116 -111l-33 -41l-110 73l-109 -73l-33 41z" />
    <glyph glyph-name="Udieresis" unicode="&#xdc;" horiz-adv-x="508" 
d="M284 782v103h82v-103h-82zM144 782v103h82v-103h-82zM351 255v479h106v-491c0 -163 -51 -255 -206 -255c-165 0 -201 101 -201 254v492h107v-476c0 -131 20 -179 98 -179c74 0 96 47 96 176z" />
    <glyph glyph-name="Yacute" unicode="&#xdd;" horiz-adv-x="458" 
d="M283 284v-284h-106v282l-177 452h115l117 -337l117 337h110zM297 923l47 -79l-173 -81l-29 49z" />
    <glyph glyph-name="Thorn" unicode="&#xde;" horiz-adv-x="466" 
d="M164 143v-143h-108v734h108v-130h61c157 0 219 -82 219 -214c0 -138 -52 -247 -241 -247h-39zM164 234h34c93 0 136 40 136 152c0 92 -42 125 -111 125h-59v-277z" />
    <glyph glyph-name="germandbls" unicode="&#xdf;" horiz-adv-x="533" 
d="M152 491v-491h-102v501c0 170 80 246 217 246c133 0 185 -73 185 -180c0 -44 -15 -102 -24 -125c-13 3 -24 4 -34 4c-38 0 -73 -17 -73 -59c0 -34 24 -53 55 -70c56 -31 132 -58 132 -169c0 -95 -50 -160 -152 -160c-109 0 -158 61 -162 169l94 10c6 -52 12 -99 69 -99
c41 0 55 29 55 68c0 52 -38 73 -79 95c-56 30 -109 56 -109 141c0 86 62 127 126 135c3 10 6 42 6 60c0 63 -26 98 -92 98c-88 0 -112 -59 -112 -174z" />
    <glyph glyph-name="agrave" unicode="&#xe0;" horiz-adv-x="411" 
d="M393 71l3 -69c-68 -20 -117 -5 -128 50c-16 -35 -55 -64 -115 -64c-99 0 -131 70 -131 140c0 122 88 151 232 170v46c0 75 -22 102 -65 102c-66 0 -62 -57 -57 -111l-92 -7c-19 112 26 202 162 202c155 0 154 -127 154 -246v-183c0 -27 6 -37 37 -30zM254 145v80
c-99 -8 -129 -29 -129 -89c0 -34 16 -71 59 -71c40 0 70 35 70 80zM93 702l74 56l104 -155l-45 -35z" />
    <glyph glyph-name="aacute" unicode="&#xe1;" horiz-adv-x="411" 
d="M393 71l3 -69c-68 -20 -117 -5 -128 50c-16 -35 -55 -64 -115 -64c-99 0 -131 70 -131 140c0 122 88 151 232 170v46c0 75 -22 102 -65 102c-66 0 -62 -57 -57 -111l-92 -7c-19 112 26 202 162 202c155 0 154 -127 154 -246v-183c0 -27 6 -37 37 -30zM254 145v80
c-99 -8 -129 -29 -129 -89c0 -34 16 -71 59 -71c40 0 70 35 70 80zM237 757l71 -55l-131 -135l-44 36z" />
    <glyph glyph-name="acircumflex" unicode="&#xe2;" horiz-adv-x="411" 
d="M393 71l3 -69c-68 -20 -117 -5 -128 50c-16 -35 -55 -64 -115 -64c-99 0 -131 70 -131 140c0 122 88 151 232 170v46c0 75 -22 102 -65 102c-66 0 -62 -57 -57 -111l-92 -7c-19 112 26 202 162 202c155 0 154 -127 154 -246v-183c0 -27 6 -37 37 -30zM254 145v80
c-99 -8 -129 -29 -129 -89c0 -34 16 -71 59 -71c40 0 70 35 70 80zM173 744h54l101 -143l-42 -33l-86 90l-86 -90l-41 32z" />
    <glyph glyph-name="atilde" unicode="&#xe3;" horiz-adv-x="411" 
d="M393 71l3 -69c-68 -20 -117 -5 -128 50c-16 -35 -55 -64 -115 -64c-99 0 -131 70 -131 140c0 122 88 151 232 170v46c0 75 -22 102 -65 102c-66 0 -62 -57 -57 -111l-92 -7c-19 112 26 202 162 202c155 0 154 -127 154 -246v-183c0 -27 6 -37 37 -30zM254 145v80
c-99 -8 -129 -29 -129 -89c0 -34 16 -71 59 -71c40 0 70 35 70 80zM125 607l-49 7c11 67 40 96 77 96c36 0 66 -26 92 -26c12 0 23 6 31 36l48 -6c-12 -71 -36 -101 -78 -101c-41 0 -70 25 -92 25c-12 0 -23 -5 -29 -31z" />
    <glyph glyph-name="adieresis" unicode="&#xe4;" horiz-adv-x="411" 
d="M393 71l3 -69c-68 -20 -117 -5 -128 50c-16 -35 -55 -64 -115 -64c-99 0 -131 70 -131 140c0 122 88 151 232 170v46c0 75 -22 102 -65 102c-66 0 -62 -57 -57 -111l-92 -7c-19 112 26 202 162 202c155 0 154 -127 154 -246v-183c0 -27 6 -37 37 -30zM254 145v80
c-99 -8 -129 -29 -129 -89c0 -34 16 -71 59 -71c40 0 70 35 70 80zM228 609v103h82v-103h-82zM90 609v103h82v-103h-82z" />
    <glyph glyph-name="aring" unicode="&#xe5;" horiz-adv-x="411" 
d="M393 71l3 -69c-68 -20 -117 -5 -128 50c-16 -35 -55 -64 -115 -64c-99 0 -131 70 -131 140c0 122 88 151 232 170v46c0 75 -22 102 -65 102c-66 0 -62 -57 -57 -111l-92 -7c-19 112 26 202 162 202c155 0 154 -127 154 -246v-183c0 -27 6 -37 37 -30zM254 145v80
c-99 -8 -129 -29 -129 -89c0 -34 16 -71 59 -71c40 0 70 35 70 80zM198 580c-63 0 -91 31 -91 85s40 85 95 85c59 0 90 -30 90 -82c0 -57 -34 -88 -94 -88zM200 621c18 0 30 13 30 45s-12 43 -29 43c-20 0 -33 -11 -33 -44c0 -32 11 -44 32 -44z" />
    <glyph glyph-name="aringacute" unicode="&#x1fb;" horiz-adv-x="411" 
d="M393 71l3 -69c-68 -20 -117 -5 -128 50c-16 -35 -55 -64 -115 -64c-99 0 -131 70 -131 140c0 122 88 151 232 170v46c0 75 -22 102 -65 102c-66 0 -62 -57 -57 -111l-92 -7c-19 112 26 202 162 202c155 0 154 -127 154 -246v-183c0 -27 6 -37 37 -30zM254 145v80
c-99 -8 -129 -29 -129 -89c0 -34 16 -71 59 -71c40 0 70 35 70 80zM198 575c-63 0 -91 31 -91 85s40 85 95 85c59 0 90 -30 90 -82c0 -57 -34 -88 -94 -88zM200 616c18 0 30 13 30 45s-12 43 -29 43c-20 0 -33 -11 -33 -44c0 -32 11 -44 32 -44zM260 923l47 -79l-173 -81
l-29 49z" />
    <glyph glyph-name="ae" unicode="&#xe6;" horiz-adv-x="631" 
d="M505 181l91 -4c-5 -152 -86 -189 -166 -189c-77 0 -112 31 -136 86c-28 -61 -82 -86 -141 -86c-99 0 -131 70 -131 141c0 121 89 150 232 169v46c0 75 -22 102 -65 102c-66 0 -62 -57 -57 -111l-92 -7c-19 112 27 202 159 202c59 0 93 -24 116 -58c29 37 72 58 124 58
c127 0 172 -103 158 -289h-241c0 -99 12 -167 81 -167c45 0 65 31 68 107zM356 312h139c1 84 -13 132 -65 132c-57 0 -72 -56 -74 -132zM254 145v80c-98 -8 -129 -29 -129 -88c0 -40 17 -72 59 -72s70 37 70 80z" />
    <glyph glyph-name="aeacute" unicode="&#x1fd;" horiz-adv-x="631" 
d="M354 757l71 -55l-131 -135l-44 36zM505 181l91 -4c-5 -152 -86 -189 -166 -189c-77 0 -112 31 -136 86c-28 -61 -82 -86 -141 -86c-99 0 -131 70 -131 141c0 121 89 150 232 169v46c0 75 -22 102 -65 102c-66 0 -62 -57 -57 -111l-92 -7c-19 112 27 202 159 202
c59 0 93 -24 116 -58c29 37 72 58 124 58c127 0 172 -103 158 -289h-241c0 -99 12 -167 81 -167c45 0 65 31 68 107zM356 312h139c1 84 -13 132 -65 132c-57 0 -72 -56 -74 -132zM254 145v80c-98 -8 -129 -29 -129 -88c0 -40 17 -72 59 -72s70 37 70 80z" />
    <glyph glyph-name="ccedilla" unicode="&#xe7;" horiz-adv-x="404" 
d="M153 -83l29 74c-119 16 -148 124 -148 261c0 176 60 278 192 278c119 0 156 -82 157 -192l-93 -5c-3 75 -20 111 -70 111c-64 0 -78 -64 -78 -195c0 -110 13 -175 81 -175c45 0 61 30 66 106l93 -5c-6 -140 -75 -182 -151 -186l-16 -38c8 4 15 5 24 5c45 0 72 -32 72 -82
c0 -60 -42 -91 -98 -91c-34 0 -71 12 -95 60l45 26c13 -25 27 -32 41 -32c20 0 31 12 31 38c0 25 -10 37 -25 37c-8 0 -15 -3 -22 -10z" />
    <glyph glyph-name="egrave" unicode="&#xe8;" horiz-adv-x="417" 
d="M291 181l91 -5c-5 -150 -86 -188 -165 -188c-148 0 -183 113 -183 267c0 172 60 275 192 275c126 0 171 -105 156 -291h-240c0 -98 12 -165 80 -165c46 0 65 30 69 107zM142 312h138c3 87 -13 134 -65 134c-56 0 -71 -54 -73 -134zM114 702l74 56l104 -155l-45 -35z" />
    <glyph glyph-name="eacute" unicode="&#xe9;" horiz-adv-x="417" 
d="M258 757l71 -55l-131 -135l-44 36zM291 181l91 -5c-5 -150 -86 -188 -165 -188c-148 0 -183 113 -183 267c0 172 60 275 192 275c126 0 171 -105 156 -291h-240c0 -98 12 -165 80 -165c46 0 65 30 69 107zM142 312h138c3 87 -13 134 -65 134c-56 0 -71 -54 -73 -134z" />
    <glyph glyph-name="ecircumflex" unicode="&#xea;" horiz-adv-x="417" 
d="M194 744h54l101 -143l-42 -33l-86 90l-86 -90l-41 32zM291 181l91 -5c-5 -150 -86 -188 -165 -188c-148 0 -183 113 -183 267c0 172 60 275 192 275c126 0 171 -105 156 -291h-240c0 -98 12 -165 80 -165c46 0 65 30 69 107zM142 312h138c3 87 -13 134 -65 134
c-56 0 -71 -54 -73 -134z" />
    <glyph glyph-name="edieresis" unicode="&#xeb;" horiz-adv-x="417" 
d="M249 609v103h82v-103h-82zM111 609v103h82v-103h-82zM291 181l91 -5c-5 -150 -86 -188 -165 -188c-148 0 -183 113 -183 267c0 172 60 275 192 275c126 0 171 -105 156 -291h-240c0 -98 12 -165 80 -165c46 0 65 30 69 107zM142 312h138c3 87 -13 134 -65 134
c-56 0 -71 -54 -73 -134z" />
    <glyph glyph-name="igrave" unicode="&#xec;" horiz-adv-x="198" 
d="M48 0v518h103v-518h-103zM-8 702l74 56l104 -155l-45 -35z" />
    <glyph glyph-name="iacute" unicode="&#xed;" horiz-adv-x="198" 
d="M136 757l71 -55l-131 -135l-44 36zM48 0v518h103v-518h-103z" />
    <glyph glyph-name="icircumflex" unicode="&#xee;" horiz-adv-x="198" 
d="M72 744h54l101 -143l-42 -33l-86 90l-86 -90l-41 32zM48 0v518h103v-518h-103z" />
    <glyph glyph-name="idieresis" unicode="&#xef;" horiz-adv-x="198" 
d="M127 609v103h82v-103h-82zM-11 609v103h82v-103h-82zM48 0v518h103v-518h-103z" />
    <glyph glyph-name="eth" unicode="&#xf0;" horiz-adv-x="427" 
d="M372 664l-73 -30c61 -100 94 -212 94 -362c0 -191 -54 -284 -184 -284s-175 91 -175 271c0 140 44 268 162 268c29 0 50 -10 68 -28l2 2c-12 32 -29 66 -48 98l-92 -36l-24 64l77 30l-47 65l90 20l39 -52l86 37zM214 73c64 0 73 68 73 190c0 110 -8 181 -71 181
s-75 -66 -75 -184c0 -120 7 -187 73 -187z" />
    <glyph glyph-name="ntilde" unicode="&#xf1;" horiz-adv-x="437" 
d="M394 363v-363h-102v349c0 58 -11 94 -59 94c-75 0 -82 -77 -82 -159v-284h-102v518h92l3 -69h2c11 29 41 81 120 81c93 0 128 -56 128 -167zM148 607l-49 7c11 67 40 96 77 96c36 0 66 -26 92 -26c12 0 23 6 31 36l48 -6c-12 -71 -36 -101 -78 -101c-41 0 -70 25 -92 25
c-12 0 -23 -5 -29 -31z" />
    <glyph glyph-name="ograve" unicode="&#xf2;" horiz-adv-x="427" 
d="M209 -12c-130 0 -175 91 -175 271c0 181 66 271 186 271c128 0 172 -88 172 -261c0 -188 -53 -281 -183 -281zM214 73c64 0 72 68 72 190c0 118 -8 181 -70 181c-63 0 -75 -66 -75 -184c0 -120 7 -187 73 -187zM111 702l74 56l104 -155l-45 -35z" />
    <glyph glyph-name="oacute" unicode="&#xf3;" horiz-adv-x="427" 
d="M255 757l71 -55l-131 -135l-44 36zM209 -12c-130 0 -175 91 -175 271c0 181 66 271 186 271c128 0 172 -88 172 -261c0 -188 -53 -281 -183 -281zM214 73c64 0 72 68 72 190c0 118 -8 181 -70 181c-63 0 -75 -66 -75 -184c0 -120 7 -187 73 -187z" />
    <glyph glyph-name="ocircumflex" unicode="&#xf4;" horiz-adv-x="427" 
d="M191 744h54l101 -143l-42 -33l-86 90l-86 -90l-41 32zM209 -12c-130 0 -175 91 -175 271c0 181 66 271 186 271c128 0 172 -88 172 -261c0 -188 -53 -281 -183 -281zM214 73c64 0 72 68 72 190c0 118 -8 181 -70 181c-63 0 -75 -66 -75 -184c0 -120 7 -187 73 -187z" />
    <glyph glyph-name="otilde" unicode="&#xf5;" horiz-adv-x="427" 
d="M209 -12c-130 0 -175 91 -175 271c0 181 66 271 186 271c128 0 172 -88 172 -261c0 -188 -53 -281 -183 -281zM214 73c64 0 72 68 72 190c0 118 -8 181 -70 181c-63 0 -75 -66 -75 -184c0 -120 7 -187 73 -187zM143 607l-49 7c11 67 40 96 77 96c36 0 66 -26 92 -26
c12 0 23 6 31 36l48 -6c-12 -71 -36 -101 -78 -101c-41 0 -70 25 -92 25c-12 0 -23 -5 -29 -31z" />
    <glyph glyph-name="odieresis" unicode="&#xf6;" horiz-adv-x="427" 
d="M246 609v103h82v-103h-82zM108 609v103h82v-103h-82zM209 -12c-130 0 -175 91 -175 271c0 181 66 271 186 271c128 0 172 -88 172 -261c0 -188 -53 -281 -183 -281zM214 73c64 0 72 68 72 190c0 118 -8 181 -70 181c-63 0 -75 -66 -75 -184c0 -120 7 -187 73 -187z" />
    <glyph glyph-name="oslash" unicode="&#xf8;" horiz-adv-x="427" 
d="M209 -12c-27 0 -50 4 -70 12l-25 -62l-62 26l31 76c-35 45 -49 118 -49 219c0 181 66 271 186 271c23 0 44 -3 62 -9l25 60l63 -24l-30 -73c37 -43 52 -115 52 -215c0 -188 -53 -281 -183 -281zM214 73c64 0 72 68 72 190c0 32 -1 60 -3 84l-108 -262
c10 -8 22 -12 39 -12zM141 260c0 -29 0 -54 1 -77l105 253c-9 5 -19 8 -31 8c-63 0 -75 -66 -75 -184z" />
    <glyph glyph-name="oslashacute" unicode="&#x1ff;" horiz-adv-x="427" 
d="M255 757l71 -55l-131 -135l-44 36zM209 -12c-27 0 -50 4 -70 12l-25 -62l-62 26l31 76c-35 45 -49 118 -49 219c0 181 66 271 186 271c23 0 44 -3 62 -9l25 60l63 -24l-30 -73c37 -43 52 -115 52 -215c0 -188 -53 -281 -183 -281zM214 73c64 0 72 68 72 190
c0 32 -1 60 -3 84l-108 -262c10 -8 22 -12 39 -12zM141 260c0 -29 0 -54 1 -77l105 253c-9 5 -19 8 -31 8c-63 0 -75 -66 -75 -184z" />
    <glyph glyph-name="ugrave" unicode="&#xf9;" horiz-adv-x="431" 
d="M43 170v348h102v-337c0 -70 9 -105 57 -105c71 0 79 80 79 162v280h102v-518h-88l-7 74h-2c-12 -32 -39 -86 -118 -86c-92 0 -125 57 -125 182zM107 702l74 56l104 -155l-45 -35z" />
    <glyph glyph-name="uacute" unicode="&#xfa;" horiz-adv-x="431" 
d="M251 757l71 -55l-131 -135l-44 36zM43 170v348h102v-337c0 -70 9 -105 57 -105c71 0 79 80 79 162v280h102v-518h-88l-7 74h-2c-12 -32 -39 -86 -118 -86c-92 0 -125 57 -125 182z" />
    <glyph glyph-name="ucircumflex" unicode="&#xfb;" horiz-adv-x="431" 
d="M187 744h54l101 -143l-42 -33l-86 90l-86 -90l-41 32zM43 170v348h102v-337c0 -70 9 -105 57 -105c71 0 79 80 79 162v280h102v-518h-88l-7 74h-2c-12 -32 -39 -86 -118 -86c-92 0 -125 57 -125 182z" />
    <glyph glyph-name="udieresis" unicode="&#xfc;" horiz-adv-x="431" 
d="M242 609v103h82v-103h-82zM104 609v103h82v-103h-82zM43 170v348h102v-337c0 -70 9 -105 57 -105c71 0 79 80 79 162v280h102v-518h-88l-7 74h-2c-12 -32 -39 -86 -118 -86c-92 0 -125 57 -125 182z" />
    <glyph glyph-name="yacute" unicode="&#xfd;" horiz-adv-x="376" 
d="M380 518l-146 -534c-33 -120 -68 -179 -160 -179c-27 0 -57 6 -69 12l12 75c15 -5 30 -8 44 -8c46 0 58 27 75 95l7 26l-146 513h114l81 -388h2l79 388h107zM229 757l71 -55l-131 -135l-44 36z" />
    <glyph glyph-name="thorn" unicode="&#xfe;" horiz-adv-x="437" 
d="M262 530c79 0 141 -56 141 -256c0 -216 -62 -286 -155 -286c-49 0 -80 24 -96 54h-2v-225h-101v917h102v-275h1c14 35 48 71 110 71zM225 447c-57 0 -78 -71 -78 -184c0 -137 19 -191 73 -191c58 0 76 58 76 200c0 144 -25 175 -71 175z" />
    <glyph glyph-name="ydieresis" unicode="&#xff;" horiz-adv-x="376" 
d="M380 518l-146 -534c-33 -120 -68 -179 -160 -179c-27 0 -57 6 -69 12l12 75c15 -5 30 -8 44 -8c46 0 58 27 75 95l7 26l-146 513h114l81 -388h2l79 388h107zM220 609v103h82v-103h-82zM82 609v103h82v-103h-82z" />
    <glyph glyph-name="Amacron" unicode="&#x100;" horiz-adv-x="510" 
d="M182 734h141l175 -734h-113l-42 187h-180l-41 -187h-110zM325 283l-72 339h-2l-72 -339h146zM130 796v77h244v-77h-244z" />
    <glyph glyph-name="amacron" unicode="&#x101;" horiz-adv-x="411" 
d="M393 71l3 -69c-68 -20 -117 -5 -128 50c-16 -35 -55 -64 -115 -64c-99 0 -131 70 -131 140c0 122 88 151 232 170v46c0 75 -22 102 -65 102c-66 0 -62 -57 -57 -111l-92 -7c-19 112 26 202 162 202c155 0 154 -127 154 -246v-183c0 -27 6 -37 37 -30zM254 145v80
c-99 -8 -129 -29 -129 -89c0 -34 16 -71 59 -71c40 0 70 35 70 80zM79 616v77h242v-77h-242z" />
    <glyph glyph-name="Abreve" unicode="&#x102;" horiz-adv-x="510" 
d="M182 734h141l175 -734h-113l-42 187h-180l-41 -187h-110zM325 283l-72 339h-2l-72 -339h146zM126 893l52 10c8 -48 38 -65 74 -65c34 0 64 16 78 66l51 -10c-9 -81 -59 -125 -132 -125c-72 0 -118 42 -123 124z" />
    <glyph glyph-name="abreve" unicode="&#x103;" horiz-adv-x="411" 
d="M393 71l3 -69c-68 -20 -117 -5 -128 50c-16 -35 -55 -64 -115 -64c-99 0 -131 70 -131 140c0 122 88 151 232 170v46c0 75 -22 102 -65 102c-66 0 -62 -57 -57 -111l-92 -7c-19 112 26 202 162 202c155 0 154 -127 154 -246v-183c0 -27 6 -37 37 -30zM254 145v80
c-99 -8 -129 -29 -129 -89c0 -34 16 -71 59 -71c40 0 70 35 70 80zM78 726l52 6c7 -58 34 -79 70 -79c34 0 61 20 74 80l51 -6c-9 -91 -55 -143 -128 -143c-72 0 -114 50 -119 142z" />
    <glyph glyph-name="Aogonek" unicode="&#x104;" horiz-adv-x="510" 
d="M182 734h141l175 -734h-31c-28 -35 -53 -69 -53 -100c0 -20 9 -27 22 -27c14 0 28 9 39 27l40 -35c-22 -37 -59 -60 -106 -60c-43 0 -77 22 -77 67c0 51 31 87 74 128h-21l-42 187h-180l-41 -187h-110zM325 283l-72 339h-2l-72 -339h146z" />
    <glyph glyph-name="aogonek" unicode="&#x105;" horiz-adv-x="411" 
d="M393 71l3 -69c-56 -13 -87 -69 -87 -102c0 -20 9 -27 22 -27c14 0 28 9 39 27l40 -35c-22 -37 -59 -60 -106 -60c-43 0 -77 22 -77 67c0 52 32 89 76 130c-18 9 -30 25 -35 50c-16 -35 -55 -64 -115 -64c-99 0 -131 70 -131 140c0 122 88 151 232 170v46
c0 75 -22 102 -65 102c-66 0 -62 -57 -57 -111l-92 -7c-19 112 26 202 162 202c155 0 154 -127 154 -246v-183c0 -27 6 -37 37 -30zM254 145v80c-99 -8 -129 -29 -129 -89c0 -34 16 -71 59 -71c40 0 70 35 70 80z" />
    <glyph glyph-name="Cacute" unicode="&#x106;" horiz-adv-x="484" 
d="M256 78c68 0 86 67 89 173l105 -7c-6 -184 -69 -256 -204 -256c-157 0 -206 123 -206 373c0 258 75 386 233 386c132 0 184 -100 182 -267l-105 -9c-1 139 -26 183 -87 183c-76 0 -109 -80 -109 -290c0 -200 23 -286 102 -286zM330 923l47 -79l-173 -81l-29 49z" />
    <glyph glyph-name="cacute" unicode="&#x107;" horiz-adv-x="404" 
d="M254 757l71 -55l-131 -135l-44 36zM383 338l-93 -5c-3 75 -20 111 -70 111c-64 0 -78 -64 -78 -195c0 -110 13 -175 81 -175c45 0 61 30 66 106l93 -5c-6 -149 -84 -187 -166 -187c-147 0 -182 115 -182 264c0 176 60 278 192 278c119 0 156 -82 157 -192z" />
    <glyph glyph-name="Ccircumflex" unicode="&#x108;" horiz-adv-x="484" 
d="M256 78c68 0 86 67 89 173l105 -7c-6 -184 -69 -256 -204 -256c-157 0 -206 123 -206 373c0 258 75 386 233 386c132 0 184 -100 182 -267l-105 -9c-1 139 -26 183 -87 183c-76 0 -109 -80 -109 -290c0 -200 23 -286 102 -286zM237 914h53l116 -111l-33 -41l-110 73
l-109 -73l-33 41z" />
    <glyph glyph-name="ccircumflex" unicode="&#x109;" horiz-adv-x="404" 
d="M192 744h54l101 -143l-42 -33l-86 90l-86 -90l-41 32zM383 338l-93 -5c-3 75 -20 111 -70 111c-64 0 -78 -64 -78 -195c0 -110 13 -175 81 -175c45 0 61 30 66 106l93 -5c-6 -149 -84 -187 -166 -187c-147 0 -182 115 -182 264c0 176 60 278 192 278
c119 0 156 -82 157 -192z" />
    <glyph glyph-name="Cdotaccent" unicode="&#x10a;" horiz-adv-x="484" 
d="M211 783v119h105v-119h-105zM256 78c68 0 86 67 89 173l105 -7c-6 -184 -69 -256 -204 -256c-157 0 -206 123 -206 373c0 258 75 386 233 386c132 0 184 -100 182 -267l-105 -9c-1 139 -26 183 -87 183c-76 0 -109 -80 -109 -290c0 -200 23 -286 102 -286z" />
    <glyph glyph-name="cdotaccent" unicode="&#x10b;" horiz-adv-x="404" 
d="M383 338l-93 -5c-3 75 -20 111 -70 111c-64 0 -78 -64 -78 -195c0 -110 13 -175 81 -175c45 0 61 30 66 106l93 -5c-6 -149 -84 -187 -166 -187c-147 0 -182 115 -182 264c0 176 60 278 192 278c119 0 156 -82 157 -192zM165 615v119h103v-119h-103z" />
    <glyph glyph-name="Ccaron" unicode="&#x10c;" horiz-adv-x="484" 
d="M256 78c68 0 86 67 89 173l105 -7c-6 -184 -69 -256 -204 -256c-157 0 -206 123 -206 373c0 258 75 386 233 386c132 0 184 -100 182 -267l-105 -9c-1 139 -26 183 -87 183c-76 0 -109 -80 -109 -290c0 -200 23 -286 102 -286zM290 774h-53l-113 108l33 40l107 -69
l106 69l33 -40z" />
    <glyph glyph-name="ccaron" unicode="&#x10d;" horiz-adv-x="404" 
d="M243 578h-48l-103 144l41 32l86 -92l86 92l41 -32zM383 338l-93 -5c-3 75 -20 111 -70 111c-64 0 -78 -64 -78 -195c0 -110 13 -175 81 -175c45 0 61 30 66 106l93 -5c-6 -149 -84 -187 -166 -187c-147 0 -182 115 -182 264c0 176 60 278 192 278c119 0 156 -82 157 -192
z" />
    <glyph glyph-name="Dcaron" unicode="&#x10e;" horiz-adv-x="502" 
d="M244 765h-53l-113 108l33 40l107 -69l106 69l33 -40zM174 0h-118v734h119c230 0 288 -113 288 -354c0 -269 -57 -380 -289 -380zM164 91h29c122 0 156 68 156 282c0 195 -33 270 -158 270h-27v-552z" />
    <glyph glyph-name="dcaron" unicode="&#x10f;" horiz-adv-x="499" 
d="M431 734h87l-33 -185l-52 4zM287 734h101v-734h-88l-9 55h-1c-18 -39 -59 -67 -112 -67c-89 0 -144 66 -144 257c0 200 52 285 159 285c49 0 78 -26 93 -54h1v258zM290 255c0 142 -21 191 -72 191c-58 0 -77 -56 -77 -199c0 -139 23 -175 72 -175c62 0 77 75 77 183z" />
    <glyph glyph-name="Dcroat" unicode="&#x110;" horiz-adv-x="521" 
d="M193 0h-118v323h-57v89h57v322h119c230 0 288 -113 288 -354c0 -269 -57 -380 -289 -380zM183 91h29c122 0 156 68 156 282c0 195 -33 270 -158 270h-27v-231h118v-89h-118v-232z" />
    <glyph glyph-name="dcroat" unicode="&#x111;" horiz-adv-x="434" 
d="M287 734h101v-67h48v-78h-48v-589h-88l-9 55h-1c-18 -39 -59 -67 -112 -67c-89 0 -144 66 -144 257c0 200 52 285 159 285c49 0 78 -26 93 -54h1v113h-130v78h130v67zM290 255c0 142 -21 191 -72 191c-58 0 -77 -56 -77 -199c0 -139 23 -175 72 -175c62 0 77 75 77 183z
" />
    <glyph glyph-name="Emacron" unicode="&#x112;" horiz-adv-x="422" 
d="M95 796v77h244v-77h-244zM360 421v-89h-196v-239h237v-93h-345v734h327v-93h-219v-220h196z" />
    <glyph glyph-name="emacron" unicode="&#x113;" horiz-adv-x="417" 
d="M291 181l91 -5c-5 -150 -86 -188 -165 -188c-148 0 -183 113 -183 267c0 172 60 275 192 275c126 0 171 -105 156 -291h-240c0 -98 12 -165 80 -165c46 0 65 30 69 107zM142 312h138c3 87 -13 134 -65 134c-56 0 -71 -54 -73 -134zM96 616v77h242v-77h-242z" />
    <glyph glyph-name="Ebreve" unicode="&#x114;" horiz-adv-x="422" 
d="M97 893l52 10c8 -48 38 -65 74 -65c34 0 64 16 78 66l51 -10c-9 -81 -59 -125 -132 -125c-72 0 -118 42 -123 124zM360 421v-89h-196v-239h237v-93h-345v734h327v-93h-219v-220h196z" />
    <glyph glyph-name="ebreve" unicode="&#x115;" horiz-adv-x="417" 
d="M291 181l91 -5c-5 -150 -86 -188 -165 -188c-148 0 -183 113 -183 267c0 172 60 275 192 275c126 0 171 -105 156 -291h-240c0 -98 12 -165 80 -165c46 0 65 30 69 107zM142 312h138c3 87 -13 134 -65 134c-56 0 -71 -54 -73 -134zM94 726l52 6c7 -58 34 -79 70 -79
c34 0 61 20 74 80l51 -6c-9 -91 -55 -143 -128 -143c-72 0 -114 50 -119 142z" />
    <glyph glyph-name="Edotaccent" unicode="&#x116;" horiz-adv-x="422" 
d="M168 783v119h105v-119h-105zM360 421v-89h-196v-239h237v-93h-345v734h327v-93h-219v-220h196z" />
    <glyph glyph-name="edotaccent" unicode="&#x117;" horiz-adv-x="417" 
d="M291 181l91 -5c-5 -150 -86 -188 -165 -188c-148 0 -183 113 -183 267c0 172 60 275 192 275c126 0 171 -105 156 -291h-240c0 -98 12 -165 80 -165c46 0 65 30 69 107zM142 312h138c3 87 -13 134 -65 134c-56 0 -71 -54 -73 -134zM166 615v119h103v-119h-103z" />
    <glyph glyph-name="Eogonek" unicode="&#x118;" horiz-adv-x="422" 
d="M360 421v-89h-196v-239h237v-93h-38c-40 -33 -63 -73 -63 -100c0 -20 9 -27 22 -27c14 0 28 9 39 27l40 -35c-22 -37 -59 -60 -106 -60c-43 0 -77 22 -77 67c0 51 42 96 85 128h-247v734h327v-93h-219v-220h196z" />
    <glyph glyph-name="eogonek" unicode="&#x119;" horiz-adv-x="417" 
d="M291 181l91 -5c-3 -81 -31 -124 -60 -157c-33 -38 -61 -88 -61 -119c0 -20 9 -27 23 -27s27 9 38 27l41 -35c-23 -37 -59 -60 -106 -60c-44 0 -78 22 -78 67c0 44 32 88 61 117c-8 -1 -16 -1 -23 -1c-148 0 -183 113 -183 267c0 172 60 275 192 275
c126 0 171 -105 156 -291h-240c0 -98 12 -165 80 -165c46 0 65 30 69 107zM142 312h138c3 87 -13 134 -65 134c-56 0 -71 -54 -73 -134z" />
    <glyph glyph-name="Ecaron" unicode="&#x11a;" horiz-adv-x="422" 
d="M245 765h-53l-113 108l33 40l107 -69l106 69l33 -40zM360 421v-89h-196v-239h237v-93h-345v734h327v-93h-219v-220h196z" />
    <glyph glyph-name="ecaron" unicode="&#x11b;" horiz-adv-x="417" 
d="M244 578h-48l-103 144l41 32l86 -92l86 92l41 -32zM291 181l91 -5c-5 -150 -86 -188 -165 -188c-148 0 -183 113 -183 267c0 172 60 275 192 275c126 0 171 -105 156 -291h-240c0 -98 12 -165 80 -165c46 0 65 30 69 107zM142 312h138c3 87 -13 134 -65 134
c-56 0 -71 -54 -73 -134z" />
    <glyph glyph-name="Gcircumflex" unicode="&#x11c;" horiz-adv-x="504" 
d="M248 268v90h205v-370h-75l-14 79c-28 -58 -73 -79 -126 -79c-147 0 -198 123 -198 366c0 266 75 393 230 393c136 0 187 -98 185 -267l-105 -9c-1 140 -26 183 -86 183c-77 0 -109 -79 -109 -293c0 -197 22 -283 101 -283c59 0 88 60 91 158v32h-99zM236 914h53l116 -111
l-33 -41l-110 73l-109 -73l-33 41z" />
    <glyph glyph-name="gcircumflex" unicode="&#x11d;" horiz-adv-x="434" 
d="M190 744h54l101 -143l-42 -33l-86 90l-86 -90l-41 32zM303 518h85v-490c0 -142 -58 -223 -184 -223c-78 0 -148 36 -158 145l96 12c5 -44 18 -73 66 -73c46 0 80 27 80 125v62h-1c-13 -32 -50 -69 -108 -69c-82 0 -145 54 -145 241c0 207 61 282 160 282
c48 0 78 -21 96 -57h2zM290 256c0 138 -19 190 -71 190s-78 -42 -78 -199c0 -135 28 -156 72 -156c56 0 77 57 77 165z" />
    <glyph glyph-name="Gbreve" unicode="&#x11e;" horiz-adv-x="504" 
d="M137 898l52 10c8 -48 38 -65 74 -65c34 0 64 16 78 66l51 -10c-9 -81 -59 -125 -132 -125c-72 0 -118 42 -123 124zM248 268v90h205v-370h-75l-14 79c-28 -58 -73 -79 -126 -79c-147 0 -198 123 -198 366c0 266 75 393 230 393c136 0 187 -98 185 -267l-105 -9
c-1 140 -26 183 -86 183c-77 0 -109 -79 -109 -293c0 -197 22 -283 101 -283c59 0 88 60 91 158v32h-99z" />
    <glyph glyph-name="gbreve" unicode="&#x11f;" horiz-adv-x="434" 
d="M303 518h85v-490c0 -142 -58 -223 -184 -223c-78 0 -148 36 -158 145l96 12c5 -44 18 -73 66 -73c46 0 80 27 80 125v62h-1c-13 -32 -50 -69 -108 -69c-82 0 -145 54 -145 241c0 207 61 282 160 282c48 0 78 -21 96 -57h2zM290 256c0 138 -19 190 -71 190
s-78 -42 -78 -199c0 -135 28 -156 72 -156c56 0 77 57 77 165zM94 726l52 6c7 -58 34 -79 70 -79c34 0 61 20 74 80l51 -6c-9 -91 -55 -143 -128 -143c-72 0 -114 50 -119 142z" />
    <glyph glyph-name="Gdotaccent" unicode="&#x120;" horiz-adv-x="504" 
d="M210 783v119h105v-119h-105zM248 268v90h205v-370h-75l-14 79c-28 -58 -73 -79 -126 -79c-147 0 -198 123 -198 366c0 266 75 393 230 393c136 0 187 -98 185 -267l-105 -9c-1 140 -26 183 -86 183c-77 0 -109 -79 -109 -293c0 -197 22 -283 101 -283c59 0 88 60 91 158
v32h-99z" />
    <glyph glyph-name="gdotaccent" unicode="&#x121;" horiz-adv-x="434" 
d="M303 518h85v-490c0 -142 -58 -223 -184 -223c-78 0 -148 36 -158 145l96 12c5 -44 18 -73 66 -73c46 0 80 27 80 125v62h-1c-13 -32 -50 -69 -108 -69c-82 0 -145 54 -145 241c0 207 61 282 160 282c48 0 78 -21 96 -57h2zM290 256c0 138 -19 190 -71 190
s-78 -42 -78 -199c0 -135 28 -156 72 -156c56 0 77 57 77 165zM164 615v119h103v-119h-103z" />
    <glyph glyph-name="Gcommaaccent" unicode="&#x122;" horiz-adv-x="504" 
d="M248 268v90h205v-370h-75l-14 79c-28 -58 -73 -79 -126 -79c-147 0 -198 123 -198 366c0 266 75 393 230 393c136 0 187 -98 185 -267l-105 -9c-1 140 -26 183 -86 183c-77 0 -109 -79 -109 -293c0 -197 22 -283 101 -283c59 0 88 60 91 158v32h-99zM216 -149v103h94v-87
l-42 -114l-45 11l23 87h-30z" />
    <glyph glyph-name="gcommaaccent" unicode="&#x123;" horiz-adv-x="434" 
d="M263 683v-103h-93v88l42 113l45 -11l-24 -87h30zM303 518h85v-490c0 -142 -58 -223 -184 -223c-78 0 -148 36 -158 145l96 12c5 -44 18 -73 66 -73c46 0 80 27 80 125v62h-1c-13 -32 -50 -69 -108 -69c-82 0 -145 54 -145 241c0 207 61 282 160 282c48 0 78 -21 96 -57h2
zM290 256c0 138 -19 190 -71 190s-78 -42 -78 -199c0 -135 28 -156 72 -156c56 0 77 57 77 165z" />
    <glyph glyph-name="Hcircumflex" unicode="&#x124;" horiz-adv-x="517" 
d="M462 734v-734h-108v318h-190v-318h-108v734h108v-320h190v320h108zM232 914h53l116 -111l-33 -41l-110 73l-109 -73l-33 41z" />
    <glyph glyph-name="hcircumflex" unicode="&#x125;" horiz-adv-x="436" 
d="M393 363v-363h-101v349c0 57 -11 94 -60 94c-74 0 -81 -77 -81 -159v-284h-102v734h102v-276h1c13 30 45 72 115 72c91 0 126 -57 126 -167zM80 907h53l116 -111l-33 -41l-110 73l-109 -73l-33 41z" />
    <glyph glyph-name="Hbar" unicode="&#x126;" horiz-adv-x="537" 
d="M472 734v-120h50v-87h-50v-527h-108v318h-190v-318h-108v527h-50v87h50v120h108v-120h190v120h108zM174 414h190v113h-190v-113z" />
    <glyph glyph-name="hbar" unicode="&#x127;" horiz-adv-x="436" 
d="M393 363v-363h-101v349c0 57 -11 94 -60 94c-74 0 -81 -77 -81 -159v-284h-102v589h-52v78h52v67h102v-67h134v-78h-134v-131h1c13 30 45 72 115 72c91 0 126 -57 126 -167z" />
    <glyph glyph-name="Itilde" unicode="&#x128;" horiz-adv-x="293" 
d="M200 649v-564h62v-85h-231v85h61v564h-61v85h231v-85h-62zM68 782l-49 7c11 68 42 98 79 98s67 -27 93 -27c12 0 23 6 31 37l49 -6c-13 -71 -38 -103 -80 -103s-71 26 -93 26c-12 0 -23 -6 -30 -32z" />
    <glyph glyph-name="itilde" unicode="&#x129;" horiz-adv-x="198" 
d="M48 0v518h103v-518h-103zM24 607l-49 7c11 67 40 96 77 96c36 0 66 -26 92 -26c12 0 23 6 31 36l48 -6c-12 -71 -36 -101 -78 -101c-41 0 -70 25 -92 25c-12 0 -23 -5 -29 -31z" />
    <glyph glyph-name="Imacron" unicode="&#x12a;" horiz-adv-x="293" 
d="M200 649v-564h62v-85h-231v85h61v564h-61v85h231v-85h-62zM24 796v77h244v-77h-244z" />
    <glyph glyph-name="imacron" unicode="&#x12b;" horiz-adv-x="198" 
d="M48 0v518h103v-518h-103zM-22 616v77h242v-77h-242z" />
    <glyph glyph-name="Ibreve" unicode="&#x12c;" horiz-adv-x="293" 
d="M200 649v-564h62v-85h-231v85h61v564h-61v85h231v-85h-62zM20 893l52 10c8 -48 38 -65 74 -65c34 0 64 16 78 66l51 -10c-9 -81 -59 -125 -132 -125c-72 0 -118 42 -123 124z" />
    <glyph glyph-name="ibreve" unicode="&#x12d;" horiz-adv-x="198" 
d="M48 0v518h103v-518h-103zM-23 726l52 6c7 -58 34 -79 70 -79c34 0 61 20 74 80l51 -6c-9 -91 -55 -143 -128 -143c-72 0 -114 50 -119 142z" />
    <glyph glyph-name="Iogonek" unicode="&#x12e;" horiz-adv-x="293" 
d="M200 649v-564h62v-85h-85c-28 -35 -53 -69 -53 -100c0 -20 9 -27 22 -27c14 0 28 9 39 27l40 -35c-22 -37 -59 -60 -106 -60c-43 0 -77 22 -77 67c0 51 31 87 74 128h-85v85h61v564h-61v85h231v-85h-62z" />
    <glyph glyph-name="iogonek" unicode="&#x12f;" horiz-adv-x="198" 
d="M48 0v518h103v-518h-22c-28 -35 -53 -69 -53 -100c0 -20 9 -27 22 -27c14 0 28 9 39 27l40 -35c-22 -37 -59 -60 -106 -60c-43 0 -77 22 -77 67c0 51 31 87 74 128h-20zM48 615v119h103v-119h-103z" />
    <glyph glyph-name="Idotaccent" unicode="&#x130;" horiz-adv-x="293" 
d="M200 649v-564h62v-85h-231v85h61v564h-61v85h231v-85h-62zM93 783v119h105v-119h-105z" />
    <glyph glyph-name="idotaccent" horiz-adv-x="198" 
d="M48 615v119h103v-119h-103zM48 0v518h103v-518h-103z" />
    <glyph glyph-name="dotlessi" unicode="&#x131;" horiz-adv-x="198" 
d="M48 0v518h103v-518h-103z" />
    <glyph glyph-name="IJ" unicode="&#x132;" horiz-adv-x="705" 
d="M200 649v-564h62v-85h-231v85h61v564h-61v85h231v-85h-62zM310 201l102 7c3 -60 10 -126 72 -126c43 0 68 19 68 109v543h105v-552c0 -129 -60 -194 -177 -194c-122 0 -170 79 -170 213z" />
    <glyph glyph-name="Jcircumflex" unicode="&#x134;" horiz-adv-x="410" 
d="M13 201l102 7c3 -60 10 -126 72 -126c43 0 68 19 68 109v543h105v-552c0 -129 -60 -194 -177 -194c-122 0 -170 79 -170 213zM281 914h53l116 -111l-33 -41l-110 73l-109 -73l-33 41z" />
    <glyph glyph-name="jcircumflex" unicode="&#x135;" horiz-adv-x="197" 
d="M-61 -184l12 79c15 -5 28 -7 43 -7c39 0 56 28 56 92v538h102v-537c0 -125 -57 -176 -145 -176c-28 0 -54 6 -68 11zM73 744h54l101 -143l-42 -33l-86 90l-86 -90l-41 32z" />
    <glyph glyph-name="Kcommaaccent" unicode="&#x136;" horiz-adv-x="487" 
d="M205 -149v103h94v-87l-42 -114l-45 11l23 87h-30zM164 734v-319l215 319h116l-208 -299l197 -435h-116l-154 329l-50 -72v-257h-108v734h108z" />
    <glyph glyph-name="kcommaaccent" unicode="&#x137;" horiz-adv-x="422" 
d="M166 -149v103h94v-87l-42 -114l-45 11l23 87h-30zM150 734v-421l144 205h115l-141 -184l152 -334h-113l-107 248l-50 -65v-183h-102v734h102z" />
    <glyph glyph-name="kgreenlandic" unicode="&#x138;" horiz-adv-x="422" 
d="M150 518v-195l144 195h115l-141 -184l152 -334h-113l-107 244l-50 -65v-179h-102v518h102z" />
    <glyph glyph-name="Lacute" unicode="&#x139;" horiz-adv-x="392" 
d="M179 923l47 -79l-173 -81l-29 49zM164 734v-641h212v-93h-320v734h108z" />
    <glyph glyph-name="lacute" unicode="&#x13a;" horiz-adv-x="195" 
d="M169 923l47 -79l-173 -81l-29 49zM148 734v-734h-102v734h102z" />
    <glyph glyph-name="Lcommaaccent" unicode="&#x13b;" horiz-adv-x="392" 
d="M166 -149v103h94v-87l-42 -114l-45 11l23 87h-30zM164 734v-641h212v-93h-320v734h108z" />
    <glyph glyph-name="lcommaaccent" unicode="&#x13c;" horiz-adv-x="195" 
d="M50 -149v103h94v-87l-42 -114l-45 11l23 87h-30zM148 734v-734h-102v734h102z" />
    <glyph glyph-name="Lcaron" unicode="&#x13d;" horiz-adv-x="392" 
d="M239 734h87l-33 -185l-52 4zM164 734v-641h212v-93h-320v734h108z" />
    <glyph glyph-name="lcaron" unicode="&#x13e;" horiz-adv-x="257" 
d="M189 734h87l-33 -185l-52 4zM148 734v-734h-102v734h102z" />
    <glyph glyph-name="Ldot" unicode="&#x13f;" horiz-adv-x="392" 
d="M268 349v117h99v-117h-99zM164 734v-641h212v-93h-320v734h108z" />
    <glyph glyph-name="ldot" unicode="&#x140;" horiz-adv-x="285" 
d="M148 734v-734h-102v734h102zM191 326v117h99v-117h-99z" />
    <glyph glyph-name="Lslash" unicode="&#x141;" horiz-adv-x="392" 
d="M164 734v-291l120 66l24 -78l-144 -80v-258h212v-93h-320v300l-68 -38l-21 79l89 50v343h108z" />
    <glyph glyph-name="lslash" unicode="&#x142;" horiz-adv-x="280" 
d="M193 734v-278l61 34l22 -76l-83 -47v-367h-102v322l-59 -32l-21 77l80 45v322h102z" />
    <glyph glyph-name="Nacute" unicode="&#x143;" horiz-adv-x="538" 
d="M354 923l47 -79l-173 -81l-29 49zM483 0h-124l-201 549l-3 -1v-548h-100v734h135l191 -542l3 1v541h99v-734z" />
    <glyph glyph-name="nacute" unicode="&#x144;" horiz-adv-x="437" 
d="M260 757l71 -55l-131 -135l-44 36zM394 363v-363h-102v349c0 58 -11 94 -59 94c-75 0 -82 -77 -82 -159v-284h-102v518h92l3 -69h2c11 29 41 81 120 81c93 0 128 -56 128 -167z" />
    <glyph glyph-name="Ncommaaccent" unicode="&#x145;" horiz-adv-x="538" 
d="M228 -149v103h94v-87l-42 -114l-45 11l23 87h-30zM483 0h-124l-201 549l-3 -1v-548h-100v734h135l191 -542l3 1v541h99v-734z" />
    <glyph glyph-name="ncommaaccent" unicode="&#x146;" horiz-adv-x="437" 
d="M174 -149v103h94v-87l-42 -114l-45 11l23 87h-30zM394 363v-363h-102v349c0 58 -11 94 -59 94c-75 0 -82 -77 -82 -159v-284h-102v518h92l3 -69h2c11 29 41 81 120 81c93 0 128 -56 128 -167z" />
    <glyph glyph-name="Ncaron" unicode="&#x147;" horiz-adv-x="538" 
d="M306 765h-53l-113 108l33 40l107 -69l106 69l33 -40zM483 0h-124l-201 549l-3 -1v-548h-100v734h135l191 -542l3 1v541h99v-734z" />
    <glyph glyph-name="ncaron" unicode="&#x148;" horiz-adv-x="437" 
d="M247 578h-48l-103 144l41 32l86 -92l86 92l41 -32zM394 363v-363h-102v349c0 58 -11 94 -59 94c-75 0 -82 -77 -82 -159v-284h-102v518h92l3 -69h2c11 29 41 81 120 81c93 0 128 -56 128 -167z" />
    <glyph glyph-name="napostrophe" unicode="&#x149;" horiz-adv-x="483" 
d="M78 714v-103h-30l23 -87l-45 -11l-42 114v87h94zM440 363v-363h-102v349c0 58 -11 94 -59 94c-75 0 -82 -77 -82 -159v-284h-102v518h92l3 -69h2c11 29 41 81 120 81c93 0 128 -56 128 -167z" />
    <glyph glyph-name="Eng" unicode="&#x14a;" horiz-adv-x="538" 
d="M210 -173l16 82c14 -5 42 -14 71 -14c52 0 78 21 78 91v10l-217 553v-549h-102v734h127l198 -507v507h102v-759c0 -105 -49 -170 -163 -170c-51 0 -98 14 -110 22z" />
    <glyph glyph-name="eng" unicode="&#x14b;" horiz-adv-x="437" 
d="M181 -184l12 79c16 -5 29 -7 43 -7c39 0 56 28 56 92v369c0 58 -11 94 -59 94c-75 0 -82 -77 -82 -159v-284h-102v518h92l3 -69h2c11 29 41 81 120 81c93 0 128 -56 128 -167v-382c0 -125 -57 -176 -145 -176c-27 0 -54 6 -68 11z" />
    <glyph glyph-name="Omacron" unicode="&#x14c;" horiz-adv-x="509" 
d="M138 796v77h244v-77h-244zM249 -12c-163 0 -209 127 -209 378c0 252 67 381 225 381c163 0 204 -126 204 -367c0 -261 -55 -392 -220 -392zM255 79c85 0 101 92 101 294c0 195 -15 280 -95 280c-84 0 -107 -89 -107 -284c0 -199 15 -290 101 -290z" />
    <glyph glyph-name="omacron" unicode="&#x14d;" horiz-adv-x="427" 
d="M97 616v77h242v-77h-242zM209 -12c-130 0 -175 91 -175 271c0 181 66 271 186 271c128 0 172 -88 172 -261c0 -188 -53 -281 -183 -281zM214 73c64 0 72 68 72 190c0 118 -8 181 -70 181c-63 0 -75 -66 -75 -184c0 -120 7 -187 73 -187z" />
    <glyph glyph-name="Obreve" unicode="&#x14e;" horiz-adv-x="509" 
d="M134 898l52 10c8 -48 38 -65 74 -65c34 0 64 16 78 66l51 -10c-9 -81 -59 -125 -132 -125c-72 0 -118 42 -123 124zM249 -12c-163 0 -209 127 -209 378c0 252 67 381 225 381c163 0 204 -126 204 -367c0 -261 -55 -392 -220 -392zM255 79c85 0 101 92 101 294
c0 195 -15 280 -95 280c-84 0 -107 -89 -107 -284c0 -199 15 -290 101 -290z" />
    <glyph glyph-name="obreve" unicode="&#x14f;" horiz-adv-x="427" 
d="M209 -12c-130 0 -175 91 -175 271c0 181 66 271 186 271c128 0 172 -88 172 -261c0 -188 -53 -281 -183 -281zM214 73c64 0 72 68 72 190c0 118 -8 181 -70 181c-63 0 -75 -66 -75 -184c0 -120 7 -187 73 -187zM96 726l52 6c7 -58 34 -79 70 -79c34 0 61 20 74 80l51 -6
c-9 -91 -55 -143 -128 -143c-72 0 -114 50 -119 142z" />
    <glyph glyph-name="Ohungarumlaut" unicode="&#x150;" horiz-adv-x="509" 
d="M249 -12c-163 0 -209 127 -209 378c0 252 67 381 225 381c163 0 204 -126 204 -367c0 -261 -55 -392 -220 -392zM255 79c85 0 101 92 101 294c0 195 -15 280 -95 280c-84 0 -107 -89 -107 -284c0 -199 15 -290 101 -290zM429 916l47 -63l-155 -88l-29 40zM279 926l48 -64
l-151 -95l-28 38z" />
    <glyph glyph-name="ohungarumlaut" unicode="&#x151;" horiz-adv-x="427" 
d="M351 744l61 -47l-128 -124l-35 30zM223 752l65 -45l-113 -134l-37 26zM209 -12c-130 0 -175 91 -175 271c0 181 66 271 186 271c128 0 172 -88 172 -261c0 -188 -53 -281 -183 -281zM214 73c64 0 72 68 72 190c0 118 -8 181 -70 181c-63 0 -75 -66 -75 -184
c0 -120 7 -187 73 -187z" />
    <glyph glyph-name="OE" unicode="&#x152;" horiz-adv-x="702" 
d="M640 421v-89h-197v-239h238v-93h-344c-26 -7 -58 -12 -88 -12c-162 0 -209 127 -209 378c0 252 67 381 225 381c22 0 49 -4 77 -13h320v-93h-219v-220h197zM255 79c26 0 52 4 80 13v546c-22 9 -47 15 -74 15c-84 0 -107 -89 -107 -284c0 -199 15 -290 101 -290z" />
    <glyph glyph-name="oe" unicode="&#x153;" horiz-adv-x="664" 
d="M538 181l91 -4c-5 -152 -86 -189 -165 -189c-60 0 -100 22 -127 67c-30 -47 -72 -67 -129 -67c-127 0 -174 94 -174 260c0 194 65 282 184 282c60 0 97 -23 124 -70c31 47 74 70 132 70c125 0 170 -104 155 -289h-240c0 -99 12 -167 81 -167c45 0 65 31 68 107zM214 73
c64 0 72 69 72 188c0 121 -8 183 -71 183s-74 -64 -74 -194c0 -108 8 -177 73 -177zM389 312h138c2 84 -12 132 -64 132c-57 0 -72 -56 -74 -132z" />
    <glyph glyph-name="Racute" unicode="&#x154;" horiz-adv-x="483" 
d="M359 0l-136 314c-7 -1 -13 0 -20 0h-39v-314h-108v734h166c159 0 222 -78 222 -197c0 -90 -28 -167 -116 -203l152 -334h-121zM164 405h34c93 0 136 30 136 128c0 81 -42 108 -113 108h-57v-236zM288 923l47 -79l-173 -81l-29 49z" />
    <glyph glyph-name="racute" unicode="&#x155;" horiz-adv-x="373" 
d="M240 757l71 -55l-131 -135l-44 36zM361 344l-99 -6c6 76 -5 105 -38 105c-54 0 -73 -76 -73 -176v-267h-102v518h92l3 -71h2c11 30 44 83 114 83c77 0 114 -60 101 -186z" />
    <glyph glyph-name="Rcommaaccent" unicode="&#x156;" horiz-adv-x="483" 
d="M359 0l-136 314c-7 -1 -13 0 -20 0h-39v-314h-108v734h166c159 0 222 -78 222 -197c0 -90 -28 -167 -116 -203l152 -334h-121zM164 405h34c93 0 136 30 136 128c0 81 -42 108 -113 108h-57v-236zM204 -149v103h94v-87l-42 -114l-45 11l23 87h-30z" />
    <glyph glyph-name="rcommaaccent" unicode="&#x157;" horiz-adv-x="373" 
d="M52 -149v103h94v-87l-42 -114l-45 11l23 87h-30zM361 344l-99 -6c6 76 -5 105 -38 105c-54 0 -73 -76 -73 -176v-267h-102v518h92l3 -71h2c11 30 44 83 114 83c77 0 114 -60 101 -186z" />
    <glyph glyph-name="Rcaron" unicode="&#x158;" horiz-adv-x="483" 
d="M248 765h-53l-113 108l33 40l107 -69l106 69l33 -40zM359 0l-136 314c-7 -1 -13 0 -20 0h-39v-314h-108v734h166c159 0 222 -78 222 -197c0 -90 -28 -167 -116 -203l152 -334h-121zM164 405h34c93 0 136 30 136 128c0 81 -42 108 -113 108h-57v-236z" />
    <glyph glyph-name="rcaron" unicode="&#x159;" horiz-adv-x="373" 
d="M226 578h-48l-103 144l41 32l86 -92l86 92l41 -32zM361 344l-99 -6c6 76 -5 105 -38 105c-54 0 -73 -76 -73 -176v-267h-102v518h92l3 -71h2c11 30 44 83 114 83c77 0 114 -60 101 -186z" />
    <glyph glyph-name="Sacute" unicode="&#x15a;" horiz-adv-x="470" 
d="M428 515l-103 -14c-4 107 -28 153 -94 153c-59 0 -88 -39 -88 -93c0 -69 43 -99 102 -128c85 -41 192 -76 192 -229c0 -147 -92 -216 -207 -216c-137 0 -202 74 -207 235l108 12c5 -113 33 -156 103 -156c59 0 93 33 93 105c0 81 -50 112 -110 140
c-83 39 -182 71 -182 219c0 136 91 204 204 204c122 0 189 -74 189 -232zM305 923l47 -79l-173 -81l-29 49z" />
    <glyph glyph-name="sacute" unicode="&#x15b;" horiz-adv-x="372" 
d="M230 757l71 -55l-131 -135l-44 36zM346 365l-91 -10c-2 59 -16 93 -67 93c-36 0 -59 -18 -59 -56c0 -112 223 -64 223 -247c0 -108 -76 -157 -168 -157c-106 0 -163 49 -167 167l96 9c5 -62 21 -96 74 -96c42 0 63 22 63 62c0 120 -221 67 -221 246c0 106 78 154 164 154
c97 0 153 -52 153 -165z" />
    <glyph glyph-name="Scircumflex" unicode="&#x15c;" horiz-adv-x="470" 
d="M428 515l-103 -14c-4 107 -28 153 -94 153c-59 0 -88 -39 -88 -93c0 -69 43 -99 102 -128c85 -41 192 -76 192 -229c0 -147 -92 -216 -207 -216c-137 0 -202 74 -207 235l108 12c5 -113 33 -156 103 -156c59 0 93 33 93 105c0 81 -50 112 -110 140
c-83 39 -182 71 -182 219c0 136 91 204 204 204c122 0 189 -74 189 -232zM212 914h53l116 -111l-33 -41l-110 73l-109 -73l-33 41z" />
    <glyph glyph-name="scircumflex" unicode="&#x15d;" horiz-adv-x="372" 
d="M163 744h54l101 -143l-42 -33l-86 90l-86 -90l-41 32zM346 365l-91 -10c-2 59 -16 93 -67 93c-36 0 -59 -18 -59 -56c0 -112 223 -64 223 -247c0 -108 -76 -157 -168 -157c-106 0 -163 49 -167 167l96 9c5 -62 21 -96 74 -96c42 0 63 22 63 62c0 120 -221 67 -221 246
c0 106 78 154 164 154c97 0 153 -52 153 -165z" />
    <glyph glyph-name="Scedilla" unicode="&#x15e;" horiz-adv-x="470" 
d="M172 -83l28 72c-117 11 -173 85 -177 234l108 12c5 -113 33 -156 103 -156c59 0 93 33 93 105c0 81 -50 112 -110 140c-83 39 -182 71 -182 219c0 136 91 204 204 204c122 0 189 -74 189 -232l-103 -14c-4 107 -28 153 -94 153c-59 0 -88 -39 -88 -93
c0 -69 43 -99 102 -128c85 -41 192 -76 192 -229c0 -139 -82 -208 -187 -215l-16 -38c8 4 15 5 24 5c45 0 72 -32 72 -82c0 -60 -42 -91 -98 -91c-34 0 -71 12 -95 60l45 26c13 -25 27 -32 41 -32c20 0 31 12 31 38c0 25 -10 37 -25 37c-8 0 -15 -3 -22 -10z" />
    <glyph glyph-name="scedilla" unicode="&#x15f;" horiz-adv-x="372" 
d="M126 -83l29 73c-88 8 -135 58 -138 165l96 9c5 -62 21 -96 74 -96c42 0 63 22 63 62c0 120 -221 67 -221 246c0 106 78 154 164 154c97 0 153 -52 153 -165l-91 -10c-2 59 -16 93 -67 93c-36 0 -59 -18 -59 -56c0 -112 223 -64 223 -247c0 -100 -65 -149 -148 -156
l-16 -38c8 4 15 5 24 5c45 0 72 -32 72 -82c0 -60 -42 -91 -98 -91c-34 0 -71 12 -95 60l45 26c13 -25 27 -32 41 -32c20 0 31 12 31 38c0 25 -10 37 -25 37c-8 0 -15 -3 -22 -10z" />
    <glyph glyph-name="Scaron" unicode="&#x160;" horiz-adv-x="470" 
d="M428 515l-103 -14c-4 107 -28 153 -94 153c-59 0 -88 -39 -88 -93c0 -69 43 -99 102 -128c85 -41 192 -76 192 -229c0 -147 -92 -216 -207 -216c-137 0 -202 74 -207 235l108 12c5 -113 33 -156 103 -156c59 0 93 33 93 105c0 81 -50 112 -110 140
c-83 39 -182 71 -182 219c0 136 91 204 204 204c122 0 189 -74 189 -232zM265 774h-53l-113 108l33 40l107 -69l106 69l33 -40z" />
    <glyph glyph-name="scaron" unicode="&#x161;" horiz-adv-x="372" 
d="M214 578h-48l-103 144l41 32l86 -92l86 92l41 -32zM346 365l-91 -10c-2 59 -16 93 -67 93c-36 0 -59 -18 -59 -56c0 -112 223 -64 223 -247c0 -108 -76 -157 -168 -157c-106 0 -163 49 -167 167l96 9c5 -62 21 -96 74 -96c42 0 63 22 63 62c0 120 -221 67 -221 246
c0 106 78 154 164 154c97 0 153 -52 153 -165z" />
    <glyph glyph-name="Scommaaccent" unicode="&#x218;" horiz-adv-x="470" 
d="M428 515l-103 -14c-4 107 -28 153 -94 153c-59 0 -88 -39 -88 -93c0 -69 43 -99 102 -128c85 -41 192 -76 192 -229c0 -147 -92 -216 -207 -216c-137 0 -202 74 -207 235l108 12c5 -113 33 -156 103 -156c59 0 93 33 93 105c0 81 -50 112 -110 140
c-83 39 -182 71 -182 219c0 136 91 204 204 204c122 0 189 -74 189 -232zM181 -149v103h94v-87l-42 -114l-45 11l23 87h-30z" />
    <glyph glyph-name="scommaaccent" unicode="&#x219;" horiz-adv-x="372" 
d="M134 -149v103h94v-87l-42 -114l-45 11l23 87h-30zM346 365l-91 -10c-2 59 -16 93 -67 93c-36 0 -59 -18 -59 -56c0 -112 223 -64 223 -247c0 -108 -76 -157 -168 -157c-106 0 -163 49 -167 167l96 9c5 -62 21 -96 74 -96c42 0 63 22 63 62c0 120 -221 67 -221 246
c0 106 78 154 164 154c97 0 153 -52 153 -165z" />
    <glyph glyph-name="uni0162" unicode="&#x162;" horiz-adv-x="429" 
d="M160 0v641h-157v93h422v-93h-157v-641h-31l-21 -49c8 4 15 5 24 5c45 0 72 -32 72 -82c0 -60 -42 -91 -98 -91c-34 0 -71 12 -95 60l45 26c13 -25 27 -32 41 -32c20 0 31 12 31 38c0 25 -10 37 -25 37c-8 0 -15 -3 -22 -10l-35 15l33 83h-27z" />
    <glyph glyph-name="uni0163" unicode="&#x163;" horiz-adv-x="301" 
d="M121 -83l31 78c-55 16 -83 61 -83 147v296h-60v80h60v100l102 33v-133h104v-80h-104v-280c0 -64 12 -86 59 -86c18 0 40 4 56 9l10 -79c-14 -5 -51 -14 -87 -14h-10l-16 -37c8 4 15 5 24 5c45 0 72 -32 72 -82c0 -60 -42 -91 -98 -91c-34 0 -71 12 -95 60l45 26
c13 -25 27 -32 41 -32c20 0 31 12 31 38c0 25 -10 37 -25 37c-8 0 -15 -3 -22 -10z" />
    <glyph glyph-name="Tcaron" unicode="&#x164;" horiz-adv-x="429" 
d="M239 765h-53l-113 108l33 40l107 -69l106 69l33 -40zM160 0v641h-157v93h422v-93h-157v-641h-108z" />
    <glyph glyph-name="tcaron" unicode="&#x165;" horiz-adv-x="301" 
d="M211 748h87l-33 -185l-52 4zM9 438v80h60v100l102 33v-133h104v-80h-104v-280c0 -64 12 -86 59 -86c18 0 40 4 56 9l10 -79c-14 -5 -51 -14 -87 -14c-92 0 -140 42 -140 154v296h-60z" />
    <glyph glyph-name="Tbar" unicode="&#x166;" horiz-adv-x="429" 
d="M160 0v344h-121v88h121v209h-157v93h422v-93h-157v-209h121v-88h-121v-344h-108z" />
    <glyph glyph-name="tbar" unicode="&#x167;" horiz-adv-x="301" 
d="M9 438v80h60v100l102 33v-133h104v-80h-104v-84h104v-77h-104v-119c0 -64 12 -86 59 -86c18 0 40 4 56 9l10 -79c-14 -5 -51 -14 -87 -14c-92 0 -140 42 -140 154v135h-60v77h60v84h-60z" />
    <glyph glyph-name="uni021A" unicode="&#x21a;" horiz-adv-x="429" 
d="M160 0v641h-157v93h422v-93h-157v-641h-108zM167 -149v103h94v-87l-42 -114l-45 11l23 87h-30z" />
    <glyph glyph-name="uni021B" unicode="&#x21b;" horiz-adv-x="301" 
d="M137 -149v103h94v-87l-42 -114l-45 11l23 87h-30zM9 438v80h60v100l102 33v-133h104v-80h-104v-280c0 -64 12 -86 59 -86c18 0 40 4 56 9l10 -79c-14 -5 -51 -14 -87 -14c-92 0 -140 42 -140 154v296h-60z" />
    <glyph glyph-name="Utilde" unicode="&#x168;" horiz-adv-x="508" 
d="M177 782l-49 7c11 68 42 98 79 98s67 -27 93 -27c12 0 23 6 31 37l49 -6c-13 -71 -38 -103 -80 -103s-71 26 -93 26c-12 0 -23 -6 -30 -32zM351 255v479h106v-491c0 -163 -51 -255 -206 -255c-165 0 -201 101 -201 254v492h107v-476c0 -131 20 -179 98 -179
c74 0 96 47 96 176z" />
    <glyph glyph-name="utilde" unicode="&#x169;" horiz-adv-x="431" 
d="M43 170v348h102v-337c0 -70 9 -105 57 -105c71 0 79 80 79 162v280h102v-518h-88l-7 74h-2c-12 -32 -39 -86 -118 -86c-92 0 -125 57 -125 182zM139 607l-49 7c11 67 40 96 77 96c36 0 66 -26 92 -26c12 0 23 6 31 36l48 -6c-12 -71 -36 -101 -78 -101
c-41 0 -70 25 -92 25c-12 0 -23 -5 -29 -31z" />
    <glyph glyph-name="Umacron" unicode="&#x16a;" horiz-adv-x="508" 
d="M133 796v77h244v-77h-244zM351 255v479h106v-491c0 -163 -51 -255 -206 -255c-165 0 -201 101 -201 254v492h107v-476c0 -131 20 -179 98 -179c74 0 96 47 96 176z" />
    <glyph glyph-name="umacron" unicode="&#x16b;" horiz-adv-x="431" 
d="M43 170v348h102v-337c0 -70 9 -105 57 -105c71 0 79 80 79 162v280h102v-518h-88l-7 74h-2c-12 -32 -39 -86 -118 -86c-92 0 -125 57 -125 182zM92 616v77h242v-77h-242z" />
    <glyph glyph-name="Ubreve" unicode="&#x16c;" horiz-adv-x="508" 
d="M129 893l52 10c8 -48 38 -65 74 -65c34 0 64 16 78 66l51 -10c-9 -81 -59 -125 -132 -125c-72 0 -118 42 -123 124zM351 255v479h106v-491c0 -163 -51 -255 -206 -255c-165 0 -201 101 -201 254v492h107v-476c0 -131 20 -179 98 -179c74 0 96 47 96 176z" />
    <glyph glyph-name="ubreve" unicode="&#x16d;" horiz-adv-x="431" 
d="M43 170v348h102v-337c0 -70 9 -105 57 -105c71 0 79 80 79 162v280h102v-518h-88l-7 74h-2c-12 -32 -39 -86 -118 -86c-92 0 -125 57 -125 182zM92 726l52 6c7 -58 34 -79 70 -79c34 0 61 20 74 80l51 -6c-9 -91 -55 -143 -128 -143c-72 0 -114 50 -119 142z" />
    <glyph glyph-name="Uring" unicode="&#x16e;" horiz-adv-x="508" 
d="M351 255v479h106v-491c0 -163 -51 -255 -206 -255c-165 0 -201 101 -201 254v492h107v-476c0 -131 20 -179 98 -179c74 0 96 47 96 176zM253 762c-63 0 -91 31 -91 85s40 85 95 85c59 0 90 -30 90 -82c0 -57 -34 -88 -94 -88zM255 804c18 0 30 13 30 44
c0 32 -12 43 -29 43c-20 0 -33 -11 -33 -44c0 -32 11 -43 32 -43z" />
    <glyph glyph-name="uring" unicode="&#x16f;" horiz-adv-x="431" 
d="M212 580c-63 0 -91 31 -91 85s40 85 95 85c59 0 90 -30 90 -82c0 -57 -34 -88 -94 -88zM214 621c18 0 30 13 30 45s-12 43 -29 43c-20 0 -33 -11 -33 -44c0 -32 11 -44 32 -44zM43 170v348h102v-337c0 -70 9 -105 57 -105c71 0 79 80 79 162v280h102v-518h-88l-7 74h-2
c-12 -32 -39 -86 -118 -86c-92 0 -125 57 -125 182z" />
    <glyph glyph-name="Uhungarumlaut" unicode="&#x170;" horiz-adv-x="508" 
d="M351 255v479h106v-491c0 -163 -51 -255 -206 -255c-165 0 -201 101 -201 254v492h107v-476c0 -131 20 -179 98 -179c74 0 96 47 96 176zM423 916l47 -63l-155 -88l-29 40zM273 926l48 -64l-151 -95l-28 38z" />
    <glyph glyph-name="uhungarumlaut" unicode="&#x171;" horiz-adv-x="431" 
d="M43 170v348h102v-337c0 -70 9 -105 57 -105c71 0 79 80 79 162v280h102v-518h-88l-7 74h-2c-12 -32 -39 -86 -118 -86c-92 0 -125 57 -125 182zM329 744l61 -47l-128 -124l-35 30zM201 752l65 -45l-113 -134l-37 26z" />
    <glyph glyph-name="Uogonek" unicode="&#x172;" horiz-adv-x="508" 
d="M351 255v479h106v-491c0 -118 -29 -187 -96 -234c-40 -28 -68 -78 -68 -109c0 -20 9 -27 23 -27s27 9 38 27l41 -35c-23 -37 -59 -60 -106 -60c-43 0 -77 22 -77 67c0 46 36 90 70 118c-10 -1 -20 -2 -31 -2c-165 0 -201 101 -201 254v492h107v-476
c0 -131 20 -179 98 -179c74 0 96 47 96 176z" />
    <glyph glyph-name="uogonek" unicode="&#x173;" horiz-adv-x="431" 
d="M43 170v348h102v-337c0 -70 9 -105 57 -105c71 0 79 80 79 162v280h102v-518h-17c-28 -35 -53 -69 -53 -100c0 -20 9 -27 22 -27c14 0 28 9 39 27l40 -35c-22 -37 -59 -60 -106 -60c-43 0 -77 22 -77 67c0 51 31 87 74 128h-10l-7 74h-2c-12 -32 -39 -86 -118 -86
c-92 0 -125 57 -125 182z" />
    <glyph glyph-name="Wcircumflex" unicode="&#x174;" horiz-adv-x="715" 
d="M589 0h-147l-80 558h-4l-81 -558h-147l-118 734h111l79 -617h4l93 617h125l91 -616h4l76 616h108zM336 914h53l116 -111l-33 -41l-110 73l-109 -73l-33 41z" />
    <glyph glyph-name="wcircumflex" unicode="&#x175;" horiz-adv-x="645" 
d="M299 744h54l101 -143l-42 -33l-86 90l-86 -90l-41 32zM247 0h-125l-123 518h114l72 -412h2l78 412h123l79 -412h2l71 412h105l-115 -518h-125l-79 401h-2z" />
    <glyph glyph-name="Wgrave" unicode="&#x1e80;" horiz-adv-x="715" 
d="M248 844l48 76l155 -109l-30 -48zM589 0h-147l-80 558h-4l-81 -558h-147l-118 734h111l79 -617h4l93 617h125l91 -616h4l76 616h108z" />
    <glyph glyph-name="wgrave" unicode="&#x1e81;" horiz-adv-x="645" 
d="M247 0h-125l-123 518h114l72 -412h2l78 412h123l79 -412h2l71 412h105l-115 -518h-125l-79 401h-2zM221 702l74 56l104 -155l-45 -35z" />
    <glyph glyph-name="Wacute" unicode="&#x1e82;" horiz-adv-x="715" 
d="M429 923l47 -79l-173 -81l-29 49zM589 0h-147l-80 558h-4l-81 -558h-147l-118 734h111l79 -617h4l93 617h125l91 -616h4l76 616h108z" />
    <glyph glyph-name="wacute" unicode="&#x1e83;" horiz-adv-x="645" 
d="M358 757l71 -55l-131 -135l-44 36zM247 0h-125l-123 518h114l72 -412h2l78 412h123l79 -412h2l71 412h105l-115 -518h-125l-79 401h-2z" />
    <glyph glyph-name="Wdieresis" unicode="&#x1e84;" horiz-adv-x="715" 
d="M392 782v103h82v-103h-82zM252 782v103h82v-103h-82zM589 0h-147l-80 558h-4l-81 -558h-147l-118 734h111l79 -617h4l93 617h125l91 -616h4l76 616h108z" />
    <glyph glyph-name="wdieresis" unicode="&#x1e85;" horiz-adv-x="645" 
d="M354 609v103h82v-103h-82zM216 609v103h82v-103h-82zM247 0h-125l-123 518h114l72 -412h2l78 412h123l79 -412h2l71 412h105l-115 -518h-125l-79 401h-2z" />
    <glyph glyph-name="Ygrave" unicode="&#x1ef2;" horiz-adv-x="458" 
d="M283 284v-284h-106v282l-177 452h115l117 -337l117 337h110zM116 844l48 76l155 -109l-30 -48z" />
    <glyph glyph-name="ygrave" unicode="&#x1ef3;" horiz-adv-x="376" 
d="M380 518l-146 -534c-33 -120 -68 -179 -160 -179c-27 0 -57 6 -69 12l12 75c15 -5 30 -8 44 -8c46 0 58 27 75 95l7 26l-146 513h114l81 -388h2l79 388h107zM85 702l74 56l104 -155l-45 -35z" />
    <glyph glyph-name="Ycircumflex" unicode="&#x176;" horiz-adv-x="458" 
d="M283 284v-284h-106v282l-177 452h115l117 -337l117 337h110zM204 914h53l116 -111l-33 -41l-110 73l-109 -73l-33 41z" />
    <glyph glyph-name="ycircumflex" unicode="&#x177;" horiz-adv-x="376" 
d="M380 518l-146 -534c-33 -120 -68 -179 -160 -179c-27 0 -57 6 -69 12l12 75c15 -5 30 -8 44 -8c46 0 58 27 75 95l7 26l-146 513h114l81 -388h2l79 388h107zM165 744h54l101 -143l-42 -33l-86 90l-86 -90l-41 32z" />
    <glyph glyph-name="Ydieresis" unicode="&#x178;" horiz-adv-x="458" 
d="M283 284v-284h-106v282l-177 452h115l117 -337l117 337h110zM260 782v103h82v-103h-82zM120 782v103h82v-103h-82z" />
    <glyph glyph-name="Zacute" unicode="&#x179;" horiz-adv-x="380" 
d="M27 641v93h332v-86l-223 -555h226v-93h-347v86l225 555h-213zM255 923l47 -79l-173 -81l-29 49z" />
    <glyph glyph-name="zacute" unicode="&#x17a;" horiz-adv-x="367" 
d="M224 757l71 -55l-131 -135l-44 36zM31 428v90h314v-84l-204 -343h207v-91h-328v85l206 343h-195z" />
    <glyph glyph-name="Zdotaccent" unicode="&#x17b;" horiz-adv-x="380" 
d="M136 783v119h105v-119h-105zM27 641v93h332v-86l-223 -555h226v-93h-347v86l225 555h-213z" />
    <glyph glyph-name="zdotaccent" unicode="&#x17c;" horiz-adv-x="367" 
d="M31 428v90h314v-84l-204 -343h207v-91h-328v85l206 343h-195zM140 615v119h103v-119h-103z" />
    <glyph glyph-name="Zcaron" unicode="&#x17d;" horiz-adv-x="380" 
d="M215 765h-53l-113 108l33 40l107 -69l106 69l33 -40zM27 641v93h332v-86l-223 -555h226v-93h-347v86l225 555h-213z" />
    <glyph glyph-name="zcaron" unicode="&#x17e;" horiz-adv-x="367" 
d="M216 578h-48l-103 144l41 32l86 -92l86 92l41 -32zM31 428v90h314v-84l-204 -343h207v-91h-328v85l206 343h-195z" />
    <glyph glyph-name="longs" unicode="&#x17f;" horiz-adv-x="235" 
d="M288 733l-12 -78c-16 5 -35 9 -53 9c-47 0 -66 -29 -66 -93v-571h-102v570c0 125 59 177 154 177c31 0 64 -9 79 -14z" />
    <glyph glyph-name="dotlessj" unicode="&#x237;" horiz-adv-x="197" 
d="M-61 -184l12 79c15 -5 28 -7 43 -7c39 0 56 28 56 92v538h102v-537c0 -125 -57 -176 -145 -176c-28 0 -54 6 -68 11z" />
    <glyph glyph-name="circumflex" unicode="&#x2c6;" 
d="M223 744h54l101 -143l-42 -33l-86 90l-86 -90l-41 32z" />
    <glyph glyph-name="caron" unicode="&#x2c7;" 
d="M274 578h-48l-103 144l41 32l86 -92l86 92l41 -32z" />
    <glyph glyph-name="uni02C9" unicode="&#x2c9;" 
d="M129 616v77h242v-77h-242z" />
    <glyph glyph-name="breve" unicode="&#x2d8;" 
d="M128 726l52 6c7 -58 34 -79 70 -79c34 0 61 20 74 80l51 -6c-9 -91 -55 -143 -128 -143c-72 0 -114 50 -119 142z" />
    <glyph glyph-name="dieresis" unicode="&#xa8;" 
d="M278 609v103h82v-103h-82zM140 609v103h82v-103h-82z" />
    <glyph glyph-name="macron" unicode="&#xaf;" 
d="M129 616v77h242v-77h-242z" />
    <glyph glyph-name="degree" unicode="&#xb0;" horiz-adv-x="283" 
d="M140 527c-65 0 -100 42 -100 109c0 70 46 110 104 110c62 0 99 -39 99 -106c0 -71 -38 -113 -103 -113zM141 578c25 0 40 17 40 59c0 43 -16 58 -39 58c-22 0 -41 -14 -41 -58s15 -59 40 -59z" />
    <glyph glyph-name="acute" unicode="&#xb4;" 
d="M287 757l71 -55l-131 -135l-44 36z" />
    <glyph glyph-name="grave" unicode="`" 
d="M143 702l74 56l104 -155l-45 -35z" />
    <glyph glyph-name="cedilla" unicode="&#xb8;" 
d="M204 -83l33 83h50l-21 -49c8 4 15 5 24 5c45 0 72 -32 72 -82c0 -60 -42 -91 -98 -91c-34 0 -71 12 -95 60l45 26c13 -25 27 -32 41 -32c20 0 31 12 31 38c0 25 -10 37 -25 37c-8 0 -15 -3 -22 -10z" />
    <glyph glyph-name="dotaccent" unicode="&#x2d9;" 
d="M198 615v119h103v-119h-103z" />
    <glyph glyph-name="ring" unicode="&#x2da;" 
d="M248 580c-63 0 -91 31 -91 85s40 85 95 85c59 0 90 -30 90 -82c0 -57 -34 -88 -94 -88zM250 621c18 0 30 13 30 45s-12 43 -29 43c-20 0 -33 -11 -33 -44c0 -32 11 -44 32 -44z" />
    <glyph glyph-name="ogonek" unicode="&#x2db;" 
d="M228 5h59c-29 -37 -57 -73 -57 -105c0 -20 9 -27 22 -27c14 0 28 9 39 27l40 -35c-22 -37 -59 -60 -106 -60c-43 0 -77 22 -77 67c0 53 34 90 80 133z" />
    <glyph glyph-name="tilde" unicode="&#x2dc;" 
d="M175 607l-49 7c11 67 40 96 77 96c36 0 66 -26 92 -26c12 0 23 6 31 36l48 -6c-12 -71 -36 -101 -78 -101c-41 0 -70 25 -92 25c-12 0 -23 -5 -29 -31z" />
    <glyph glyph-name="hungarumlaut" unicode="&#x2dd;" 
d="M383 744l61 -47l-128 -124l-35 30zM255 752l65 -45l-113 -134l-37 26z" />
    <glyph glyph-name="perthousand" unicode="&#x2030;" horiz-adv-x="847" 
d="M25 559c0 112 44 175 134 175c93 0 123 -62 123 -169c0 -117 -35 -180 -131 -180c-97 0 -126 68 -126 174zM691 -12c-97 0 -126 68 -126 174c0 112 45 175 134 175c93 0 123 -62 123 -169c0 -117 -34 -180 -131 -180zM693 53c42 0 50 37 50 112s-8 107 -47 107
c-40 0 -52 -36 -52 -109c0 -69 6 -110 49 -110zM153 450c42 0 50 37 50 112s-9 107 -47 107c-40 0 -52 -36 -52 -109c0 -69 6 -110 49 -110zM407 -12c-97 0 -126 68 -126 174c0 112 44 175 134 175c93 0 122 -62 122 -169c0 -117 -34 -180 -130 -180zM409 53
c42 0 50 37 50 112s-9 107 -47 107c-40 0 -52 -36 -52 -109c0 -69 6 -110 49 -110zM95 154l-52 62l492 400l54 -60z" />
    <glyph glyph-name="percent" unicode="%" horiz-adv-x="691" 
d="M146 14l331 735l74 -31l-331 -737zM528 -12c-102 0 -132 72 -132 199c0 132 46 201 141 201c98 0 129 -67 129 -194c0 -134 -36 -206 -138 -206zM531 54c44 0 52 43 52 136c0 94 -8 132 -49 132c-43 0 -55 -43 -55 -133c0 -91 6 -135 52 -135zM158 334
c-102 0 -133 72 -133 199c0 132 47 201 141 201c98 0 129 -67 129 -194c0 -134 -35 -206 -137 -206zM160 400c44 0 53 42 53 136c0 93 -9 132 -50 132c-42 0 -55 -44 -55 -133c0 -91 6 -135 52 -135z" />
    <glyph glyph-name="fraction" unicode="&#x2044;" horiz-adv-x="171" 
d="M-120 14l331 735l74 -31l-330 -737z" />
    <glyph glyph-name="zerosuperior" unicode="&#x2070;" horiz-adv-x="342" 
d="M167 383c-109 0 -136 79 -136 234c0 156 42 236 146 236c110 0 135 -78 135 -227c0 -162 -35 -243 -145 -243zM171 451c46 0 54 47 54 170c0 119 -9 164 -51 164c-44 0 -56 -48 -56 -166c0 -121 6 -168 53 -168z" />
    <glyph glyph-name="onesuperior" unicode="&#xb9;" horiz-adv-x="229" 
d="M27 723l-17 64c34 12 69 32 103 58h67v-455h-85v366c-14 -9 -38 -21 -68 -33z" />
    <glyph glyph-name="twosuperior" unicode="&#xb2;" horiz-adv-x="290" 
d="M127 461h127v-71h-220c0 10 -1 20 -1 31c0 19 3 38 7 56c22 97 140 165 140 269c0 27 -12 39 -33 39c-29 0 -39 -19 -32 -86l-77 -5c-12 86 9 159 113 159c74 0 112 -38 112 -108c0 -133 -135 -207 -136 -284z" />
    <glyph glyph-name="threesuperior" unicode="&#xb3;" horiz-adv-x="299" 
d="M100 591l-4 65c64 3 81 23 81 79c0 41 -15 50 -35 50c-29 0 -39 -20 -32 -82l-79 -4c-12 81 8 154 115 154c73 0 117 -39 117 -112c0 -68 -38 -98 -81 -111c65 -15 88 -58 88 -112c0 -91 -43 -135 -124 -135c-100 0 -125 56 -126 143l81 5c2 -58 12 -79 45 -79
c24 0 37 19 37 66c0 62 -24 74 -83 73z" />
    <glyph glyph-name="foursuperior" unicode="&#x2074;" horiz-adv-x="311" 
d="M80 545h87v206h-2zM248 845v-300h46v-69h-46v-86h-81v86h-160v52l136 317h105z" />
    <glyph glyph-name="fivesuperior" unicode="&#x2075;" horiz-adv-x="307" 
d="M151 623c-22 0 -39 -12 -48 -37l-66 4l15 255h211v-70h-141l-12 -115c15 17 40 29 69 29c53 0 103 -31 103 -144c0 -114 -46 -162 -132 -162s-125 47 -126 143l82 4c1 -62 20 -78 44 -78c31 0 46 29 46 91c0 66 -19 80 -45 80z" />
    <glyph glyph-name="sixsuperior" unicode="&#x2076;" horiz-adv-x="322" 
d="M174 785c-34 0 -51 -36 -56 -149c15 21 43 36 76 36c59 0 102 -42 102 -141c0 -109 -55 -148 -127 -148c-105 0 -135 67 -135 211c0 174 41 259 150 259c81 0 114 -44 108 -134l-84 -5c3 51 -6 71 -34 71zM165 610c-29 0 -46 -18 -46 -71c0 -63 17 -88 48 -88
c32 0 44 27 44 79c0 60 -15 80 -46 80z" />
    <glyph glyph-name="sevensuperior" unicode="&#x2077;" horiz-adv-x="256" 
d="M150 390h-99c4 171 51 285 113 384h-154v71h235v-55c-83 -135 -93 -247 -95 -400z" />
    <glyph glyph-name="eightsuperior" unicode="&#x2078;" horiz-adv-x="338" 
d="M167 383c-100 0 -138 55 -138 128c0 64 24 107 82 127c-49 14 -68 54 -68 97c0 70 45 118 129 118c88 0 123 -46 123 -115c0 -46 -23 -85 -70 -98c60 -16 85 -59 85 -122c0 -79 -41 -135 -143 -135zM170 450c38 0 55 24 55 72c0 54 -13 82 -56 82c-38 0 -55 -28 -55 -81
c0 -48 15 -73 56 -73zM169 671c34 0 41 24 41 65c0 36 -10 58 -41 58s-41 -24 -41 -58c0 -43 9 -65 41 -65z" />
    <glyph glyph-name="ninesuperior" unicode="&#x2079;" horiz-adv-x="322" 
d="M152 451c39 0 53 45 56 149c-15 -21 -40 -36 -72 -36c-60 0 -108 41 -108 135c0 114 56 154 132 154c99 0 131 -67 131 -211c0 -174 -33 -259 -143 -259c-82 0 -124 43 -123 134l83 5c2 -53 15 -71 44 -71zM159 626c29 0 47 18 47 77s-17 82 -46 82
c-32 0 -46 -28 -46 -80c0 -61 14 -79 45 -79z" />
    <glyph glyph-name="zeroinferior" unicode="&#x2080;" horiz-adv-x="342" 
d="M167 -137c-109 0 -136 79 -136 234c0 156 42 236 146 236c110 0 135 -78 135 -227c0 -162 -35 -243 -145 -243zM171 -69c46 0 54 47 54 170c0 119 -9 164 -51 164c-44 0 -56 -48 -56 -166c0 -121 6 -168 53 -168z" />
    <glyph glyph-name="oneinferior" unicode="&#x2081;" horiz-adv-x="229" 
d="M27 203l-17 64c34 12 69 32 103 58h67v-455h-85v366c-14 -9 -38 -21 -68 -33z" />
    <glyph glyph-name="twoinferior" unicode="&#x2082;" horiz-adv-x="290" 
d="M127 -59h127v-71h-220c0 10 -1 20 -1 31c0 19 3 38 7 56c22 97 140 165 140 269c0 27 -12 39 -33 39c-29 0 -39 -19 -32 -86l-77 -5c-12 86 9 159 113 159c74 0 112 -38 112 -108c0 -133 -135 -207 -136 -284z" />
    <glyph glyph-name="threeinferior" unicode="&#x2083;" horiz-adv-x="299" 
d="M100 71l-4 65c64 3 81 23 81 79c0 41 -15 50 -35 50c-29 0 -39 -20 -32 -82l-79 -4c-12 81 8 154 115 154c73 0 117 -39 117 -112c0 -68 -38 -98 -81 -111c65 -15 88 -58 88 -112c0 -91 -43 -135 -124 -135c-100 0 -125 56 -126 143l81 5c2 -58 12 -79 45 -79
c24 0 37 19 37 66c0 62 -24 74 -83 73z" />
    <glyph glyph-name="fourinferior" unicode="&#x2084;" horiz-adv-x="311" 
d="M80 25h87v206h-2zM248 325v-300h46v-69h-46v-86h-81v86h-160v52l136 317h105z" />
    <glyph glyph-name="fiveinferior" unicode="&#x2085;" horiz-adv-x="307" 
d="M151 103c-22 0 -39 -12 -48 -37l-66 4l15 255h211v-70h-141l-12 -115c15 17 40 29 69 29c53 0 103 -31 103 -144c0 -114 -46 -162 -132 -162s-125 47 -126 143l82 4c1 -62 20 -78 44 -78c31 0 46 29 46 91c0 66 -19 80 -45 80z" />
    <glyph glyph-name="sixinferior" unicode="&#x2086;" horiz-adv-x="322" 
d="M174 265c-34 0 -51 -36 -56 -149c15 21 43 36 76 36c59 0 102 -42 102 -141c0 -109 -55 -148 -127 -148c-105 0 -135 67 -135 211c0 174 41 259 150 259c81 0 114 -44 108 -134l-84 -5c3 51 -6 71 -34 71zM165 90c-29 0 -46 -18 -46 -71c0 -63 17 -88 48 -88
c32 0 44 27 44 79c0 60 -15 80 -46 80z" />
    <glyph glyph-name="seveninferior" unicode="&#x2087;" horiz-adv-x="256" 
d="M150 -130h-99c4 171 51 285 113 384h-154v71h235v-55c-83 -135 -93 -247 -95 -400z" />
    <glyph glyph-name="eightinferior" unicode="&#x2088;" horiz-adv-x="338" 
d="M167 -137c-100 0 -138 55 -138 128c0 64 24 107 82 127c-49 14 -68 54 -68 97c0 70 45 118 129 118c88 0 123 -46 123 -115c0 -46 -23 -85 -70 -98c60 -16 85 -59 85 -122c0 -79 -41 -135 -143 -135zM170 -70c38 0 55 24 55 72c0 54 -13 82 -56 82c-38 0 -55 -28 -55 -81
c0 -48 15 -73 56 -73zM169 151c34 0 41 24 41 65c0 36 -10 58 -41 58s-41 -24 -41 -58c0 -43 9 -65 41 -65z" />
    <glyph glyph-name="nineinferior" unicode="&#x2089;" horiz-adv-x="322" 
d="M152 -69c39 0 53 45 56 149c-15 -21 -40 -36 -72 -36c-60 0 -108 41 -108 135c0 114 56 154 132 154c99 0 131 -67 131 -211c0 -174 -33 -259 -143 -259c-82 0 -124 43 -123 134l83 5c2 -53 15 -71 44 -71zM159 106c29 0 47 18 47 77s-17 82 -46 82
c-32 0 -46 -28 -46 -80c0 -61 14 -79 45 -79z" />
    <glyph glyph-name="zero.num" horiz-adv-x="342" 
d="M167 271c-109 0 -136 79 -136 234c0 156 42 236 146 236c110 0 135 -78 135 -227c0 -162 -35 -243 -145 -243zM171 339c46 0 54 47 54 170c0 119 -9 164 -51 164c-44 0 -56 -48 -56 -166c0 -121 6 -168 53 -168z" />
    <glyph glyph-name="one.num" horiz-adv-x="229" 
d="M27 611l-17 64c34 12 69 32 103 58h67v-455h-85v366c-14 -9 -38 -21 -68 -33z" />
    <glyph glyph-name="two.num" horiz-adv-x="290" 
d="M127 349h127v-71h-220c0 10 -1 20 -1 31c0 19 3 38 7 56c22 97 140 165 140 269c0 27 -12 39 -33 39c-29 0 -39 -19 -32 -86l-77 -5c-12 86 9 159 113 159c74 0 112 -38 112 -108c0 -133 -135 -207 -136 -284z" />
    <glyph glyph-name="three.num" horiz-adv-x="299" 
d="M100 479l-4 65c64 3 81 23 81 79c0 41 -15 50 -35 50c-29 0 -39 -20 -32 -82l-79 -4c-12 81 8 154 115 154c73 0 117 -39 117 -112c0 -68 -38 -98 -81 -111c65 -15 88 -58 88 -112c0 -91 -43 -135 -124 -135c-100 0 -125 56 -126 143l81 5c2 -58 12 -79 45 -79
c24 0 37 19 37 66c0 62 -24 74 -83 73z" />
    <glyph glyph-name="four.num" horiz-adv-x="311" 
d="M80 433h87v206h-2zM248 733v-300h46v-69h-46v-86h-81v86h-160v52l136 317h105z" />
    <glyph glyph-name="five.num" horiz-adv-x="307" 
d="M151 511c-22 0 -39 -12 -48 -37l-66 4l15 255h211v-70h-141l-12 -115c15 17 40 29 69 29c53 0 103 -31 103 -144c0 -114 -46 -162 -132 -162s-125 47 -126 143l82 4c1 -62 20 -78 44 -78c31 0 46 29 46 91c0 66 -19 80 -45 80z" />
    <glyph glyph-name="six.num" horiz-adv-x="322" 
d="M174 673c-34 0 -51 -36 -56 -149c15 21 43 36 76 36c59 0 102 -42 102 -141c0 -109 -55 -148 -127 -148c-105 0 -135 67 -135 211c0 174 41 259 150 259c81 0 114 -44 108 -134l-84 -5c3 51 -6 71 -34 71zM165 498c-29 0 -46 -18 -46 -71c0 -63 17 -88 48 -88
c32 0 44 27 44 79c0 60 -15 80 -46 80z" />
    <glyph glyph-name="seven.num" horiz-adv-x="256" 
d="M150 278h-99c4 171 51 285 113 384h-154v71h235v-55c-83 -135 -93 -247 -95 -400z" />
    <glyph glyph-name="eight.num" horiz-adv-x="338" 
d="M167 271c-100 0 -138 55 -138 128c0 64 24 107 82 127c-49 14 -68 54 -68 97c0 70 45 118 129 118c88 0 123 -46 123 -115c0 -46 -23 -85 -70 -98c60 -16 85 -59 85 -122c0 -79 -41 -135 -143 -135zM170 338c38 0 55 24 55 72c0 54 -13 82 -56 82c-38 0 -55 -28 -55 -81
c0 -48 15 -73 56 -73zM169 559c34 0 41 24 41 65c0 36 -10 58 -41 58s-41 -24 -41 -58c0 -43 9 -65 41 -65z" />
    <glyph glyph-name="nine.num" horiz-adv-x="322" 
d="M152 339c39 0 53 45 56 149c-15 -21 -40 -36 -72 -36c-60 0 -108 41 -108 135c0 114 56 154 132 154c99 0 131 -67 131 -211c0 -174 -33 -259 -143 -259c-82 0 -124 43 -123 134l83 5c2 -53 15 -71 44 -71zM159 514c29 0 47 18 47 77s-17 82 -46 82
c-32 0 -46 -28 -46 -80c0 -61 14 -79 45 -79z" />
    <glyph glyph-name="zero.denom" horiz-adv-x="342" 
d="M167 -7c-109 0 -136 79 -136 234c0 156 42 236 146 236c110 0 135 -78 135 -227c0 -162 -35 -243 -145 -243zM171 61c46 0 54 47 54 170c0 119 -9 164 -51 164c-44 0 -56 -48 -56 -166c0 -121 6 -168 53 -168z" />
    <glyph glyph-name="one.denom" horiz-adv-x="229" 
d="M27 333l-17 64c34 12 69 32 103 58h67v-455h-85v366c-14 -9 -38 -21 -68 -33z" />
    <glyph glyph-name="two.denom" horiz-adv-x="290" 
d="M127 71h127v-71h-220c0 10 -1 20 -1 31c0 19 3 38 7 56c22 97 140 165 140 269c0 27 -12 39 -33 39c-29 0 -39 -19 -32 -86l-77 -5c-12 86 9 159 113 159c74 0 112 -38 112 -108c0 -133 -135 -207 -136 -284z" />
    <glyph glyph-name="three.denom" horiz-adv-x="299" 
d="M100 201l-4 65c64 3 81 23 81 79c0 41 -15 50 -35 50c-29 0 -39 -20 -32 -82l-79 -4c-12 81 8 154 115 154c73 0 117 -39 117 -112c0 -68 -38 -98 -81 -111c65 -15 88 -58 88 -112c0 -91 -43 -135 -124 -135c-100 0 -125 56 -126 143l81 5c2 -58 12 -79 45 -79
c24 0 37 19 37 66c0 62 -24 74 -83 73z" />
    <glyph glyph-name="four.denom" horiz-adv-x="311" 
d="M80 155h87v206h-2zM248 455v-300h46v-69h-46v-86h-81v86h-160v52l136 317h105z" />
    <glyph glyph-name="five.denom" horiz-adv-x="307" 
d="M151 233c-22 0 -39 -12 -48 -37l-66 4l15 255h211v-70h-141l-12 -115c15 17 40 29 69 29c53 0 103 -31 103 -144c0 -114 -46 -162 -132 -162s-125 47 -126 143l82 4c1 -62 20 -78 44 -78c31 0 46 29 46 91c0 66 -19 80 -45 80z" />
    <glyph glyph-name="six.denom" horiz-adv-x="322" 
d="M174 395c-34 0 -51 -36 -56 -149c15 21 43 36 76 36c59 0 102 -42 102 -141c0 -109 -55 -148 -127 -148c-105 0 -135 67 -135 211c0 174 41 259 150 259c81 0 114 -44 108 -134l-84 -5c3 51 -6 71 -34 71zM165 220c-29 0 -46 -18 -46 -71c0 -63 17 -88 48 -88
c32 0 44 27 44 79c0 60 -15 80 -46 80z" />
    <glyph glyph-name="seven.denom" horiz-adv-x="256" 
d="M150 0h-99c4 171 51 285 113 384h-154v71h235v-55c-83 -135 -93 -247 -95 -400z" />
    <glyph glyph-name="eight.denom" horiz-adv-x="338" 
d="M167 -7c-100 0 -138 55 -138 128c0 64 24 107 82 127c-49 14 -68 54 -68 97c0 70 45 118 129 118c88 0 123 -46 123 -115c0 -46 -23 -85 -70 -98c60 -16 85 -59 85 -122c0 -79 -41 -135 -143 -135zM170 60c38 0 55 24 55 72c0 54 -13 82 -56 82c-38 0 -55 -28 -55 -81
c0 -48 15 -73 56 -73zM169 281c34 0 41 24 41 65c0 36 -10 58 -41 58s-41 -24 -41 -58c0 -43 9 -65 41 -65z" />
    <glyph glyph-name="nine.denom" horiz-adv-x="322" 
d="M152 61c39 0 53 45 56 149c-15 -21 -40 -36 -72 -36c-60 0 -108 41 -108 135c0 114 56 154 132 154c99 0 131 -67 131 -211c0 -174 -33 -259 -143 -259c-82 0 -124 43 -123 134l83 5c2 -53 15 -71 44 -71zM159 236c29 0 47 18 47 77s-17 82 -46 82c-32 0 -46 -28 -46 -80
c0 -61 14 -79 45 -79z" />
    <glyph glyph-name="onehalf" unicode="&#xbd;" horiz-adv-x="711" 
d="M664 72h-127c1 77 136 151 136 284c0 70 -38 108 -112 108c-104 0 -125 -73 -113 -159l77 5c-7 67 3 86 32 86c21 0 33 -12 33 -39c0 -104 -118 -172 -140 -269c-4 -18 -7 -37 -7 -56c0 -11 1 -21 1 -31h220v71zM37 612l-17 64c34 12 69 32 103 58h67v-455h-85v366
c-14 -9 -38 -21 -68 -33zM126 14l331 735l74 -31l-330 -737z" />
    <glyph glyph-name="onequarter" unicode="&#xbc;" horiz-adv-x="711" 
d="M464 155h87v206h-2zM632 455v-300h46v-69h-46v-86h-81v86h-160v52l136 317h105zM29 612l-17 64c34 12 69 32 103 58h67v-455h-85v366c-14 -9 -38 -21 -68 -33zM127 14l331 735l74 -31l-330 -737z" />
    <glyph glyph-name="threequarters" unicode="&#xbe;" horiz-adv-x="711" 
d="M478 155h87v206h-2zM646 455v-300h46v-69h-46v-86h-81v86h-160v52l136 317h105zM93 544l4 -65c59 1 83 -11 83 -73c0 -47 -13 -66 -37 -66c-33 0 -43 21 -45 79l-81 -5c1 -87 26 -143 126 -143c81 0 124 44 124 135c0 54 -23 97 -88 112c43 13 81 43 81 111
c0 73 -44 112 -117 112c-107 0 -127 -73 -115 -154l79 4c-7 62 3 82 32 82c20 0 35 -9 35 -50c0 -56 -17 -76 -81 -79zM160 14l331 735l74 -31l-330 -737z" />
    <glyph glyph-name="onethird" unicode="&#x2153;" horiz-adv-x="711" 
d="M499 266l4 -65c59 1 83 -11 83 -73c0 -47 -13 -66 -37 -66c-33 0 -43 21 -45 79l-81 -5c1 -87 26 -143 126 -143c81 0 124 44 124 135c0 54 -23 97 -88 112c43 13 81 43 81 111c0 73 -44 112 -117 112c-107 0 -127 -73 -115 -154l79 4c-7 62 3 82 32 82
c20 0 35 -9 35 -50c0 -56 -17 -76 -81 -79zM27 612l-17 64c34 12 69 32 103 58h67v-455h-85v366c-14 -9 -38 -21 -68 -33zM116 14l331 735l74 -31l-330 -737z" />
    <glyph glyph-name="twothirds" unicode="&#x2154;" horiz-adv-x="711" 
d="M518 266l4 -65c59 1 83 -11 83 -73c0 -47 -13 -66 -37 -66c-33 0 -43 21 -45 79l-81 -5c1 -87 26 -143 126 -143c81 0 124 44 124 135c0 54 -23 97 -88 112c43 13 81 43 81 111c0 73 -44 112 -117 112c-107 0 -127 -73 -115 -154l79 4c-7 62 3 82 32 82
c20 0 35 -9 35 -50c0 -56 -17 -76 -81 -79zM242 349h-127c1 77 136 151 136 284c0 70 -38 108 -112 108c-104 0 -125 -73 -113 -159l77 5c-7 67 3 86 32 86c21 0 33 -12 33 -39c0 -104 -118 -172 -140 -269c-4 -18 -7 -37 -7 -56c0 -11 1 -21 1 -31h220v71zM154 14l331 735
l74 -31l-330 -737z" />
    <glyph glyph-name="zero.slash" horiz-adv-x="465" 
d="M227 -12c-154 0 -194 127 -194 378c0 252 59 381 208 381c154 0 189 -126 189 -367c0 -261 -47 -392 -203 -392zM233 79c70 0 87 78 89 249h-179c1 -171 16 -249 90 -249zM237 656c-69 0 -91 -77 -94 -239h179c-2 164 -19 239 -85 239z" />
    <glyph glyph-name="zero.tf" horiz-adv-x="465" 
d="M227 -12c-154 0 -194 127 -194 378c0 252 59 381 208 381c154 0 189 -126 189 -367c0 -261 -47 -392 -203 -392zM233 79c76 0 89 92 89 294c0 195 -13 283 -85 283c-75 0 -94 -92 -94 -287c0 -199 11 -290 90 -290z" />
    <glyph glyph-name="one.tf" horiz-adv-x="465" 
d="M102 0v91h100v517c-20 -14 -61 -37 -106 -56l-21 86c49 21 103 54 153 96h80v-643h92v-91h-298z" />
    <glyph glyph-name="two.tf" horiz-adv-x="465" 
d="M185 95h201v-95h-314c0 11 -1 24 -1 37c-1 24 1 49 6 70c20 179 215 285 215 467c0 58 -23 82 -60 82c-57 0 -70 -46 -58 -157l-98 -7c-19 137 14 255 160 255c108 0 163 -61 163 -174c0 -215 -215 -331 -214 -478z" />
    <glyph glyph-name="three.tf" horiz-adv-x="465" 
d="M165 335l-5 87c95 3 131 36 131 135c0 78 -29 99 -66 99c-55 0 -73 -44 -63 -151l-98 -5c-18 130 15 247 166 247c103 0 169 -63 169 -182c0 -113 -57 -158 -121 -178c93 -20 131 -90 131 -185c0 -141 -64 -214 -181 -214c-143 0 -178 97 -181 231l102 6
c4 -102 22 -145 80 -145c42 0 72 32 72 124c0 115 -49 134 -136 131z" />
    <glyph glyph-name="four.tf" horiz-adv-x="465" 
d="M120 246h140v352h-2zM361 734v-488h71v-94h-71v-152h-101v152h-238v71l208 511h131z" />
    <glyph glyph-name="five.tf" horiz-adv-x="465" 
d="M228 390c-35 0 -65 -21 -81 -65l-82 6l24 403h300v-94h-213l-20 -212c25 31 62 52 106 52c82 0 152 -55 152 -235c0 -172 -65 -257 -190 -257c-128 0 -179 85 -181 228l103 7c3 -106 32 -143 79 -143c52 0 81 48 81 162c0 124 -33 148 -78 148z" />
    <glyph glyph-name="six.tf" horiz-adv-x="465" 
d="M250 656c-62 0 -93 -71 -100 -267c26 44 72 66 119 66c91 0 156 -71 156 -227c0 -176 -83 -240 -185 -240c-149 0 -195 111 -195 337c0 283 59 422 216 422c121 0 165 -82 155 -214l-104 -6c4 89 -10 129 -62 129zM235 370c-50 0 -83 -30 -83 -132
c0 -103 31 -159 87 -159c57 0 78 57 78 147c0 102 -24 144 -82 144z" />
    <glyph glyph-name="seven.tf" horiz-adv-x="465" 
d="M250 0h-120c8 274 79 467 180 639h-256v95h360v-74c-129 -218 -159 -413 -164 -660z" />
    <glyph glyph-name="eight.tf" horiz-adv-x="465" 
d="M229 -12c-145 0 -198 90 -198 207c0 102 34 172 120 205c-72 23 -99 88 -99 155c0 115 65 192 183 192c127 0 175 -75 175 -184c0 -74 -31 -138 -101 -160c88 -26 124 -97 124 -196c0 -126 -56 -219 -204 -219zM233 79c69 0 94 51 94 128c0 90 -21 148 -96 148
c-65 0 -93 -57 -93 -144c0 -81 23 -132 95 -132zM232 443c58 0 72 47 72 118c0 59 -16 104 -72 104c-55 0 -73 -47 -73 -107c0 -73 16 -115 73 -115z" />
    <glyph glyph-name="nine.tf" horiz-adv-x="465" 
d="M216 79c69 0 93 81 99 267c-26 -44 -70 -66 -114 -66c-94 0 -163 71 -163 219c0 183 86 248 192 248c142 0 189 -109 189 -335c0 -283 -48 -424 -208 -424c-121 0 -176 80 -174 214l103 7c3 -93 24 -130 76 -130zM226 365c52 0 86 33 86 139c0 96 -27 152 -84 152
c-56 0 -82 -57 -82 -150c0 -99 24 -141 80 -141z" />
    <glyph glyph-name="dollar.tf" horiz-adv-x="465" 
d="M198 798h77v-75c93 -14 145 -88 145 -226l-101 -11c-2 75 -15 118 -44 137v-208c74 -29 153 -64 153 -196c0 -122 -65 -189 -153 -206v-78h-77v75c-111 10 -166 84 -170 230l107 12c5 -90 21 -134 63 -148v228c-75 30 -158 61 -158 202c0 109 67 174 158 189v75zM149 544
c0 -46 20 -73 49 -93v177c-34 -12 -49 -44 -49 -84zM318 198c0 46 -18 74 -43 94v-185c28 14 43 45 43 91z" />
    <glyph glyph-name="Euro.tf" horiz-adv-x="465" 
d="M260 76c63 0 78 63 83 144l102 -8c-13 -153 -70 -224 -191 -224c-125 0 -175 88 -188 265h-63l11 78h49v30v33h-48l13 78h40c18 184 86 275 209 275c124 0 167 -100 168 -232l-101 -9c-3 103 -21 150 -75 150c-55 0 -84 -54 -94 -184h138l-13 -78h-128v-30v-33h125
l-11 -78h-112c7 -126 29 -177 86 -177z" />
    <glyph glyph-name="cent.tf" horiz-adv-x="411" 
d="M388 431l-92 -6c-2 51 -11 84 -31 100v-349c18 15 26 45 30 96l93 -5c-5 -123 -59 -169 -123 -182v-84h-74v82c-122 15 -151 123 -151 261c0 158 47 256 151 275v76h74v-75c93 -14 123 -90 123 -189zM148 342c0 -86 7 -145 43 -167v353c-34 -22 -43 -84 -43 -186z" />
    <glyph glyph-name="sterling.tf" horiz-adv-x="465" 
d="M42 322v83h73c-22 43 -44 93 -44 163c0 113 76 179 184 179c120 0 165 -79 165 -185c0 -21 -2 -42 -5 -64l-97 8c2 17 2 33 2 47c0 73 -21 103 -69 103c-40 0 -75 -22 -75 -88c0 -64 26 -114 49 -163h156v-83h-126c3 -14 5 -29 5 -44c0 -55 -23 -110 -88 -185h238v-93
h-349v90c73 75 98 129 98 189c0 15 -3 29 -7 43h-110z" />
    <glyph glyph-name="yen.tf" horiz-adv-x="465" 
d="M381 337h-95v-69h95v-77h-95v-191h-106v191h-98v77h98v69h-98v77h67l-145 320h115l116 -293l117 293h109l-146 -320h66v-77z" />
    <glyph glyph-name="florin.tf" horiz-adv-x="465" 
d="M61 379l15 80h94l21 115c22 125 82 173 183 173c31 0 63 -9 77 -14l-26 -78c-15 5 -34 9 -51 9c-47 0 -72 -29 -83 -93l-20 -112h128l-15 -80h-127l-60 -349c-21 -122 -82 -170 -183 -170c-31 0 -63 9 -76 14l25 78c15 -5 34 -9 52 -9c46 0 69 27 80 88l61 348h-95z" />
    <glyph glyph-name="comma.tf" horiz-adv-x="232" 
d="M62 0v131h114v-112l-63 -147l-48 14l29 114h-32z" />
    <glyph glyph-name="period.tf" horiz-adv-x="232" 
d="M59 0v131h114v-131h-114z" />
    <glyph glyph-name="perthousand.tf" horiz-adv-x="465" 
d="M24 397h418v-65h-418v65zM115 -11c-77 0 -104 61 -104 152c0 97 39 154 110 154c74 0 101 -57 101 -149c0 -102 -30 -157 -107 -157zM347 -11c-77 0 -104 61 -104 152c0 97 39 154 110 154c74 0 102 -56 102 -149c0 -102 -32 -157 -108 -157zM349 44c33 0 40 35 40 100
s-8 95 -38 95c-31 0 -41 -34 -41 -96c0 -59 5 -99 39 -99zM116 432c-76 0 -104 60 -104 153c0 97 40 153 111 153c73 0 101 -55 101 -149c0 -102 -32 -157 -108 -157zM116 44c34 0 41 36 41 100s-8 95 -39 95c-30 0 -41 -34 -41 -97c0 -59 6 -98 39 -98zM118 488
c33 0 40 34 40 99c0 66 -9 96 -38 96c-31 0 -41 -34 -41 -97c0 -61 6 -98 39 -98z" />
    <glyph glyph-name="percent.tf" horiz-adv-x="465" 
d="M56 397h354v-65h-354v65zM227 -11c-78 0 -104 61 -104 152c0 97 39 154 109 154c75 0 102 -56 102 -149c0 -102 -31 -157 -107 -157zM228 44c34 0 40 35 40 100s-7 95 -37 95c-32 0 -42 -34 -42 -96c0 -59 5 -99 39 -99zM230 432c-76 0 -104 60 -104 153
c0 97 40 153 111 153c73 0 101 -55 101 -149c0 -102 -32 -157 -108 -157zM232 488c33 0 40 34 40 99c0 66 -9 96 -38 96c-31 0 -41 -34 -41 -97c0 -61 6 -98 39 -98z" />
    <glyph glyph-name="minus" unicode="&#x2212;" horiz-adv-x="465" 
d="M391 295h-318v78h318v-78z" />
    <glyph glyph-name="approxequal" unicode="&#x2248;" horiz-adv-x="465" 
d="M113 142l-65 23c15 81 54 110 107 110c26 0 52 -9 83 -23c29 -13 48 -20 65 -20c23 0 37 16 46 48l65 -20c-16 -70 -51 -109 -102 -109c-27 0 -65 15 -92 26c-24 10 -42 18 -59 18c-19 0 -38 -12 -48 -53zM114 314l-65 22c15 82 54 110 107 110c26 0 52 -9 83 -22
c29 -14 48 -21 65 -21c23 0 37 17 46 49l65 -20c-16 -71 -51 -109 -102 -109c-27 0 -65 14 -92 26c-24 9 -42 17 -59 17c-19 0 -38 -12 -48 -52z" />
    <glyph glyph-name="notequal" unicode="&#x2260;" horiz-adv-x="465" 
d="M391 194h-184l-48 -94h-69l49 94h-66v78h106l36 71h-142v78h182l43 83h66l-43 -83h70v-78h-109l-36 -71h145v-78z" />
    <glyph glyph-name="lessequal" unicode="&#x2264;" horiz-adv-x="465" 
d="M391 0h-318v78h318v-78zM391 111l-318 105v109l318 117v-92l-235 -78l235 -69v-92z" />
    <glyph glyph-name="greaterequal" unicode="&#x2265;" horiz-adv-x="465" 
d="M391 0h-318v78h318v-78zM73 442l318 -104v-109l-318 -118v93l235 77l-235 70v91z" />
    <glyph glyph-name="less" unicode="&#x3c;" horiz-adv-x="465" 
d="M391 125l-318 104v109l318 117v-92l-235 -77l235 -70v-91z" />
    <glyph glyph-name="equal" unicode="=" horiz-adv-x="465" 
d="M391 194h-318v78h318v-78zM391 343h-318v78h318v-78z" />
    <glyph glyph-name="greater" unicode="&#x3e;" horiz-adv-x="465" 
d="M73 455l318 -104v-109l-318 -117v92l235 77l-235 70v91z" />
    <glyph glyph-name="logicalnot" unicode="&#xac;" horiz-adv-x="465" 
d="M391 168h-82v127h-236v78h318v-205z" />
    <glyph glyph-name="plus" unicode="+" horiz-adv-x="465" 
d="M391 295h-120v-120h-78v120h-120v78h120v120h78v-120h120v-78z" />
    <glyph glyph-name="plusminus" unicode="&#xb1;" horiz-adv-x="465" 
d="M391 295h-120v-120h-78v120h-120v78h120v120h78v-120h120v-78zM391 0h-318v78h318v-78z" />
    <glyph glyph-name="divide" unicode="&#xf7;" horiz-adv-x="465" 
d="M391 295h-318v78h318v-78zM186 411v115h98v-115h-98zM186 141v114h98v-114h-98z" />
    <glyph glyph-name="multiply" unicode="&#xd7;" 
d="M390 419l-85 -85l85 -85l-56 -56l-85 85l-84 -84l-56 56l84 84l-84 84l56 56l84 -84l85 84z" />
    <glyph glyph-name="partialdiff" unicode="&#x2202;" horiz-adv-x="510" 
d="M364 404c1 123 -2 247 -107 247c-52 0 -93 -16 -131 -40l-34 69c42 29 113 54 172 54c166 0 196 -153 196 -303c0 -172 -18 -443 -232 -443c-153 0 -184 121 -184 228c0 131 55 257 196 257c58 0 98 -26 124 -69zM346 249c2 63 -15 145 -92 145c-86 0 -107 -83 -107 -175
c0 -81 18 -145 87 -145c76 0 109 88 112 175z" />
    <glyph glyph-name="Omega" unicode="&#x2126;" horiz-adv-x="575" 
d="M369 120v-29h122v-91h-176v157c55 27 76 67 76 242c0 164 -13 254 -99 254c-70 0 -108 -60 -108 -254c0 -161 17 -212 74 -242v-157h-177v91h122v28c-109 39 -133 148 -133 285c0 195 58 343 224 343c177 0 210 -149 210 -327c0 -139 -17 -240 -135 -300z" />
    <glyph glyph-name="Delta" unicode="&#x2206;" horiz-adv-x="543" 
d="M523 0h-503l184 734h138zM272 622l-120 -527h233l-111 527h-2z" />
    <glyph glyph-name="product" unicode="&#x220f;" horiz-adv-x="625" 
d="M535 734v-895h-108v801h-230v-801h-107v895h445z" />
    <glyph glyph-name="summation" unicode="&#x2211;" horiz-adv-x="483" 
d="M371 279l-235 -360h292v-95h-415v93l233 363l-211 362v92h391v-95h-266z" />
    <glyph glyph-name="uni0394" unicode="&#x394;" horiz-adv-x="543" 
d="M523 0h-503l184 734h138zM272 622l-120 -527h233l-111 527h-2z" />
    <glyph glyph-name="uni03A9" unicode="&#x3a9;" horiz-adv-x="575" 
d="M369 120v-29h122v-91h-176v157c55 27 76 67 76 242c0 164 -13 254 -99 254c-70 0 -108 -60 -108 -254c0 -161 17 -212 74 -242v-157h-177v91h122v28c-109 39 -133 148 -133 285c0 195 58 343 224 343c177 0 210 -149 210 -327c0 -139 -17 -240 -135 -300z" />
    <glyph glyph-name="uni03BC" unicode="&#x3bc;" horiz-adv-x="566" 
d="M93 -176v694h98v-321c0 -86 9 -119 64 -119c58 0 81 60 81 138v302h97v-518h-70l-17 76c-13 -41 -48 -69 -89 -77c-25 -5 -52 -3 -75 9l-3 -3l15 -181h-101z" />
    <glyph glyph-name="pi" unicode="&#x3c0;" horiz-adv-x="548" 
d="M464 518v-518h-101v435h-177v-435h-102v518h380z" />
    <glyph glyph-name="mu" unicode="&#xb5;" 
d="M80 -176v694h98v-321c0 -86 9 -119 64 -119c58 0 81 60 81 138v302h97v-518h-70l-17 76c-13 -41 -48 -69 -89 -77c-25 -5 -52 -3 -75 9l-3 -3l15 -181h-101z" />
    <glyph glyph-name="radical" unicode="&#x221a;" horiz-adv-x="550" 
d="M352 0h-102l-108 252l-72 -30l-29 73l156 65l97 -242l144 630l85 -17z" />
    <glyph glyph-name="infinity" unicode="&#x221e;" horiz-adv-x="667" 
d="M483 184c-74 0 -116 47 -149 85c-33 -35 -80 -86 -155 -86c-66 0 -133 42 -133 131c0 80 56 138 145 138c68 0 111 -43 149 -84c35 37 81 84 150 84c68 0 131 -41 131 -138c0 -73 -62 -130 -138 -130zM185 248c46 0 85 46 109 72c-30 35 -62 67 -106 67
c-38 0 -61 -33 -61 -67s15 -72 58 -72zM381 316c29 -33 56 -67 99 -67c37 0 60 34 60 69c0 33 -14 70 -56 70c-40 0 -70 -35 -103 -72z" />
    <glyph glyph-name="integral" unicode="&#x222b;" horiz-adv-x="411" 
d="M335 733l-3 -78c-16 5 -37 9 -54 9c-44 0 -56 -29 -48 -93l74 -584c14 -114 -41 -170 -139 -170c-31 0 -65 8 -80 13l2 79c16 -5 36 -9 53 -9c46 0 62 27 54 88l-72 586c-15 115 34 173 131 173c31 0 67 -9 82 -14z" />
    <glyph glyph-name="lozenge" unicode="&#x25ca;" horiz-adv-x="512" 
d="M307 46h-102l-152 324l152 324h102l153 -324zM256 128l108 242l-108 242l-108 -242z" />
    <glyph glyph-name="commaaccent" 
d="M202 -149v103h94v-87l-42 -114l-45 11l23 87h-30z" />
    <glyph glyph-name="revcommaaccent" 
d="M295 683v-103h-93v88l42 113l45 -11l-24 -87h30z" />
    <glyph glyph-name="tilde.cap" 
d="M172 782l-49 7c11 68 42 98 79 98s67 -27 93 -27c12 0 23 6 31 37l49 -6c-13 -71 -38 -103 -80 -103s-71 26 -93 26c-12 0 -23 -6 -30 -32z" />
    <glyph glyph-name="ring.cap" 
d="M248 762c-63 0 -91 31 -91 85s40 85 95 85c59 0 90 -30 90 -82c0 -57 -34 -88 -94 -88zM250 804c18 0 30 13 30 44c0 32 -12 43 -29 43c-20 0 -33 -11 -33 -44c0 -32 11 -43 32 -43z" />
    <glyph glyph-name="circumflex.cap" 
d="M223 914h53l116 -111l-33 -41l-110 73l-109 -73l-33 41z" />
    <glyph glyph-name="acute.cap" 
d="M316 923l47 -79l-173 -81l-29 49z" />
    <glyph glyph-name="grave.cap" 
d="M135 844l48 76l155 -109l-30 -48z" />
    <glyph glyph-name="dieresis.cap" 
d="M279 782v103h82v-103h-82zM139 782v103h82v-103h-82z" />
    <glyph glyph-name="caron.cap" 
d="M276 765h-53l-113 108l33 40l107 -69l106 69l33 -40z" />
    <glyph glyph-name="macron.cap" 
d="M128 796v77h244v-77h-244z" />
    <glyph glyph-name="dotaccent.cap" 
d="M197 783v119h105v-119h-105z" />
    <glyph glyph-name="cedilla.cap" 
d="M204 -83l33 83h50l-21 -49c8 4 15 5 24 5c45 0 72 -32 72 -82c0 -60 -42 -91 -98 -91c-34 0 -71 12 -95 60l45 26c13 -25 27 -32 41 -32c20 0 31 12 31 38c0 25 -10 37 -25 37c-8 0 -15 -3 -22 -10z" />
    <glyph glyph-name="hungarumlaut.cap" 
d="M434 916l47 -63l-155 -88l-29 40zM284 926l48 -64l-151 -95l-28 38z" />
    <glyph glyph-name="apostrophe" unicode="&#x2bc;" 
d="M296 717v-103h-30l23 -87l-45 -11l-42 114v87h94z" />
    <glyph glyph-name="commaaccent.cap" 
d="M202 -149v103h94v-87l-42 -114l-45 11l23 87h-30z" />
    <glyph glyph-name="breve.cap" 
d="M124 893l52 10c8 -48 38 -65 74 -65c34 0 64 16 78 66l51 -10c-9 -81 -59 -125 -132 -125c-72 0 -118 42 -123 124z" />
    <glyph glyph-name="caron.alt" 
d="M219 734h87l-33 -185l-52 4z" />
    <glyph glyph-name="thinspace" unicode="&#x2009;" horiz-adv-x="125" 
 />
    </font>
</defs>
</svg>
