<?xml version="1.0" standalone="no"?>
<!DOCTYPE svg PUBLIC "-//W3C//DTD SVG 1.1//EN" "http://www.w3.org/Graphics/SVG/1.1/DTD/svg11.dtd" >
<svg xmlns="http://www.w3.org/2000/svg" xmlns:xlink="http://www.w3.org/1999/xlink" version="1.1">
<metadata>
Created by FontForge 20161116 at Fri Mar  9 12:18:13 2012
 By Jimmy Wärting
Copyright (c) 2012 by TypeTogether. All rights reserved.
</metadata>
<defs>
<font id="TabletGothicCondensed-Bold" horiz-adv-x="500" >
  <font-face 
    font-family="Tablet Gothic Condensed"
    font-weight="700"
    font-stretch="condensed"
    units-per-em="1000"
    panose-1="2 0 5 3 0 0 0 2 0 4"
    ascent="755"
    descent="-245"
    x-height="520"
    cap-height="734"
    bbox="-124 -257 864 1054"
    underline-thickness="50"
    underline-position="-100"
    stemh="106"
    stemv="123"
    unicode-range="U+0020-FB04"
  />
<missing-glyph horiz-adv-x="144" 
 />
    <glyph glyph-name="ij" unicode="ij" horiz-adv-x="411" 
d="M40 605v129h125v-129h-125zM40 0v520h125v-520h-125zM247 605v129h125v-129h-125zM138 -183l15 93c16 -5 28 -6 41 -6c37 0 54 23 54 88v528h123v-530c0 -145 -73 -185 -159 -185c-29 0 -59 7 -74 12z" />
    <glyph glyph-name="ff" unicode="ff" horiz-adv-x="553" 
d="M191 425v-425h-124v425h-60v95h60v37c0 144 76 185 165 185c37 0 65 -9 80 -14l-16 -93c-16 5 -31 8 -48 8c-40 0 -57 -24 -57 -83v-40h130v42c0 144 76 185 168 185c34 0 70 -9 85 -14l-16 -94c-16 6 -33 9 -51 9c-42 0 -62 -24 -62 -89v-39h104v-95h-104v-425h-124v425
h-130z" />
    <glyph glyph-name="fi" unicode="fi" horiz-adv-x="486" 
d="M287 738v-97c-12 4 -24 5 -39 5c-40 0 -57 -22 -57 -78v-48h255v-520h-125v425h-130v-425h-124v425h-60v95h60v42c0 144 74 185 163 185c24 0 42 -4 57 -9zM325 605v129h121v-129h-121z" />
    <glyph glyph-name="fl" unicode="fl" horiz-adv-x="486" 
d="M287 738v-97c-12 4 -24 5 -39 5c-40 0 -57 -22 -57 -78v-48h88v-95h-88v-425h-124v425h-60v95h60v42c0 144 74 185 163 185c24 0 42 -4 57 -9zM445 734v-734h-124v734h124z" />
    <glyph glyph-name="ffi" unicode="ffi" horiz-adv-x="740" 
d="M541 738v-97c-12 4 -24 5 -39 5c-40 0 -57 -22 -57 -78v-48h255v-520h-125v425h-130v-425h-124v425h-130v-425h-124v425h-60v95h60v38c0 144 76 185 165 185c37 0 65 -9 80 -14l-16 -94c-16 5 -31 9 -48 9c-40 0 -57 -24 -57 -83v-41h130v42c0 144 74 185 163 185
c24 0 42 -4 57 -9zM579 605v129h121v-129h-121z" />
    <glyph glyph-name="ffl" unicode="ffl" horiz-adv-x="740" 
d="M541 738v-97c-12 4 -24 5 -39 5c-40 0 -57 -22 -57 -78v-48h88v-95h-88v-425h-124v425h-130v-425h-124v425h-60v95h60v37c0 144 76 185 165 185c37 0 65 -9 80 -14l-16 -93c-16 5 -31 8 -48 8c-40 0 -57 -24 -57 -83v-40h130v42c0 144 74 185 163 185c24 0 42 -4 57 -9z
M699 734v-734h-124v734h124z" />
    <glyph glyph-name="t_t" unicode="tt" horiz-adv-x="580" 
d="M191 425v-256c0 -64 12 -82 55 -82c17 0 31 2 47 7l12 -91c-15 -6 -47 -15 -90 -15c-81 0 -148 28 -148 169v268h-60v95h60v99l124 34v-133h142v99l123 34v-133h105v-95h-105v-256c0 -64 13 -83 56 -83c18 0 38 4 54 9l12 -93c-16 -6 -46 -14 -92 -14
c-86 0 -153 28 -153 169v268h-142z" />
    <glyph glyph-name=".notdef" horiz-adv-x="144" 
 />
    <glyph glyph-name=".notdef" horiz-adv-x="144" 
 />
    <glyph glyph-name="space" unicode=" " horiz-adv-x="144" 
 />
    <glyph glyph-name="quotesingle" unicode="'" horiz-adv-x="203" 
d="M52 734h99l-10 -204h-80z" />
    <glyph glyph-name="quotedbl" unicode="&#x22;" horiz-adv-x="338" 
d="M170 734h99l-10 -204h-80zM70 734h99l-10 -204h-80z" />
    <glyph glyph-name="numbersign" unicode="#" horiz-adv-x="579" 
d="M401 0h-107l18 124h-94l-18 -124h-107l19 124h-83l15 94h82l19 132h-87l15 94h86l16 111h107l-17 -111h94l17 111h107l-16 -111h82l-15 -94h-81l-19 -132h88l-15 -94h-87zM326 218l19 132h-94l-19 -132h94z" />
    <glyph glyph-name="ampersand" unicode="&#x26;" horiz-adv-x="611" 
d="M355 145l-130 170c-39 -35 -60 -78 -60 -125c0 -63 35 -94 84 -94c35 0 74 16 106 49zM436 522l-115 16c4 12 5 31 5 42c0 41 -17 63 -54 63c-38 0 -56 -22 -56 -59c0 -35 17 -75 51 -121l157 -208c21 51 27 121 29 173l115 -15c-4 -98 -27 -196 -62 -265l82 -105
l-100 -73l-65 86c-47 -41 -110 -68 -187 -68c-137 0 -207 74 -207 191c0 85 39 166 128 224c-42 55 -66 115 -66 175c0 105 71 168 184 168c101 0 168 -52 168 -159c0 -20 -2 -48 -7 -65z" />
    <glyph glyph-name="asterisk" unicode="*" horiz-adv-x="382" 
d="M147 734h90l-27 -129l114 65l28 -87l-132 -14l98 -88l-75 -53l-52 116l-55 -115l-74 54l97 87l-129 15l28 87l114 -67z" />
    <glyph glyph-name="comma" unicode="," horiz-adv-x="220" 
d="M45 0v143h134v-120l-71 -153l-54 15l28 115h-37z" />
    <glyph glyph-name="hyphen" unicode="-" horiz-adv-x="276" 
d="M254 244h-232v94h232v-94z" />
    <glyph glyph-name="period" unicode="." horiz-adv-x="225" 
d="M44 0v143h137v-143h-137z" />
    <glyph glyph-name="colon" unicode=":" horiz-adv-x="225" 
d="M44 0v143h137v-143h-137zM44 373v143h137v-143h-137z" />
    <glyph glyph-name="semicolon" unicode=";" horiz-adv-x="220" 
d="M46 373v143h133v-143h-133zM45 0v143h134v-120l-71 -153l-54 15l28 115h-37z" />
    <glyph glyph-name="question" unicode="?" horiz-adv-x="459" 
d="M281 523c0 96 -28 115 -59 115c-37 0 -60 -25 -63 -117l-130 9c3 124 43 217 194 217c136 0 195 -82 195 -225c0 -153 -70 -209 -165 -232l-8 -87h-117l-8 166c132 4 161 51 161 154zM116 0v143h138v-143h-138z" />
    <glyph glyph-name="exclam" unicode="!" horiz-adv-x="271" 
d="M195 202h-117l-15 532h146zM69 0v143h137v-143h-137z" />
    <glyph glyph-name="exclamdown" unicode="&#xa1;" horiz-adv-x="271" 
d="M78 318h117l14 -532h-146zM69 377v143h137v-143h-137z" />
    <glyph glyph-name="questiondown" unicode="&#xbf;" horiz-adv-x="459" 
d="M178 -3c0 103 29 150 161 154l-8 166h-117l-8 -87c-95 -23 -165 -79 -165 -232c0 -143 59 -225 195 -225c151 0 191 93 194 217l-130 9c-3 -92 -26 -117 -63 -117c-31 0 -59 19 -59 115zM343 520v-143h-138v143h138z" />
    <glyph glyph-name="at" unicode="@" horiz-adv-x="727" 
d="M533 -28l43 -56c-45 -50 -131 -82 -216 -82c-180 0 -320 108 -320 349c0 235 133 383 338 383c183 0 308 -102 308 -316c0 -182 -63 -252 -159 -252c-52 0 -90 27 -104 53c-25 -34 -63 -59 -109 -59c-95 0 -118 83 -118 165c0 110 45 240 160 240c44 0 67 -24 80 -44
l8 38h80l-27 -233c-7 -54 -8 -93 39 -93c45 0 68 52 68 170c0 195 -90 259 -232 259c-162 0 -247 -128 -247 -311c0 -182 92 -276 242 -276c76 0 133 28 166 65zM413 154l11 103c5 43 -13 73 -53 73c-62 0 -83 -85 -86 -166c-2 -63 9 -103 54 -103c41 0 68 42 74 93z" />
    <glyph glyph-name="at.case" horiz-adv-x="727" 
d="M533 130l43 -56c-45 -50 -131 -82 -216 -82c-180 0 -320 108 -320 349c0 235 133 383 338 383c183 0 308 -102 308 -316c0 -182 -63 -252 -159 -252c-52 0 -90 27 -104 53c-25 -34 -63 -59 -109 -59c-95 0 -118 83 -118 165c0 110 45 240 160 240c44 0 67 -24 80 -44
l8 38h80l-27 -233c-7 -54 -8 -93 39 -93c45 0 68 52 68 170c0 195 -90 259 -232 259c-162 0 -247 -128 -247 -311c0 -182 92 -276 242 -276c76 0 133 28 166 65zM413 312l11 103c5 43 -13 73 -53 73c-62 0 -83 -85 -86 -166c-2 -63 9 -103 54 -103c41 0 68 42 74 93z" />
    <glyph glyph-name="A" unicode="A" horiz-adv-x="518" 
d="M172 734h168l170 -734h-136l-37 172h-161l-36 -172h-133zM317 289l-59 307h-4l-59 -307h122z" />
    <glyph glyph-name="B" unicode="B" horiz-adv-x="492" 
d="M216 0h-166v734h170c157 0 221 -63 221 -178c0 -110 -63 -157 -130 -170v-2c108 -15 157 -70 157 -175c0 -152 -94 -209 -252 -209zM180 109h33c83 0 122 29 122 107c0 71 -42 103 -111 103h-44v-210zM180 428h17c71 0 112 33 112 109c0 69 -41 89 -92 89h-37v-198z" />
    <glyph glyph-name="C" unicode="C" horiz-adv-x="487" 
d="M258 94c58 0 72 60 74 160l126 -9c-5 -185 -70 -257 -210 -257c-162 0 -214 123 -214 373c0 258 78 386 240 386c138 0 193 -97 190 -268l-126 -10c-1 130 -21 168 -74 168c-66 0 -93 -72 -93 -273c0 -196 19 -270 87 -270z" />
    <glyph glyph-name="D" unicode="D" horiz-adv-x="509" 
d="M184 0h-134v734h135c228 0 290 -114 290 -354c0 -263 -61 -380 -291 -380zM180 110h23c102 0 136 60 136 263c0 191 -35 252 -139 252h-20v-515z" />
    <glyph glyph-name="E" unicode="E" horiz-adv-x="429" 
d="M368 428v-106h-188v-209h228v-113h-358v734h340v-113h-210v-193h188z" />
    <glyph glyph-name="F" unicode="F" horiz-adv-x="403" 
d="M366 418v-106h-186v-312h-130v734h340v-113h-210v-203h186z" />
    <glyph glyph-name="G" unicode="G" horiz-adv-x="507" 
d="M249 253v105h214v-370h-87l-18 71c-29 -52 -72 -71 -120 -71c-151 0 -204 123 -204 370c0 261 78 389 240 389c138 0 192 -96 190 -268l-126 -10c-1 131 -22 168 -74 168c-66 0 -93 -72 -93 -274c0 -195 19 -269 88 -269c53 0 76 54 75 159h-85z" />
    <glyph glyph-name="H" unicode="H" horiz-adv-x="523" 
d="M472 734v-734h-130v309h-162v-309h-130v734h130v-309h162v309h130z" />
    <glyph glyph-name="I" unicode="I" horiz-adv-x="311" 
d="M220 635v-536h63v-99h-255v99h62v536h-61v99h253v-99h-62z" />
    <glyph glyph-name="J" unicode="J" horiz-adv-x="421" 
d="M11 216l124 8c3 -60 7 -124 59 -124c37 0 57 18 57 104v530h124v-546c0 -132 -63 -200 -186 -200c-133 0 -178 89 -178 228z" />
    <glyph glyph-name="K" unicode="K" horiz-adv-x="504" 
d="M180 734v-307l199 307h139l-200 -296l182 -438h-140l-131 306l-49 -73v-233h-130v734h130z" />
    <glyph glyph-name="L" unicode="L" horiz-adv-x="397" 
d="M180 734v-621h200v-113h-330v734h130z" />
    <glyph glyph-name="M" unicode="M" horiz-adv-x="694" 
d="M406 0h-117l-112 558h-3v-558h-124v734h193l105 -573h3l100 573h192v-734h-123v560h-5z" />
    <glyph glyph-name="N" unicode="N" horiz-adv-x="546" 
d="M496 0h-146l-176 498l-3 -1v-497h-121v734h156l167 -492l3 1v491h120v-734z" />
    <glyph glyph-name="O" unicode="O" horiz-adv-x="514" 
d="M251 -12c-168 0 -217 128 -217 378c0 251 72 381 233 381c169 0 213 -127 213 -367c0 -260 -60 -392 -229 -392zM258 96c70 0 86 78 86 277c0 191 -16 261 -82 261c-69 0 -91 -73 -91 -265c0 -195 14 -273 87 -273z" />
    <glyph glyph-name="P" unicode="P" horiz-adv-x="470" 
d="M180 272v-272h-130v734h173c158 0 230 -70 230 -215c0 -136 -49 -247 -241 -247h-32zM180 381h28c78 0 113 35 113 131c0 86 -41 109 -93 109h-48v-240z" />
    <glyph glyph-name="Q" unicode="Q" horiz-adv-x="514" 
d="M251 -12c-168 0 -217 128 -217 378c0 251 72 381 233 381c169 0 213 -127 213 -367c0 -170 -26 -285 -91 -345l66 -151l-82 -37l-90 143c-10 -1 -21 -2 -32 -2zM258 96c70 0 86 78 86 277c0 191 -16 261 -82 261c-69 0 -91 -73 -91 -265c0 -195 14 -273 87 -273z" />
    <glyph glyph-name="R" unicode="R" horiz-adv-x="489" 
d="M347 0l-129 306h-6h-32v-306h-130v734h172c158 0 231 -69 231 -202c0 -89 -25 -166 -109 -203l148 -329h-145zM180 416h28c78 0 113 24 113 109c0 78 -42 96 -94 96h-47v-205z" />
    <glyph glyph-name="S" unicode="S" horiz-adv-x="484" 
d="M444 512l-125 -16c-3 107 -28 141 -82 141c-52 0 -75 -34 -75 -76c0 -63 44 -92 101 -121c84 -42 190 -82 190 -231c0 -151 -96 -221 -213 -221c-144 0 -209 75 -216 237l132 14c4 -106 30 -144 88 -144c50 0 77 27 77 89c0 72 -49 102 -108 130c-82 40 -180 78 -180 223
c0 139 93 210 213 210c127 0 198 -74 198 -235z" />
    <glyph glyph-name="T" unicode="T" horiz-adv-x="433" 
d="M152 0v621h-153v113h436v-113h-153v-621h-130z" />
    <glyph glyph-name="U" unicode="U" horiz-adv-x="511" 
d="M339 270v464h127v-487c0 -161 -49 -259 -214 -259c-172 0 -207 105 -207 264v482h128v-462c0 -128 12 -175 84 -175c65 0 82 44 82 173z" />
    <glyph glyph-name="V" unicode="V" horiz-adv-x="513" 
d="M375 734h133l-165 -734h-167l-170 734h136l116 -596h3z" />
    <glyph glyph-name="W" unicode="W" horiz-adv-x="751" 
d="M623 0h-173l-71 530h-4l-69 -530h-173l-122 734h136l71 -594h4l81 594h153l80 -592h4l68 592h132z" />
    <glyph glyph-name="X" unicode="X" horiz-adv-x="497" 
d="M144 0h-143l156 381l-152 353h141l100 -254h3l93 254h141l-145 -356l158 -378h-143l-107 274h-2z" />
    <glyph glyph-name="Y" unicode="Y" horiz-adv-x="475" 
d="M301 284v-284h-128v281l-174 453h139l101 -313l105 313h132z" />
    <glyph glyph-name="Z" unicode="Z" horiz-adv-x="394" 
d="M23 621v113h349v-104l-209 -517h213v-113h-364v104l212 517h-201z" />
    <glyph glyph-name="a" unicode="a" horiz-adv-x="414" 
d="M399 86l3 -83c-65 -20 -129 -13 -144 49c-16 -35 -53 -64 -112 -64c-100 0 -130 71 -130 142c0 126 92 152 225 172v37c0 64 -15 90 -51 90c-51 0 -48 -45 -44 -92l-111 -7c-19 111 27 202 170 202c158 0 160 -125 160 -243v-172c0 -27 6 -38 34 -31zM241 151v66
c-78 -6 -103 -22 -103 -77c0 -28 11 -60 47 -60c34 0 56 32 56 71z" />
    <glyph glyph-name="b" unicode="b" horiz-adv-x="439" 
d="M146 0h-103v734h123v-272h2c12 31 44 70 105 70c83 0 137 -58 137 -258c0 -207 -58 -283 -152 -283c-49 0 -81 20 -99 49h-2zM163 263c0 -118 10 -173 56 -173c43 0 63 38 63 182c0 137 -23 158 -58 158c-51 0 -61 -70 -61 -167z" />
    <glyph glyph-name="c" unicode="c" horiz-adv-x="410" 
d="M391 333l-113 -6c-2 73 -18 99 -58 99c-48 0 -62 -50 -62 -182c0 -95 10 -152 67 -152c35 0 50 26 53 96l114 -5c-4 -154 -89 -195 -175 -195c-151 0 -189 114 -189 267c0 174 66 277 199 277c120 0 164 -81 164 -199z" />
    <glyph glyph-name="d" unicode="d" horiz-adv-x="435" 
d="M273 734h123v-734h-109l-10 54h-1c-14 -34 -50 -66 -105 -66c-93 0 -142 68 -142 258c0 200 49 286 153 286c48 0 73 -26 89 -53h2v255zM276 257c0 120 -11 173 -56 173c-46 0 -63 -43 -63 -182c0 -132 20 -159 58 -159c54 0 61 73 61 168z" />
    <glyph glyph-name="e" unicode="e" horiz-adv-x="419" 
d="M280 185l111 -5c-4 -154 -90 -192 -173 -192c-152 0 -190 113 -190 268c0 173 66 276 199 276c132 0 179 -108 164 -295h-233c0 -87 10 -145 67 -145c37 0 53 24 55 93zM158 321h109c3 80 -15 109 -51 109c-42 0 -56 -34 -58 -109z" />
    <glyph glyph-name="f" unicode="f" horiz-adv-x="299" 
d="M7 425v95h60v42c0 144 76 185 168 185c34 0 70 -9 85 -14l-16 -94c-16 6 -33 9 -51 9c-42 0 -62 -24 -62 -89v-39h104v-95h-104v-425h-124v425h-60z" />
    <glyph glyph-name="g" unicode="g" horiz-adv-x="435" 
d="M288 520h108v-482c0 -144 -57 -233 -191 -233c-98 0 -159 49 -168 152l118 15c3 -35 11 -67 55 -67c37 0 64 24 64 114v58h-1c-12 -29 -46 -65 -103 -65c-84 0 -141 58 -141 239c0 204 59 281 154 281c48 0 74 -20 93 -56h2zM276 258c0 117 -10 172 -56 172
c-44 0 -63 -39 -63 -181c0 -120 22 -136 58 -136c51 0 61 56 61 145z" />
    <glyph glyph-name="h" unicode="h" horiz-adv-x="439" 
d="M402 363v-363h-123v346c0 50 -8 80 -48 80c-63 0 -65 -69 -65 -155v-271h-123v734h123v-269h2c14 31 47 67 112 67c90 0 122 -58 122 -169z" />
    <glyph glyph-name="i" unicode="i" horiz-adv-x="207" 
d="M43 605v129h125v-129h-125zM43 0v520h125v-520h-125z" />
    <glyph glyph-name="j" unicode="j" horiz-adv-x="206" 
d="M43 605v129h125v-129h-125zM-66 -183l15 93c16 -5 28 -6 41 -6c37 0 54 23 54 88v528h123v-530c0 -145 -73 -185 -159 -185c-29 0 -59 7 -74 12z" />
    <glyph glyph-name="k" unicode="k" horiz-adv-x="436" 
d="M165 734v-406l126 192h139l-138 -185l147 -335h-136l-93 227l-45 -59v-168h-123v734h123z" />
    <glyph glyph-name="l" unicode="l" horiz-adv-x="205" 
d="M164 734v-734h-123v734h123z" />
    <glyph glyph-name="m" unicode="m" horiz-adv-x="655" 
d="M276 532c61 0 93 -30 107 -82h2c12 38 44 82 114 82c90 0 119 -59 119 -169v-363h-124v346c0 53 -9 80 -45 80c-41 0 -56 -37 -56 -101v-325h-125v346c0 53 -8 80 -43 80c-43 0 -58 -44 -58 -115v-311h-124v520h111l3 -69h2c12 32 42 81 117 81z" />
    <glyph glyph-name="n" unicode="n" horiz-adv-x="440" 
d="M403 363v-363h-123v346c0 50 -9 80 -48 80c-63 0 -66 -70 -66 -155v-271h-123v520h111l3 -69h2c12 29 40 81 119 81c93 0 125 -58 125 -169z" />
    <glyph glyph-name="o" unicode="o" horiz-adv-x="430" 
d="M210 -12c-132 0 -182 91 -182 271c0 182 71 273 194 273c132 0 180 -89 180 -263c0 -189 -59 -281 -192 -281zM216 91c49 0 58 53 58 172c0 116 -8 163 -56 163c-49 0 -62 -50 -62 -166c0 -118 8 -169 60 -169z" />
    <glyph glyph-name="p" unicode="p" horiz-adv-x="439" 
d="M166 -183h-123v703h110l4 -57h2c13 30 51 69 113 69c84 0 138 -61 138 -258c0 -210 -55 -286 -146 -286c-50 0 -80 24 -96 52h-2v-223zM163 263c0 -118 11 -173 56 -173c47 0 63 45 63 182c0 134 -21 158 -58 158c-53 0 -61 -70 -61 -167z" />
    <glyph glyph-name="q" unicode="q" horiz-adv-x="435" 
d="M293 520h103v-703h-123v240h-2c-12 -30 -44 -69 -104 -69c-84 0 -139 58 -139 258c0 209 59 286 153 286c49 0 80 -21 99 -53h2zM276 257c0 118 -10 173 -56 173c-44 0 -63 -39 -63 -182c0 -136 21 -159 58 -159c52 0 61 71 61 168z" />
    <glyph glyph-name="r" unicode="r" horiz-adv-x="386" 
d="M376 334l-121 -9c4 66 -1 101 -30 101c-44 0 -59 -70 -59 -173v-253h-123v520h111l3 -70h2c11 30 44 82 114 82c82 0 117 -68 103 -198z" />
    <glyph glyph-name="s" unicode="s" horiz-adv-x="377" 
d="M355 364l-112 -12c0 50 -13 81 -54 81c-26 0 -45 -14 -45 -43c0 -97 217 -60 217 -239c0 -114 -80 -163 -172 -163c-111 0 -171 48 -176 168l119 12c3 -53 16 -85 58 -85c33 0 48 17 48 49c0 99 -215 62 -215 238c0 111 84 162 172 162c100 0 160 -53 160 -168z" />
    <glyph glyph-name="t" unicode="t" horiz-adv-x="314" 
d="M7 425v95h60v99l124 34v-133h104v-95h-104v-253c0 -65 13 -84 56 -84c17 0 37 4 53 9l12 -94c-15 -6 -55 -15 -96 -15c-86 0 -149 33 -149 161v276h-60z" />
    <glyph glyph-name="u" unicode="u" horiz-adv-x="434" 
d="M37 174v346h123v-332c0 -64 8 -94 46 -94c59 0 64 71 64 156v270h123v-520h-106l-8 73h-2c-12 -32 -38 -85 -118 -85c-91 0 -122 58 -122 186z" />
    <glyph glyph-name="v" unicode="v" horiz-adv-x="397" 
d="M282 0h-157l-130 520h140l67 -385h3l66 385h130z" />
    <glyph glyph-name="w" unicode="w" horiz-adv-x="674" 
d="M274 0h-157l-118 520h141l56 -400h3l66 400h156l66 -400h3l55 400h130l-108 -520h-157l-67 389h-2z" />
    <glyph glyph-name="x" unicode="x" horiz-adv-x="446" 
d="M141 0h-138l142 268l-136 252h141l75 -161h4l72 161h134l-132 -257l140 -263h-141l-82 169h-2z" />
    <glyph glyph-name="y" unicode="y" horiz-adv-x="396" 
d="M402 520l-145 -538c-35 -128 -79 -177 -173 -177c-30 0 -66 7 -78 13l15 90c16 -5 32 -8 46 -8c45 0 57 23 73 86l6 23l-150 511h140l68 -367h3l64 367h131z" />
    <glyph glyph-name="z" unicode="z" horiz-adv-x="375" 
d="M28 410v110h326v-101l-186 -309h191v-110h-342v102l191 308h-180z" />
    <glyph glyph-name="bracketleft" unicode="[" horiz-adv-x="305" 
d="M274 -31v-101h-223v915h221v-100l-89 -3v-708z" />
    <glyph glyph-name="bracketright" unicode="]" horiz-adv-x="305" 
d="M31 -132v101l91 3v708l-89 3v100h221v-915h-223z" />
    <glyph glyph-name="parenleft" unicode="(" horiz-adv-x="311" 
d="M202 796l79 -26c-62 -136 -95 -284 -95 -433c0 -161 38 -311 94 -452l-77 -32c-116 152 -162 305 -162 477c0 156 52 320 161 466z" />
    <glyph glyph-name="parenright" unicode=")" horiz-adv-x="311" 
d="M110 -146l-79 27c63 143 94 288 94 436c0 162 -38 309 -95 448l78 33c114 -149 162 -303 162 -475c0 -157 -51 -322 -160 -469z" />
    <glyph glyph-name="braceleft" unicode="{" horiz-adv-x="352" 
d="M122 456v176c0 112 50 143 182 150l7 -49c-51 -14 -58 -36 -58 -82v-182c0 -76 -29 -127 -116 -147v-2c82 -7 116 -55 116 -133v-181c0 -45 5 -69 59 -82l-7 -53c-111 5 -183 31 -183 134v184c0 44 -12 97 -80 98v62c68 9 80 56 80 107z" />
    <glyph glyph-name="braceright" unicode="}" horiz-adv-x="352" 
d="M230 632v-176c0 -51 12 -98 80 -107v-62c-68 -1 -80 -54 -80 -98v-184c0 -103 -72 -129 -183 -134l-7 53c54 13 59 37 59 82v181c0 78 34 126 116 133v2c-87 20 -116 71 -116 147v182c0 46 -7 68 -58 82l7 49c132 -7 182 -38 182 -150z" />
    <glyph glyph-name="backslash" unicode="\" horiz-adv-x="339" 
d="M120 781l227 -851l-113 -32l-229 853z" />
    <glyph glyph-name="slash" unicode="/" horiz-adv-x="378" 
d="M-14 -67l275 848l118 -34l-275 -850z" />
    <glyph glyph-name="brokenbar" unicode="&#xa6;" horiz-adv-x="238" 
d="M56 -240v445h126v-445h-126zM56 760h126v-445h-126v445z" />
    <glyph glyph-name="bar" unicode="|" horiz-adv-x="238" 
d="M56 760h126v-1000h-126v1000z" />
    <glyph glyph-name="asciicircum" unicode="^" horiz-adv-x="444" 
d="M175 755h109l150 -367l-103 -36l-105 266h-2l-111 -266l-103 36z" />
    <glyph glyph-name="underscore" unicode="_" horiz-adv-x="365" 
d="M0 -51h365v-89h-365v89z" />
    <glyph glyph-name="asciitilde" unicode="~" 
d="M141 211l-77 23c13 92 54 119 111 119c25 0 50 -8 82 -21c25 -11 43 -19 61 -19c21 0 32 14 40 45l78 -22c-15 -72 -48 -118 -106 -118c-28 0 -59 13 -89 24c-33 12 -43 16 -57 16c-13 0 -34 -5 -43 -47z" />
    <glyph glyph-name="uni00A0" unicode="&#xa0;" horiz-adv-x="163" 
 />
    <glyph glyph-name="zero" unicode="0" horiz-adv-x="485" 
d="M237 -12c-161 0 -203 128 -203 378c0 251 64 381 218 381c162 0 199 -127 199 -367c0 -260 -53 -392 -214 -392zM243 97c65 0 78 77 78 276c0 192 -14 265 -74 265c-63 0 -82 -77 -82 -269c0 -196 10 -272 78 -272z" />
    <glyph glyph-name="one" unicode="1" horiz-adv-x="325" 
d="M32 537l-24 102c49 21 102 53 152 95h101v-734h-129v590c-20 -15 -55 -34 -100 -53z" />
    <glyph glyph-name="two" unicode="2" horiz-adv-x="414" 
d="M182 114h187v-114h-327c-1 15 -2 32 -2 48c0 30 3 62 10 90c31 158 205 268 205 436c0 39 -12 64 -44 64c-39 0 -56 -28 -44 -140l-118 -8c-18 139 14 257 167 257c111 0 167 -62 167 -174c0 -215 -199 -333 -201 -459z" />
    <glyph glyph-name="three" unicode="3" horiz-adv-x="427" 
d="M140 324l-6 106c94 3 120 35 120 126c0 67 -22 82 -51 82c-40 0 -57 -32 -46 -134l-118 -6c-18 132 13 249 170 249c110 0 175 -63 175 -181c0 -110 -56 -158 -119 -179c95 -23 129 -93 129 -181c0 -146 -65 -218 -184 -218c-148 0 -186 91 -189 232l124 7
c3 -94 17 -128 65 -128c35 0 54 31 54 107c0 100 -37 120 -124 118z" />
    <glyph glyph-name="four" unicode="4" horiz-adv-x="459" 
d="M135 252h120v324h-2zM377 734v-482h67v-113h-67v-139h-122v139h-236v84l199 511h159z" />
    <glyph glyph-name="five" unicode="5" horiz-adv-x="439" 
d="M215 376c-31 0 -56 -20 -67 -61l-100 9l23 410h311v-112h-206l-17 -187c23 28 58 47 101 47c76 0 149 -49 149 -238c0 -178 -68 -256 -197 -256c-126 0 -185 78 -186 230l125 8c2 -101 30 -127 64 -127c45 0 64 48 64 143c0 116 -28 134 -64 134z" />
    <glyph glyph-name="six" unicode="6" horiz-adv-x="460" 
d="M250 638c-50 0 -75 -58 -82 -242c21 35 62 60 111 60c86 0 151 -68 151 -229c0 -175 -82 -239 -189 -239c-155 0 -200 109 -200 341c0 280 60 418 222 418c121 0 170 -73 160 -216l-126 -8c4 82 -9 115 -47 115zM235 356c-42 0 -66 -29 -66 -116c0 -103 29 -143 71 -143
c45 0 61 46 61 130c0 99 -21 129 -66 129z" />
    <glyph glyph-name="seven" unicode="7" horiz-adv-x="362" 
d="M215 0h-148c6 275 75 460 165 620h-225v114h348v-87c-122 -218 -136 -400 -140 -647z" />
    <glyph glyph-name="eight" unicode="8" horiz-adv-x="478" 
d="M236 -12c-149 0 -205 90 -205 207c0 103 37 173 123 205c-74 23 -102 87 -102 156c0 114 67 191 191 191c131 0 182 -75 182 -186c0 -74 -34 -137 -104 -158c88 -25 126 -96 126 -196c0 -128 -60 -219 -211 -219zM240 96c54 0 79 39 79 114c0 89 -18 136 -80 136
c-54 0 -79 -47 -79 -134c0 -74 21 -116 80 -116zM239 452c49 0 57 40 57 109c0 54 -13 91 -57 91s-58 -39 -58 -94c0 -69 12 -106 58 -106z" />
    <glyph glyph-name="nine" unicode="9" horiz-adv-x="460" 
d="M215 97c56 0 76 73 81 242c-22 -35 -58 -60 -106 -60c-87 0 -158 68 -158 219c0 184 82 249 196 249c146 0 194 -109 194 -340c0 -280 -49 -419 -212 -419c-120 0 -183 71 -182 216l125 8c2 -84 22 -115 62 -115zM226 379c43 0 67 30 67 126c0 94 -24 133 -67 133
c-45 0 -65 -46 -65 -131c0 -98 21 -128 65 -128z" />
    <glyph glyph-name="dollar" unicode="$" horiz-adv-x="475" 
d="M436 494l-122 -14c-3 106 -25 137 -76 137c-49 0 -67 -33 -67 -75c0 -157 272 -74 272 -319c0 -120 -61 -188 -146 -208v-80h-126v81c-91 23 -136 96 -141 227l132 15c5 -106 26 -143 82 -143c44 0 66 29 66 82c0 166 -270 77 -270 334c0 96 54 160 131 185v81h126v-75
c89 -19 139 -93 139 -228z" />
    <glyph glyph-name="Euro" unicode="&#x20ac;" horiz-adv-x="508" 
d="M287 94c58 0 71 53 77 124l124 -9c-15 -152 -77 -221 -208 -221c-132 0 -186 85 -201 257h-68l13 87h51v29v31h-50l16 87h40c21 179 94 268 223 268c135 0 180 -98 183 -226l-124 -11c-3 86 -18 127 -68 127s-75 -44 -84 -158h127l-15 -87h-116v-28v-32h116l-13 -87h-101
c7 -109 26 -151 78 -151z" />
    <glyph glyph-name="cent" unicode="&#xa2;" horiz-adv-x="418" 
d="M395 426l-113 -7c-2 74 -17 100 -57 100c-48 0 -63 -50 -63 -182c0 -95 11 -152 68 -152c35 0 50 26 53 96l113 -5c-3 -117 -52 -168 -112 -187v-89h-127v89c-98 29 -124 130 -124 259c0 142 43 236 132 266v81h126v-79c75 -23 105 -94 104 -190z" />
    <glyph glyph-name="sterling" unicode="&#xa3;" horiz-adv-x="434" 
d="M30 314v98h64c-22 40 -43 87 -43 155c0 113 76 180 190 180c124 0 171 -79 171 -188c0 -19 -1 -39 -4 -59l-117 10c1 15 2 28 2 40c0 70 -24 88 -56 88c-30 0 -59 -16 -59 -71c0 -61 27 -107 51 -155h147v-98h-115c1 -8 2 -15 2 -23c0 -55 -24 -106 -88 -178h227v-113
h-360v109c73 70 99 121 99 183c0 7 -1 15 -2 22h-109z" />
    <glyph glyph-name="yen" unicode="&#xa5;" horiz-adv-x="473" 
d="M395 331h-95v-69h95v-90h-95v-172h-128v172h-100v90h100v69h-100v89h66l-138 314h138l100 -278l103 278h132l-141 -314h63v-89z" />
    <glyph glyph-name="florin" unicode="&#x192;" horiz-adv-x="433" 
d="M37 365l18 95h91l19 105c25 142 97 182 198 182c34 0 69 -9 83 -14l-31 -94c-15 6 -33 9 -50 9c-43 0 -67 -24 -78 -89l-18 -99h127l-17 -95h-126l-57 -327c-24 -138 -98 -178 -198 -178c-34 0 -69 9 -83 14l31 94c16 -6 33 -9 50 -9c41 0 66 23 77 83l57 323h-93z" />
    <glyph glyph-name="section" unicode="&#xa7;" horiz-adv-x="553" 
d="M51 243c0 67 37 112 92 154c-35 30 -60 71 -60 135c0 127 97 203 216 203c110 0 191 -52 201 -189l-131 -18c-6 63 -26 96 -77 96c-41 0 -66 -25 -66 -68c0 -141 276 -81 276 -276c0 -61 -36 -122 -86 -163c31 -29 61 -64 61 -139c0 -115 -89 -192 -208 -192
c-113 0 -203 51 -215 193l138 18c6 -55 24 -97 79 -97c42 0 66 26 66 71c0 132 -286 73 -286 272zM179 278c0 -61 81 -77 153 -107c20 14 38 44 38 75c0 61 -79 69 -153 103c-23 -18 -38 -44 -38 -71z" />
    <glyph glyph-name="copyright" unicode="&#xa9;" horiz-adv-x="687" 
d="M650 343c0 -219 -125 -362 -307 -362c-204 0 -306 151 -306 346c0 227 137 362 308 362c189 0 305 -136 305 -346zM345 55c147 0 225 106 225 281c0 183 -87 278 -225 278c-137 0 -226 -103 -226 -285c0 -172 77 -274 226 -274zM421 294l68 -13
c-15 -104 -77 -140 -144 -140c-107 0 -153 80 -153 197c0 114 56 197 160 197c78 0 129 -48 135 -142l-72 -12c-6 55 -21 86 -65 86c-47 0 -76 -36 -76 -135c0 -74 18 -123 73 -123c50 0 64 39 74 85z" />
    <glyph glyph-name="registered" unicode="&#xae;" horiz-adv-x="416" 
d="M387 542c0 -118 -73 -198 -179 -198c-118 0 -178 83 -178 191c0 123 79 199 178 199c110 0 179 -76 179 -192zM329 539c0 94 -46 142 -121 142c-72 0 -118 -52 -118 -145c0 -88 39 -140 118 -140c80 0 121 54 121 143zM242 531l45 -85h-45l-38 76h-17v-76h-41v191h70
c47 0 58 -26 58 -54c0 -26 -10 -44 -32 -52zM187 554h12c22 0 33 4 33 26c0 21 -12 24 -33 24h-12v-50z" />
    <glyph glyph-name="trademark" unicode="&#x2122;" horiz-adv-x="664" 
d="M90 350v309h-80v75h249v-75h-80v-309h-89zM488 350h-65l-63 277v-277h-72v384h107l63 -271l59 271h112v-384h-77v277z" />
    <glyph glyph-name="ordfeminine" unicode="&#xaa;" horiz-adv-x="304" 
d="M291 482l2 -61c-44 -12 -101 -15 -114 30c-11 -21 -35 -40 -75 -40c-69 0 -89 42 -89 86c0 82 68 97 152 109v17c0 29 -7 49 -28 49c-24 0 -26 -19 -22 -46l-89 -5c-13 69 20 126 124 126c111 0 113 -77 113 -149v-96c0 -17 6 -25 26 -20zM167 514v36
c-37 -4 -57 -14 -57 -44c0 -13 6 -28 27 -28c19 0 30 15 30 36z" />
    <glyph glyph-name="ordmasculine" unicode="&#xba;" horiz-adv-x="315" 
d="M153 411c-90 0 -129 53 -129 166c0 114 53 170 138 170c92 0 129 -55 129 -164c0 -118 -46 -172 -138 -172zM157 485c24 0 33 20 33 95c0 72 -9 90 -31 90c-23 0 -35 -19 -35 -92s8 -93 33 -93z" />
    <glyph glyph-name="guillemotleft" unicode="&#xab;" horiz-adv-x="402" 
d="M378 82l-79 -35l-110 204l110 195l80 -32l-77 -161zM217 82l-79 -35l-109 204l110 195l79 -32l-77 -161z" />
    <glyph glyph-name="guillemotright" unicode="&#xbb;" horiz-adv-x="402" 
d="M103 47l-79 35l76 171l-77 161l80 32l110 -195zM264 47l-79 35l76 171l-77 161l79 32l110 -195z" />
    <glyph glyph-name="guilsinglleft" unicode="&#x2039;" horiz-adv-x="242" 
d="M217 82l-79 -35l-109 204l110 195l79 -32l-77 -161z" />
    <glyph glyph-name="guilsinglright" unicode="&#x203a;" horiz-adv-x="241" 
d="M104 47l-79 35l76 171l-77 161l79 32l110 -195z" />
    <glyph glyph-name="quoteleft" unicode="&#x2018;" horiz-adv-x="198" 
d="M166 618v-135h-132v109l69 167l53 -15l-40 -126h50z" />
    <glyph glyph-name="quoteright" unicode="&#x2019;" horiz-adv-x="194" 
d="M28 598v136h132v-109l-69 -167l-53 15l40 125h-50z" />
    <glyph glyph-name="quotesinglbase" unicode="&#x201a;" horiz-adv-x="198" 
d="M38 0v136h132v-110l-70 -166l-53 14l41 126h-50z" />
    <glyph glyph-name="quotedblleft" unicode="&#x201c;" horiz-adv-x="364" 
d="M332 618v-135h-132v109l69 167l53 -15l-40 -126h50zM166 618v-135h-132v109l69 167l53 -15l-40 -126h50z" />
    <glyph glyph-name="quotedblright" unicode="&#x201d;" horiz-adv-x="360" 
d="M194 598v136h132v-109l-69 -167l-53 15l40 125h-50zM28 598v136h132v-109l-69 -167l-53 15l40 125h-50z" />
    <glyph glyph-name="quotedblbase" unicode="&#x201e;" horiz-adv-x="364" 
d="M194 0v136h132v-109l-69 -167l-53 15l40 125h-50zM28 0v136h132v-109l-69 -167l-53 15l40 125h-50z" />
    <glyph glyph-name="dagger" unicode="&#x2020;" horiz-adv-x="366" 
d="M350 523l-115 -10l-15 -231h-76l-14 231l-113 10v74l113 10l12 127h80l13 -127l115 -10v-74z" />
    <glyph glyph-name="daggerdbl" unicode="&#x2021;" horiz-adv-x="366" 
d="M350 355l-115 -11l-14 -83h-76l-14 83l-114 11v73l114 10l13 52l-13 62l-114 11v73l114 11l12 87h80l12 -87l115 -11v-73l-115 -11l-14 -62l14 -52l115 -10v-73z" />
    <glyph glyph-name="bullet" unicode="&#x2022;" horiz-adv-x="404" 
d="M84 340c0 79 52 121 116 121c67 0 120 -42 120 -121c0 -78 -53 -121 -120 -121c-66 0 -116 43 -116 121z" />
    <glyph glyph-name="ellipsis" unicode="&#x2026;" horiz-adv-x="674" 
d="M44 0v143h137v-143h-137zM269 0v143h137v-143h-137zM493 0v143h138v-143h-138z" />
    <glyph glyph-name="paragraph" unicode="&#xb6;" horiz-adv-x="553" 
d="M250 -141v365h-1c-148 0 -204 113 -204 255c0 136 59 254 227 254h81v-874h-103zM395 -140v873h103v-873h-103z" />
    <glyph glyph-name="periodcentered" unicode="&#xb7;" horiz-adv-x="225" 
d="M44 260v142h137v-142h-137z" />
    <glyph glyph-name="uni00AD" unicode="&#xad;" horiz-adv-x="305" 
d="M34 351h237v-89h-237v89z" />
    <glyph glyph-name="endash" unicode="&#x2013;" horiz-adv-x="365" 
d="M0 351h365v-89h-365v89z" />
    <glyph glyph-name="emdash" unicode="&#x2014;" horiz-adv-x="730" 
d="M0 351h730v-89h-730v89z" />
    <glyph glyph-name="hyphen.case" horiz-adv-x="276" 
d="M254 304h-232v94h232v-94z" />
    <glyph glyph-name="Agrave" unicode="&#xc0;" horiz-adv-x="518" 
d="M172 734h168l170 -734h-136l-37 172h-161l-36 -172h-133zM317 289l-59 307h-4l-59 -307h122zM147 841l55 86l156 -111l-35 -55z" />
    <glyph glyph-name="Aacute" unicode="&#xc1;" horiz-adv-x="518" 
d="M172 734h168l170 -734h-136l-37 172h-161l-36 -172h-133zM317 289l-59 307h-4l-59 -307h122zM316 932l53 -91l-176 -79l-34 56z" />
    <glyph glyph-name="Acircumflex" unicode="&#xc2;" horiz-adv-x="518" 
d="M172 734h168l170 -734h-136l-37 172h-161l-36 -172h-133zM317 289l-59 307h-4l-59 -307h122zM223 917h66l113 -113l-37 -45l-110 71l-109 -71l-37 45z" />
    <glyph glyph-name="Atilde" unicode="&#xc3;" horiz-adv-x="518" 
d="M172 734h168l170 -734h-136l-37 172h-161l-36 -172h-133zM317 289l-59 307h-4l-59 -307h122zM182 780l-54 7c10 70 37 108 80 108c36 0 69 -26 93 -26c11 0 23 5 30 36l54 -7c-12 -74 -34 -112 -82 -112c-41 0 -72 24 -93 24c-11 0 -22 -4 -28 -30z" />
    <glyph glyph-name="Adieresis" unicode="&#xc4;" horiz-adv-x="518" 
d="M172 734h168l170 -734h-136l-37 172h-161l-36 -172h-133zM317 289l-59 307h-4l-59 -307h122zM283 779v112h94v-112h-94zM135 779v112h94v-112h-94z" />
    <glyph glyph-name="Aring" unicode="&#xc5;" horiz-adv-x="518" 
d="M172 734h168l170 -734h-136l-37 172h-161l-36 -172h-133zM317 289l-59 307h-4l-59 -307h122zM253 762c-69 0 -97 33 -97 87s40 87 101 87c65 0 96 -32 96 -84c0 -57 -34 -90 -100 -90zM255 808c15 0 27 11 27 42s-12 40 -26 40c-17 0 -30 -8 -30 -41c0 -32 11 -41 29 -41
z" />
    <glyph glyph-name="Aringacute" unicode="&#x1fa;" horiz-adv-x="518" 
d="M140 0h-133l165 733c-10 14 -14 32 -14 54c0 54 40 87 101 87c65 0 96 -32 96 -84c0 -23 -5 -42 -15 -56l170 -734h-136l-37 172h-161zM317 289l-59 307h-4l-59 -307h122zM312 1054l53 -91l-176 -79l-34 56zM257 746c15 0 27 11 27 42s-12 40 -26 40
c-17 0 -30 -8 -30 -41c0 -32 11 -41 29 -41z" />
    <glyph glyph-name="AE" unicode="&#xc6;" horiz-adv-x="715" 
d="M654 418v-106h-187v-199h227v-113h-357v312h-121l-76 -312h-133l192 734h477v-113h-209v-203h187zM289 621l-51 -203h99v203h-48z" />
    <glyph glyph-name="AEacute" unicode="&#x1fc;" horiz-adv-x="715" 
d="M503 932l53 -91l-176 -79l-34 56zM654 418v-106h-187v-199h227v-113h-357v312h-121l-76 -312h-133l192 734h477v-113h-209v-203h187zM289 621l-51 -203h99v203h-48z" />
    <glyph glyph-name="Ccedilla" unicode="&#xc7;" horiz-adv-x="487" 
d="M195 -85l29 74c-143 11 -190 134 -190 372c0 258 78 386 240 386c138 0 193 -97 190 -268l-126 -10c-1 130 -21 168 -74 168c-66 0 -93 -72 -93 -273c0 -196 19 -270 87 -270c58 0 72 60 74 160l126 -9c-5 -171 -61 -245 -179 -256l-16 -36c9 4 15 5 25 5
c48 0 73 -37 73 -85c0 -62 -43 -93 -101 -93c-36 0 -76 14 -100 61l47 29c15 -25 29 -30 42 -30c19 0 29 11 29 35s-9 35 -23 35c-8 0 -15 -3 -22 -10z" />
    <glyph glyph-name="Egrave" unicode="&#xc8;" horiz-adv-x="429" 
d="M106 841l55 86l156 -111l-35 -55zM368 428v-106h-188v-209h228v-113h-358v734h340v-113h-210v-193h188z" />
    <glyph glyph-name="Eacute" unicode="&#xc9;" horiz-adv-x="429" 
d="M283 932l53 -91l-176 -79l-34 56zM368 428v-106h-188v-209h228v-113h-358v734h340v-113h-210v-193h188z" />
    <glyph glyph-name="Ecircumflex" unicode="&#xca;" horiz-adv-x="429" 
d="M368 428v-106h-188v-209h228v-113h-358v734h340v-113h-210v-193h188zM187 917h66l113 -113l-37 -45l-110 71l-109 -71l-37 45z" />
    <glyph glyph-name="Edieresis" unicode="&#xcb;" horiz-adv-x="429" 
d="M247 779v112h94v-112h-94zM99 779v112h94v-112h-94zM368 428v-106h-188v-209h228v-113h-358v734h340v-113h-210v-193h188z" />
    <glyph glyph-name="Igrave" unicode="&#xcc;" horiz-adv-x="311" 
d="M220 635v-536h63v-99h-255v99h62v536h-61v99h253v-99h-62zM37 841l55 86l156 -111l-35 -55z" />
    <glyph glyph-name="Iacute" unicode="&#xcd;" horiz-adv-x="311" 
d="M220 635v-536h63v-99h-255v99h62v536h-61v99h253v-99h-62zM212 932l53 -91l-176 -79l-34 56z" />
    <glyph glyph-name="Icircumflex" unicode="&#xce;" horiz-adv-x="311" 
d="M220 635v-536h63v-99h-255v99h62v536h-61v99h253v-99h-62zM121 917h66l113 -113l-37 -45l-110 71l-109 -71l-37 45z" />
    <glyph glyph-name="Idieresis" unicode="&#xcf;" horiz-adv-x="311" 
d="M220 635v-536h63v-99h-255v99h62v536h-61v99h253v-99h-62zM182 779v112h94v-112h-94zM34 779v112h94v-112h-94z" />
    <glyph glyph-name="Eth" unicode="&#xd0;" horiz-adv-x="527" 
d="M202 0h-134v313h-52v106h52v315h135c228 0 290 -114 290 -354c0 -263 -61 -380 -291 -380zM198 110h23c102 0 136 60 136 263c0 191 -35 252 -139 252h-20v-206h106v-106h-106v-203z" />
    <glyph glyph-name="Ntilde" unicode="&#xd1;" horiz-adv-x="546" 
d="M208 780l-54 7c10 70 37 108 80 108c36 0 69 -26 93 -26c11 0 23 5 30 36l54 -7c-12 -74 -34 -112 -82 -112c-41 0 -72 24 -93 24c-11 0 -22 -4 -28 -30zM496 0h-146l-176 498l-3 -1v-497h-121v734h156l167 -492l3 1v491h120v-734z" />
    <glyph glyph-name="Ograve" unicode="&#xd2;" horiz-adv-x="514" 
d="M144 841l55 86l156 -111l-35 -55zM251 -12c-168 0 -217 128 -217 378c0 251 72 381 233 381c169 0 213 -127 213 -367c0 -260 -60 -392 -229 -392zM258 96c70 0 86 78 86 277c0 191 -16 261 -82 261c-69 0 -91 -73 -91 -265c0 -195 14 -273 87 -273z" />
    <glyph glyph-name="Oacute" unicode="&#xd3;" horiz-adv-x="514" 
d="M325 932l53 -91l-176 -79l-34 56zM251 -12c-168 0 -217 128 -217 378c0 251 72 381 233 381c169 0 213 -127 213 -367c0 -260 -60 -392 -229 -392zM258 96c70 0 86 78 86 277c0 191 -16 261 -82 261c-69 0 -91 -73 -91 -265c0 -195 14 -273 87 -273z" />
    <glyph glyph-name="Ocircumflex" unicode="&#xd4;" horiz-adv-x="514" 
d="M251 -12c-168 0 -217 128 -217 378c0 251 72 381 233 381c169 0 213 -127 213 -367c0 -260 -60 -392 -229 -392zM258 96c70 0 86 78 86 277c0 191 -16 261 -82 261c-69 0 -91 -73 -91 -265c0 -195 14 -273 87 -273zM229 917h66l113 -113l-37 -45l-110 71l-109 -71l-37 45
z" />
    <glyph glyph-name="Otilde" unicode="&#xd5;" horiz-adv-x="514" 
d="M187 780l-54 7c10 70 37 108 80 108c36 0 69 -26 93 -26c11 0 23 5 30 36l54 -7c-12 -74 -34 -112 -82 -112c-41 0 -72 24 -93 24c-11 0 -22 -4 -28 -30zM251 -12c-168 0 -217 128 -217 378c0 251 72 381 233 381c169 0 213 -127 213 -367c0 -260 -60 -392 -229 -392z
M258 96c70 0 86 78 86 277c0 191 -16 261 -82 261c-69 0 -91 -73 -91 -265c0 -195 14 -273 87 -273z" />
    <glyph glyph-name="Odieresis" unicode="&#xd6;" horiz-adv-x="514" 
d="M289 779v112h94v-112h-94zM141 779v112h94v-112h-94zM251 -12c-168 0 -217 128 -217 378c0 251 72 381 233 381c169 0 213 -127 213 -367c0 -260 -60 -392 -229 -392zM258 96c70 0 86 78 86 277c0 191 -16 261 -82 261c-69 0 -91 -73 -91 -265c0 -195 14 -273 87 -273z
" />
    <glyph glyph-name="Oslash" unicode="&#xd8;" horiz-adv-x="514" 
d="M251 -12c-26 0 -49 3 -69 9l-21 -65l-84 27l28 86c-53 60 -71 167 -71 321c0 251 72 381 233 381c25 0 48 -3 68 -9l24 71l83 -25l-31 -93c52 -59 69 -164 69 -311c0 -260 -60 -392 -229 -392zM171 369c0 -46 1 -85 3 -118l123 373c-10 7 -21 10 -35 10
c-69 0 -91 -73 -91 -265zM257 96c71 0 87 78 87 277c0 40 -1 76 -3 106l-122 -373c10 -7 23 -10 38 -10z" />
    <glyph glyph-name="Oslashacute" unicode="&#x1fe;" horiz-adv-x="514" 
d="M325 954l53 -91l-176 -79l-34 56zM251 -12c-26 0 -49 3 -69 9l-21 -65l-84 27l28 86c-53 60 -71 167 -71 321c0 251 72 381 233 381c25 0 48 -3 68 -9l24 71l83 -25l-31 -93c52 -59 69 -164 69 -311c0 -260 -60 -392 -229 -392zM171 369c0 -46 1 -85 3 -118l123 373
c-10 7 -21 10 -35 10c-69 0 -91 -73 -91 -265zM257 96c71 0 87 78 87 277c0 40 -1 76 -3 106l-122 -373c10 -7 23 -10 38 -10z" />
    <glyph glyph-name="Ugrave" unicode="&#xd9;" horiz-adv-x="511" 
d="M139 841l55 86l156 -111l-35 -55zM339 270v464h127v-487c0 -161 -49 -259 -214 -259c-172 0 -207 105 -207 264v482h128v-462c0 -128 12 -175 84 -175c65 0 82 44 82 173z" />
    <glyph glyph-name="Uacute" unicode="&#xda;" horiz-adv-x="511" 
d="M320 932l53 -91l-176 -79l-34 56zM339 270v464h127v-487c0 -161 -49 -259 -214 -259c-172 0 -207 105 -207 264v482h128v-462c0 -128 12 -175 84 -175c65 0 82 44 82 173z" />
    <glyph glyph-name="Ucircumflex" unicode="&#xdb;" horiz-adv-x="511" 
d="M339 270v464h127v-487c0 -161 -49 -259 -214 -259c-172 0 -207 105 -207 264v482h128v-462c0 -128 12 -175 84 -175c65 0 82 44 82 173zM224 917h66l113 -113l-37 -45l-110 71l-109 -71l-37 45z" />
    <glyph glyph-name="Udieresis" unicode="&#xdc;" horiz-adv-x="511" 
d="M284 779v112h94v-112h-94zM136 779v112h94v-112h-94zM339 270v464h127v-487c0 -161 -49 -259 -214 -259c-172 0 -207 105 -207 264v482h128v-462c0 -128 12 -175 84 -175c65 0 82 44 82 173z" />
    <glyph glyph-name="Yacute" unicode="&#xdd;" horiz-adv-x="475" 
d="M301 284v-284h-128v281l-174 453h139l101 -313l105 313h132zM304 932l53 -91l-176 -79l-34 56z" />
    <glyph glyph-name="Thorn" unicode="&#xde;" horiz-adv-x="470" 
d="M180 143v-143h-130v734h130v-129h43c158 0 230 -70 230 -214c0 -137 -49 -248 -241 -248h-32zM180 252h28c78 0 113 35 113 131c0 86 -41 110 -93 110h-48v-241z" />
    <glyph glyph-name="germandbls" unicode="&#xdf;" horiz-adv-x="544" 
d="M168 490v-490h-124v497c0 174 85 250 229 250c142 0 197 -77 197 -183c0 -53 -19 -109 -28 -132c-11 3 -21 4 -30 4c-34 0 -64 -14 -64 -52c0 -31 22 -49 52 -66c52 -31 125 -61 125 -167c0 -96 -50 -163 -156 -163c-111 0 -166 59 -169 170l116 11c5 -49 12 -85 53 -85
c29 0 38 21 38 49c0 45 -36 64 -75 86c-48 27 -103 59 -103 145c0 90 60 130 119 143c3 9 5 38 5 56c0 51 -21 87 -83 87c-83 0 -102 -61 -102 -160z" />
    <glyph glyph-name="agrave" unicode="&#xe0;" horiz-adv-x="414" 
d="M399 86l3 -83c-65 -20 -129 -13 -144 49c-16 -35 -53 -64 -112 -64c-100 0 -130 71 -130 142c0 126 92 152 225 172v37c0 64 -15 90 -51 90c-51 0 -48 -45 -44 -92l-111 -7c-19 111 27 202 170 202c158 0 160 -125 160 -243v-172c0 -27 6 -38 34 -31zM241 151v66
c-78 -6 -103 -22 -103 -77c0 -28 11 -60 47 -60c34 0 56 32 56 71zM88 699l85 65l107 -159l-53 -40z" />
    <glyph glyph-name="aacute" unicode="&#xe1;" horiz-adv-x="414" 
d="M399 86l3 -83c-65 -20 -129 -13 -144 49c-16 -35 -53 -64 -112 -64c-100 0 -130 71 -130 142c0 126 92 152 225 172v37c0 64 -15 90 -51 90c-51 0 -48 -45 -44 -92l-111 -7c-19 111 27 202 170 202c158 0 160 -125 160 -243v-172c0 -27 6 -38 34 -31zM241 151v66
c-78 -6 -103 -22 -103 -77c0 -28 11 -60 47 -60c34 0 56 32 56 71zM237 763l81 -63l-136 -137l-52 42z" />
    <glyph glyph-name="acircumflex" unicode="&#xe2;" horiz-adv-x="414" 
d="M399 86l3 -83c-65 -20 -129 -13 -144 49c-16 -35 -53 -64 -112 -64c-100 0 -130 71 -130 142c0 126 92 152 225 172v37c0 64 -15 90 -51 90c-51 0 -48 -45 -44 -92l-111 -7c-19 111 27 202 170 202c158 0 160 -125 160 -243v-172c0 -27 6 -38 34 -31zM241 151v66
c-78 -6 -103 -22 -103 -77c0 -28 11 -60 47 -60c34 0 56 32 56 71zM167 746h69l100 -143l-49 -38l-85 86l-86 -86l-47 37z" />
    <glyph glyph-name="atilde" unicode="&#xe3;" horiz-adv-x="414" 
d="M399 86l3 -83c-65 -20 -129 -13 -144 49c-16 -35 -53 -64 -112 -64c-100 0 -130 71 -130 142c0 126 92 152 225 172v37c0 64 -15 90 -51 90c-51 0 -48 -45 -44 -92l-111 -7c-19 111 27 202 170 202c158 0 160 -125 160 -243v-172c0 -27 6 -38 34 -31zM241 151v66
c-78 -6 -103 -22 -103 -77c0 -28 11 -60 47 -60c34 0 56 32 56 71zM128 602l-54 7c10 70 37 108 80 108c36 0 68 -26 92 -26c11 0 23 5 30 36l54 -7c-13 -74 -34 -112 -81 -112c-41 0 -73 24 -93 24c-11 0 -22 -4 -28 -30z" />
    <glyph glyph-name="adieresis" unicode="&#xe4;" horiz-adv-x="414" 
d="M399 86l3 -83c-65 -20 -129 -13 -144 49c-16 -35 -53 -64 -112 -64c-100 0 -130 71 -130 142c0 126 92 152 225 172v37c0 64 -15 90 -51 90c-51 0 -48 -45 -44 -92l-111 -7c-19 111 27 202 170 202c158 0 160 -125 160 -243v-172c0 -27 6 -38 34 -31zM241 151v66
c-78 -6 -103 -22 -103 -77c0 -28 11 -60 47 -60c34 0 56 32 56 71zM228 604v112h95v-112h-95zM81 604v112h95v-112h-95z" />
    <glyph glyph-name="aring" unicode="&#xe5;" horiz-adv-x="414" 
d="M399 86l3 -83c-65 -20 -129 -13 -144 49c-16 -35 -53 -64 -112 -64c-100 0 -130 71 -130 142c0 126 92 152 225 172v37c0 64 -15 90 -51 90c-51 0 -48 -45 -44 -92l-111 -7c-19 111 27 202 170 202c158 0 160 -125 160 -243v-172c0 -27 6 -38 34 -31zM241 151v66
c-78 -6 -103 -22 -103 -77c0 -28 11 -60 47 -60c34 0 56 32 56 71zM200 579c-69 0 -97 33 -97 87s40 87 101 87c65 0 96 -32 96 -84c0 -57 -34 -90 -100 -90zM202 625c15 0 27 11 27 42c0 30 -12 40 -26 40c-17 0 -30 -8 -30 -41c0 -32 11 -41 29 -41z" />
    <glyph glyph-name="aringacute" unicode="&#x1fb;" horiz-adv-x="414" 
d="M399 86l3 -83c-65 -20 -129 -13 -144 49c-16 -35 -53 -64 -112 -64c-100 0 -130 71 -130 142c0 126 92 152 225 172v37c0 64 -15 90 -51 90c-51 0 -48 -45 -44 -92l-111 -7c-19 111 27 202 170 202c158 0 160 -125 160 -243v-172c0 -27 6 -38 34 -31zM241 151v66
c-78 -6 -103 -22 -103 -77c0 -28 11 -60 47 -60c34 0 56 32 56 71zM200 573c-69 0 -97 33 -97 87s40 87 101 87c65 0 96 -32 96 -84c0 -57 -34 -90 -100 -90zM202 619c15 0 27 11 27 42c0 30 -12 40 -26 40c-17 0 -30 -8 -30 -41c0 -32 11 -41 29 -41zM260 932l53 -91
l-176 -79l-34 56z" />
    <glyph glyph-name="ae" unicode="&#xe6;" horiz-adv-x="626" 
d="M487 185l111 -5c-4 -154 -90 -192 -174 -192c-79 0 -113 30 -138 84c-28 -59 -83 -84 -140 -84c-100 0 -130 71 -130 142c0 126 92 152 225 172v37c0 64 -15 90 -51 90c-51 0 -48 -45 -44 -92l-111 -7c-19 111 28 202 166 202c55 0 89 -22 113 -53c29 34 73 53 120 53
c132 0 179 -106 164 -293h-233c0 -88 10 -147 67 -147c36 0 52 25 55 93zM365 321h109c1 76 -15 106 -51 106c-42 0 -56 -38 -58 -106zM241 151v66c-77 -6 -103 -22 -103 -77c0 -34 13 -59 48 -59s55 33 55 70z" />
    <glyph glyph-name="aeacute" unicode="&#x1fd;" horiz-adv-x="626" 
d="M347 763l81 -63l-136 -137l-52 42zM487 185l111 -5c-4 -154 -90 -192 -174 -192c-79 0 -113 30 -138 84c-28 -59 -83 -84 -140 -84c-100 0 -130 71 -130 142c0 126 92 152 225 172v37c0 64 -15 90 -51 90c-51 0 -48 -45 -44 -92l-111 -7c-19 111 28 202 166 202
c55 0 89 -22 113 -53c29 34 73 53 120 53c132 0 179 -106 164 -293h-233c0 -88 10 -147 67 -147c36 0 52 25 55 93zM365 321h109c1 76 -15 106 -51 106c-42 0 -56 -38 -58 -106zM241 151v66c-77 -6 -103 -22 -103 -77c0 -34 13 -59 48 -59s55 33 55 70z" />
    <glyph glyph-name="ccedilla" unicode="&#xe7;" horiz-adv-x="410" 
d="M151 -85l30 76c-121 16 -153 124 -153 264c0 174 66 277 199 277c120 0 164 -81 164 -199l-113 -6c-2 73 -18 99 -58 99c-48 0 -62 -50 -62 -182c0 -95 10 -152 67 -152c35 0 50 26 53 96l114 -5c-4 -144 -78 -189 -157 -194l-16 -36c9 4 15 5 25 5c48 0 73 -37 73 -85
c0 -62 -43 -93 -101 -93c-36 0 -76 14 -100 61l47 29c15 -25 29 -30 42 -30c19 0 29 11 29 35s-9 35 -23 35c-8 0 -15 -3 -22 -10z" />
    <glyph glyph-name="egrave" unicode="&#xe8;" horiz-adv-x="419" 
d="M280 185l111 -5c-4 -154 -90 -192 -173 -192c-152 0 -190 113 -190 268c0 173 66 276 199 276c132 0 179 -108 164 -295h-233c0 -87 10 -145 67 -145c37 0 53 24 55 93zM158 321h109c3 80 -15 109 -51 109c-42 0 -56 -34 -58 -109zM111 699l85 65l107 -159l-53 -40z" />
    <glyph glyph-name="eacute" unicode="&#xe9;" horiz-adv-x="419" 
d="M260 763l81 -63l-136 -137l-52 42zM280 185l111 -5c-4 -154 -90 -192 -173 -192c-152 0 -190 113 -190 268c0 173 66 276 199 276c132 0 179 -108 164 -295h-233c0 -87 10 -145 67 -145c37 0 53 24 55 93zM158 321h109c3 80 -15 109 -51 109c-42 0 -56 -34 -58 -109z" />
    <glyph glyph-name="ecircumflex" unicode="&#xea;" horiz-adv-x="419" 
d="M190 746h69l100 -143l-49 -38l-85 86l-86 -86l-47 37zM280 185l111 -5c-4 -154 -90 -192 -173 -192c-152 0 -190 113 -190 268c0 173 66 276 199 276c132 0 179 -108 164 -295h-233c0 -87 10 -145 67 -145c37 0 53 24 55 93zM158 321h109c3 80 -15 109 -51 109
c-42 0 -56 -34 -58 -109z" />
    <glyph glyph-name="edieresis" unicode="&#xeb;" horiz-adv-x="419" 
d="M251 604v112h95v-112h-95zM104 604v112h95v-112h-95zM280 185l111 -5c-4 -154 -90 -192 -173 -192c-152 0 -190 113 -190 268c0 173 66 276 199 276c132 0 179 -108 164 -295h-233c0 -87 10 -145 67 -145c37 0 53 24 55 93zM158 321h109c3 80 -15 109 -51 109
c-42 0 -56 -34 -58 -109z" />
    <glyph glyph-name="igrave" unicode="&#xec;" horiz-adv-x="207" 
d="M43 0v520h125v-520h-125zM-9 699l85 65l107 -159l-53 -40z" />
    <glyph glyph-name="iacute" unicode="&#xed;" horiz-adv-x="207" 
d="M140 763l81 -63l-136 -137l-52 42zM43 0v520h125v-520h-125z" />
    <glyph glyph-name="icircumflex" unicode="&#xee;" horiz-adv-x="207" 
d="M70 746h69l100 -143l-49 -38l-85 86l-86 -86l-47 37zM43 0v520h125v-520h-125z" />
    <glyph glyph-name="idieresis" unicode="&#xef;" horiz-adv-x="207" 
d="M131 604v112h95v-112h-95zM-16 604v112h95v-112h-95zM43 0v520h125v-520h-125z" />
    <glyph glyph-name="eth" unicode="&#xf0;" horiz-adv-x="431" 
d="M382 655l-72 -25c60 -99 92 -210 92 -358c0 -192 -59 -284 -192 -284c-132 0 -182 91 -182 271c0 119 38 268 163 268c27 0 45 -7 60 -19l2 2c-11 26 -27 55 -44 82l-95 -32l-26 76l75 25l-43 57l109 23l35 -44l91 34zM216 91c49 0 58 53 58 172c0 113 -8 163 -56 163
c-49 0 -62 -50 -62 -166c0 -118 8 -169 60 -169z" />
    <glyph glyph-name="ntilde" unicode="&#xf1;" horiz-adv-x="440" 
d="M403 363v-363h-123v346c0 50 -9 80 -48 80c-63 0 -66 -70 -66 -155v-271h-123v520h111l3 -69h2c12 29 40 81 119 81c93 0 125 -58 125 -169zM152 602l-54 7c10 70 37 108 80 108c36 0 68 -26 92 -26c11 0 23 5 30 36l54 -7c-13 -74 -34 -112 -81 -112
c-41 0 -73 24 -93 24c-11 0 -22 -4 -28 -30z" />
    <glyph glyph-name="ograve" unicode="&#xf2;" horiz-adv-x="430" 
d="M210 -12c-132 0 -182 91 -182 271c0 182 71 273 194 273c132 0 180 -89 180 -263c0 -189 -59 -281 -192 -281zM216 91c49 0 58 53 58 172c0 116 -8 163 -56 163c-49 0 -62 -50 -62 -166c0 -118 8 -169 60 -169zM107 699l85 65l107 -159l-53 -40z" />
    <glyph glyph-name="oacute" unicode="&#xf3;" horiz-adv-x="430" 
d="M256 763l81 -63l-136 -137l-52 42zM210 -12c-132 0 -182 91 -182 271c0 182 71 273 194 273c132 0 180 -89 180 -263c0 -189 -59 -281 -192 -281zM216 91c49 0 58 53 58 172c0 116 -8 163 -56 163c-49 0 -62 -50 -62 -166c0 -118 8 -169 60 -169z" />
    <glyph glyph-name="ocircumflex" unicode="&#xf4;" horiz-adv-x="430" 
d="M186 746h69l100 -143l-49 -38l-85 86l-86 -86l-47 37zM210 -12c-132 0 -182 91 -182 271c0 182 71 273 194 273c132 0 180 -89 180 -263c0 -189 -59 -281 -192 -281zM216 91c49 0 58 53 58 172c0 116 -8 163 -56 163c-49 0 -62 -50 -62 -166c0 -118 8 -169 60 -169z" />
    <glyph glyph-name="otilde" unicode="&#xf5;" horiz-adv-x="430" 
d="M210 -12c-132 0 -182 91 -182 271c0 182 71 273 194 273c132 0 180 -89 180 -263c0 -189 -59 -281 -192 -281zM216 91c49 0 58 53 58 172c0 116 -8 163 -56 163c-49 0 -62 -50 -62 -166c0 -118 8 -169 60 -169zM147 602l-54 7c10 70 37 108 80 108c36 0 68 -26 92 -26
c11 0 23 5 30 36l54 -7c-13 -74 -34 -112 -81 -112c-41 0 -73 24 -93 24c-11 0 -22 -4 -28 -30z" />
    <glyph glyph-name="odieresis" unicode="&#xf6;" horiz-adv-x="430" 
d="M247 604v112h95v-112h-95zM100 604v112h95v-112h-95zM210 -12c-132 0 -182 91 -182 271c0 182 71 273 194 273c132 0 180 -89 180 -263c0 -189 -59 -281 -192 -281zM216 91c49 0 58 53 58 172c0 116 -8 163 -56 163c-49 0 -62 -50 -62 -166c0 -118 8 -169 60 -169z" />
    <glyph glyph-name="oslash" unicode="&#xf8;" horiz-adv-x="430" 
d="M210 -12c-22 0 -41 3 -59 8l-25 -64l-67 28l29 72c-42 44 -60 120 -60 227c0 182 71 273 194 273c24 0 45 -3 64 -9l24 60l68 -26l-30 -74c38 -43 54 -115 54 -214c0 -189 -59 -281 -192 -281zM156 260c0 -21 0 -40 1 -57l87 216c-7 4 -16 7 -26 7
c-49 0 -62 -50 -62 -166zM216 91c49 0 58 53 58 172v35l-82 -202c7 -4 14 -5 24 -5z" />
    <glyph glyph-name="oslashacute" unicode="&#x1ff;" horiz-adv-x="430" 
d="M256 763l81 -63l-136 -137l-52 42zM210 -12c-22 0 -41 3 -59 8l-25 -64l-67 28l29 72c-42 44 -60 120 -60 227c0 182 71 273 194 273c24 0 45 -3 64 -9l24 60l68 -26l-30 -74c38 -43 54 -115 54 -214c0 -189 -59 -281 -192 -281zM156 260c0 -21 0 -40 1 -57l87 216
c-7 4 -16 7 -26 7c-49 0 -62 -50 -62 -166zM216 91c49 0 58 53 58 172v35l-82 -202c7 -4 14 -5 24 -5z" />
    <glyph glyph-name="ugrave" unicode="&#xf9;" horiz-adv-x="434" 
d="M37 174v346h123v-332c0 -64 8 -94 46 -94c59 0 64 71 64 156v270h123v-520h-106l-8 73h-2c-12 -32 -38 -85 -118 -85c-91 0 -122 58 -122 186zM102 699l85 65l107 -159l-53 -40z" />
    <glyph glyph-name="uacute" unicode="&#xfa;" horiz-adv-x="434" 
d="M251 763l81 -63l-136 -137l-52 42zM37 174v346h123v-332c0 -64 8 -94 46 -94c59 0 64 71 64 156v270h123v-520h-106l-8 73h-2c-12 -32 -38 -85 -118 -85c-91 0 -122 58 -122 186z" />
    <glyph glyph-name="ucircumflex" unicode="&#xfb;" horiz-adv-x="434" 
d="M181 746h69l100 -143l-49 -38l-85 86l-86 -86l-47 37zM37 174v346h123v-332c0 -64 8 -94 46 -94c59 0 64 71 64 156v270h123v-520h-106l-8 73h-2c-12 -32 -38 -85 -118 -85c-91 0 -122 58 -122 186z" />
    <glyph glyph-name="udieresis" unicode="&#xfc;" horiz-adv-x="434" 
d="M242 604v112h95v-112h-95zM95 604v112h95v-112h-95zM37 174v346h123v-332c0 -64 8 -94 46 -94c59 0 64 71 64 156v270h123v-520h-106l-8 73h-2c-12 -32 -38 -85 -118 -85c-91 0 -122 58 -122 186z" />
    <glyph glyph-name="yacute" unicode="&#xfd;" horiz-adv-x="396" 
d="M402 520l-145 -538c-35 -128 -79 -177 -173 -177c-30 0 -66 7 -78 13l15 90c16 -5 32 -8 46 -8c45 0 57 23 73 86l6 23l-150 511h140l68 -367h3l64 367h131zM239 763l81 -63l-136 -137l-52 42z" />
    <glyph glyph-name="thorn" unicode="&#xfe;" horiz-adv-x="439" 
d="M273 532c81 0 137 -59 137 -258c0 -210 -55 -286 -147 -286c-49 0 -79 24 -95 52h-2v-223h-123v917h123v-272h2c13 32 45 70 105 70zM224 430c-51 0 -61 -70 -61 -167c0 -118 10 -173 56 -173c47 0 63 45 63 182c0 134 -21 158 -58 158z" />
    <glyph glyph-name="ydieresis" unicode="&#xff;" horiz-adv-x="396" 
d="M402 520l-145 -538c-35 -128 -79 -177 -173 -177c-30 0 -66 7 -78 13l15 90c16 -5 32 -8 46 -8c45 0 57 23 73 86l6 23l-150 511h140l68 -367h3l64 367h131zM230 604v112h95v-112h-95zM83 604v112h95v-112h-95z" />
    <glyph glyph-name="Amacron" unicode="&#x100;" horiz-adv-x="518" 
d="M172 734h168l170 -734h-136l-37 172h-161l-36 -172h-133zM317 289l-59 307h-4l-59 -307h122zM131 791v90h250v-90h-250z" />
    <glyph glyph-name="amacron" unicode="&#x101;" horiz-adv-x="414" 
d="M399 86l3 -83c-65 -20 -129 -13 -144 49c-16 -35 -53 -64 -112 -64c-100 0 -130 71 -130 142c0 126 92 152 225 172v37c0 64 -15 90 -51 90c-51 0 -48 -45 -44 -92l-111 -7c-19 111 27 202 170 202c158 0 160 -125 160 -243v-172c0 -27 6 -38 34 -31zM241 151v66
c-78 -6 -103 -22 -103 -77c0 -28 11 -60 47 -60c34 0 56 32 56 71zM78 610v89h248v-89h-248z" />
    <glyph glyph-name="Abreve" unicode="&#x102;" horiz-adv-x="518" 
d="M172 734h168l170 -734h-136l-37 172h-161l-36 -172h-133zM317 289l-59 307h-4l-59 -307h122zM124 896l59 12c7 -47 38 -61 73 -61c32 0 62 13 76 62l58 -12c-9 -83 -60 -131 -138 -131c-73 0 -122 41 -128 130z" />
    <glyph glyph-name="abreve" unicode="&#x103;" horiz-adv-x="414" 
d="M399 86l3 -83c-65 -20 -129 -13 -144 49c-16 -35 -53 -64 -112 -64c-100 0 -130 71 -130 142c0 126 92 152 225 172v37c0 64 -15 90 -51 90c-51 0 -48 -45 -44 -92l-111 -7c-19 111 27 202 170 202c158 0 160 -125 160 -243v-172c0 -27 6 -38 34 -31zM241 151v66
c-78 -6 -103 -22 -103 -77c0 -28 11 -60 47 -60c34 0 56 32 56 71zM75 729l58 7c7 -55 33 -74 69 -74c32 0 58 18 72 75l57 -7c-8 -92 -55 -148 -133 -148c-74 0 -118 49 -123 147z" />
    <glyph glyph-name="Aogonek" unicode="&#x104;" horiz-adv-x="518" 
d="M172 734h168l170 -734h-40c-21 -27 -43 -67 -43 -96c0 -16 7 -24 20 -24c12 0 24 9 35 26l44 -37c-23 -39 -62 -64 -112 -64c-45 0 -79 22 -79 67c0 50 41 98 74 128h-35l-37 172h-161l-36 -172h-133zM317 289l-59 307h-4l-59 -307h122z" />
    <glyph glyph-name="aogonek" unicode="&#x105;" horiz-adv-x="414" 
d="M399 86l3 -83c-49 -7 -88 -57 -88 -99c0 -16 7 -24 20 -24c12 0 24 9 35 26l44 -37c-23 -39 -62 -64 -112 -64c-45 0 -79 22 -79 67c0 50 42 99 76 129c-20 9 -34 25 -40 51c-16 -35 -53 -64 -112 -64c-100 0 -130 71 -130 142c0 126 92 152 225 172v37
c0 64 -15 90 -51 90c-51 0 -48 -45 -44 -92l-111 -7c-19 111 27 202 170 202c158 0 160 -125 160 -243v-172c0 -27 6 -38 34 -31zM241 151v66c-78 -6 -103 -22 -103 -77c0 -28 11 -60 47 -60c34 0 56 32 56 71z" />
    <glyph glyph-name="Cacute" unicode="&#x106;" horiz-adv-x="487" 
d="M258 94c58 0 72 60 74 160l126 -9c-5 -185 -70 -257 -210 -257c-162 0 -214 123 -214 373c0 258 78 386 240 386c138 0 193 -97 190 -268l-126 -10c-1 130 -21 168 -74 168c-66 0 -93 -72 -93 -273c0 -196 19 -270 87 -270zM330 932l53 -91l-176 -79l-34 56z" />
    <glyph glyph-name="cacute" unicode="&#x107;" horiz-adv-x="410" 
d="M251 763l81 -63l-136 -137l-52 42zM391 333l-113 -6c-2 73 -18 99 -58 99c-48 0 -62 -50 -62 -182c0 -95 10 -152 67 -152c35 0 50 26 53 96l114 -5c-4 -154 -89 -195 -175 -195c-151 0 -189 114 -189 267c0 174 66 277 199 277c120 0 164 -81 164 -199z" />
    <glyph glyph-name="Ccircumflex" unicode="&#x108;" horiz-adv-x="487" 
d="M258 94c58 0 72 60 74 160l126 -9c-5 -185 -70 -257 -210 -257c-162 0 -214 123 -214 373c0 258 78 386 240 386c138 0 193 -97 190 -268l-126 -10c-1 130 -21 168 -74 168c-66 0 -93 -72 -93 -273c0 -196 19 -270 87 -270zM234 917h66l113 -113l-37 -45l-110 71
l-109 -71l-37 45z" />
    <glyph glyph-name="ccircumflex" unicode="&#x109;" horiz-adv-x="410" 
d="M185 746h69l100 -143l-49 -38l-85 86l-86 -86l-47 37zM391 333l-113 -6c-2 73 -18 99 -58 99c-48 0 -62 -50 -62 -182c0 -95 10 -152 67 -152c35 0 50 26 53 96l114 -5c-4 -154 -89 -195 -175 -195c-151 0 -189 114 -189 267c0 174 66 277 199 277
c120 0 164 -81 164 -199z" />
    <glyph glyph-name="Cdotaccent" unicode="&#x10a;" horiz-adv-x="487" 
d="M204 778v129h125v-129h-125zM258 94c58 0 72 60 74 160l126 -9c-5 -185 -70 -257 -210 -257c-162 0 -214 123 -214 373c0 258 78 386 240 386c138 0 193 -97 190 -268l-126 -10c-1 130 -21 168 -74 168c-66 0 -93 -72 -93 -273c0 -196 19 -270 87 -270z" />
    <glyph glyph-name="cdotaccent" unicode="&#x10b;" horiz-adv-x="410" 
d="M391 333l-113 -6c-2 73 -18 99 -58 99c-48 0 -62 -50 -62 -182c0 -95 10 -152 67 -152c35 0 50 26 53 96l114 -5c-4 -154 -89 -195 -175 -195c-151 0 -189 114 -189 267c0 174 66 277 199 277c120 0 164 -81 164 -199zM156 605v129h125v-129h-125z" />
    <glyph glyph-name="Ccaron" unicode="&#x10c;" horiz-adv-x="487" 
d="M258 94c58 0 72 60 74 160l126 -9c-5 -185 -70 -257 -210 -257c-162 0 -214 123 -214 373c0 258 78 386 240 386c138 0 193 -97 190 -268l-126 -10c-1 130 -21 168 -74 168c-66 0 -93 -72 -93 -273c0 -196 19 -270 87 -270zM299 774h-66l-110 109l38 44l105 -66l106 66
l38 -44z" />
    <glyph glyph-name="ccaron" unicode="&#x10d;" horiz-adv-x="410" 
d="M250 576h-59l-103 144l47 37l85 -89l86 89l47 -37zM391 333l-113 -6c-2 73 -18 99 -58 99c-48 0 -62 -50 -62 -182c0 -95 10 -152 67 -152c35 0 50 26 53 96l114 -5c-4 -154 -89 -195 -175 -195c-151 0 -189 114 -189 267c0 174 66 277 199 277c120 0 164 -81 164 -199z
" />
    <glyph glyph-name="Dcaron" unicode="&#x10e;" horiz-adv-x="509" 
d="M254 764h-66l-110 109l38 44l105 -66l106 66l38 -44zM184 0h-134v734h135c228 0 290 -114 290 -354c0 -263 -61 -380 -291 -380zM180 110h23c102 0 136 60 136 263c0 191 -35 252 -139 252h-20v-515z" />
    <glyph glyph-name="dcaron" unicode="&#x10f;" horiz-adv-x="510" 
d="M432 734h101l-38 -188l-60 4zM273 734h123v-734h-109l-10 54h-1c-14 -34 -50 -66 -105 -66c-93 0 -142 68 -142 258c0 200 49 286 153 286c48 0 73 -26 89 -53h2v255zM276 257c0 120 -11 173 -56 173c-46 0 -63 -43 -63 -182c0 -132 20 -159 58 -159c54 0 61 73 61 168z
" />
    <glyph glyph-name="Dcroat" unicode="&#x110;" horiz-adv-x="527" 
d="M202 0h-134v313h-52v106h52v315h135c228 0 290 -114 290 -354c0 -263 -61 -380 -291 -380zM198 110h23c102 0 136 60 136 263c0 191 -35 252 -139 252h-20v-206h106v-106h-106v-203z" />
    <glyph glyph-name="dcroat" unicode="&#x111;" horiz-adv-x="435" 
d="M273 734h123v-58h44v-92h-44v-584h-109l-10 54h-1c-14 -34 -50 -66 -105 -66c-93 0 -142 68 -142 258c0 200 49 286 153 286c48 0 73 -26 89 -53h2v105h-123v92h123v58zM276 257c0 120 -11 173 -56 173c-46 0 -63 -43 -63 -182c0 -132 20 -159 58 -159c54 0 61 73 61 168
z" />
    <glyph glyph-name="Emacron" unicode="&#x112;" horiz-adv-x="429" 
d="M92 791v90h250v-90h-250zM368 428v-106h-188v-209h228v-113h-358v734h340v-113h-210v-193h188z" />
    <glyph glyph-name="emacron" unicode="&#x113;" horiz-adv-x="419" 
d="M280 185l111 -5c-4 -154 -90 -192 -173 -192c-152 0 -190 113 -190 268c0 173 66 276 199 276c132 0 179 -108 164 -295h-233c0 -87 10 -145 67 -145c37 0 53 24 55 93zM158 321h109c3 80 -15 109 -51 109c-42 0 -56 -34 -58 -109zM95 610v89h248v-89h-248z" />
    <glyph glyph-name="Ebreve" unicode="&#x114;" horiz-adv-x="429" 
d="M92 896l59 12c7 -47 38 -61 73 -61c32 0 62 13 76 62l58 -12c-9 -83 -60 -131 -138 -131c-73 0 -122 41 -128 130zM368 428v-106h-188v-209h228v-113h-358v734h340v-113h-210v-193h188z" />
    <glyph glyph-name="ebreve" unicode="&#x115;" horiz-adv-x="419" 
d="M280 185l111 -5c-4 -154 -90 -192 -173 -192c-152 0 -190 113 -190 268c0 173 66 276 199 276c132 0 179 -108 164 -295h-233c0 -87 10 -145 67 -145c37 0 53 24 55 93zM158 321h109c3 80 -15 109 -51 109c-42 0 -56 -34 -58 -109zM91 729l58 7c7 -55 33 -74 69 -74
c32 0 58 18 72 75l57 -7c-8 -92 -55 -148 -133 -148c-74 0 -118 49 -123 147z" />
    <glyph glyph-name="Edotaccent" unicode="&#x116;" horiz-adv-x="429" 
d="M157 778v129h125v-129h-125zM368 428v-106h-188v-209h228v-113h-358v734h340v-113h-210v-193h188z" />
    <glyph glyph-name="edotaccent" unicode="&#x117;" horiz-adv-x="419" 
d="M280 185l111 -5c-4 -154 -90 -192 -173 -192c-152 0 -190 113 -190 268c0 173 66 276 199 276c132 0 179 -108 164 -295h-233c0 -87 10 -145 67 -145c37 0 53 24 55 93zM158 321h109c3 80 -15 109 -51 109c-42 0 -56 -34 -58 -109zM158 605v129h125v-129h-125z" />
    <glyph glyph-name="Eogonek" unicode="&#x118;" horiz-adv-x="429" 
d="M368 428v-106h-188v-209h228v-113h-38c-39 -33 -61 -70 -61 -96c0 -16 7 -24 19 -24c13 0 24 9 36 26l44 -37c-23 -39 -62 -64 -112 -64c-45 0 -79 22 -79 67c0 51 42 96 88 128h-255v734h340v-113h-210v-193h188z" />
    <glyph glyph-name="eogonek" unicode="&#x119;" horiz-adv-x="419" 
d="M280 185l111 -5c-2 -80 -31 -124 -60 -157c-36 -41 -61 -88 -61 -119c0 -16 7 -24 19 -24s24 9 35 26l44 -37c-23 -39 -61 -64 -111 -64c-45 0 -79 22 -79 67c0 44 31 86 62 117c-8 0 -15 -1 -22 -1c-152 0 -190 113 -190 268c0 173 66 276 199 276
c132 0 179 -108 164 -295h-233c0 -87 10 -145 67 -145c37 0 53 24 55 93zM158 321h109c3 80 -15 109 -51 109c-42 0 -56 -34 -58 -109z" />
    <glyph glyph-name="Ecaron" unicode="&#x11a;" horiz-adv-x="429" 
d="M251 764h-66l-110 109l38 44l105 -66l106 66l38 -44zM368 428v-106h-188v-209h228v-113h-358v734h340v-113h-210v-193h188z" />
    <glyph glyph-name="ecaron" unicode="&#x11b;" horiz-adv-x="419" 
d="M251 576h-59l-103 144l47 37l85 -89l86 89l47 -37zM280 185l111 -5c-4 -154 -90 -192 -173 -192c-152 0 -190 113 -190 268c0 173 66 276 199 276c132 0 179 -108 164 -295h-233c0 -87 10 -145 67 -145c37 0 53 24 55 93zM158 321h109c3 80 -15 109 -51 109
c-42 0 -56 -34 -58 -109z" />
    <glyph glyph-name="Gcircumflex" unicode="&#x11c;" horiz-adv-x="507" 
d="M249 253v105h214v-370h-87l-18 71c-29 -52 -72 -71 -120 -71c-151 0 -204 123 -204 370c0 261 78 389 240 389c138 0 192 -96 190 -268l-126 -10c-1 131 -22 168 -74 168c-66 0 -93 -72 -93 -274c0 -195 19 -269 88 -269c53 0 76 54 75 159h-85zM234 917h66l113 -113
l-37 -45l-110 71l-109 -71l-37 45z" />
    <glyph glyph-name="gcircumflex" unicode="&#x11d;" horiz-adv-x="435" 
d="M182 746h69l100 -143l-49 -38l-85 86l-86 -86l-47 37zM288 520h108v-482c0 -144 -57 -233 -191 -233c-98 0 -159 49 -168 152l118 15c3 -35 11 -67 55 -67c37 0 64 24 64 114v58h-1c-12 -29 -46 -65 -103 -65c-84 0 -141 58 -141 239c0 204 59 281 154 281
c48 0 74 -20 93 -56h2zM276 258c0 117 -10 172 -56 172c-44 0 -63 -39 -63 -181c0 -120 22 -136 58 -136c51 0 61 56 61 145z" />
    <glyph glyph-name="Gbreve" unicode="&#x11e;" horiz-adv-x="507" 
d="M135 904l59 12c7 -47 38 -61 73 -61c32 0 62 13 76 62l58 -12c-9 -83 -60 -131 -138 -131c-73 0 -122 41 -128 130zM249 253v105h214v-370h-87l-18 71c-29 -52 -72 -71 -120 -71c-151 0 -204 123 -204 370c0 261 78 389 240 389c138 0 192 -96 190 -268l-126 -10
c-1 131 -22 168 -74 168c-66 0 -93 -72 -93 -274c0 -195 19 -269 88 -269c53 0 76 54 75 159h-85z" />
    <glyph glyph-name="gbreve" unicode="&#x11f;" horiz-adv-x="435" 
d="M288 520h108v-482c0 -144 -57 -233 -191 -233c-98 0 -159 49 -168 152l118 15c3 -35 11 -67 55 -67c37 0 64 24 64 114v58h-1c-12 -29 -46 -65 -103 -65c-84 0 -141 58 -141 239c0 204 59 281 154 281c48 0 74 -20 93 -56h2zM276 258c0 117 -10 172 -56 172
c-44 0 -63 -39 -63 -181c0 -120 22 -136 58 -136c51 0 61 56 61 145zM90 729l58 7c7 -55 33 -74 69 -74c32 0 58 18 72 75l57 -7c-8 -92 -55 -148 -133 -148c-74 0 -118 49 -123 147z" />
    <glyph glyph-name="Gdotaccent" unicode="&#x120;" horiz-adv-x="507" 
d="M204 778v129h125v-129h-125zM249 253v105h214v-370h-87l-18 71c-29 -52 -72 -71 -120 -71c-151 0 -204 123 -204 370c0 261 78 389 240 389c138 0 192 -96 190 -268l-126 -10c-1 131 -22 168 -74 168c-66 0 -93 -72 -93 -274c0 -195 19 -269 88 -269c53 0 76 54 75 159
h-85z" />
    <glyph glyph-name="gdotaccent" unicode="&#x121;" horiz-adv-x="435" 
d="M288 520h108v-482c0 -144 -57 -233 -191 -233c-98 0 -159 49 -168 152l118 15c3 -35 11 -67 55 -67c37 0 64 24 64 114v58h-1c-12 -29 -46 -65 -103 -65c-84 0 -141 58 -141 239c0 204 59 281 154 281c48 0 74 -20 93 -56h2zM276 258c0 117 -10 172 -56 172
c-44 0 -63 -39 -63 -181c0 -120 22 -136 58 -136c51 0 61 56 61 145zM154 605v129h125v-129h-125z" />
    <glyph glyph-name="Gcommaaccent" unicode="&#x122;" horiz-adv-x="507" 
d="M249 253v105h214v-370h-87l-18 71c-29 -52 -72 -71 -120 -71c-151 0 -204 123 -204 370c0 261 78 389 240 389c138 0 192 -96 190 -268l-126 -10c-1 131 -22 168 -74 168c-66 0 -93 -72 -93 -274c0 -195 19 -269 88 -269c53 0 76 54 75 159h-85zM212 -156v111h105v-90
l-45 -122l-50 13l23 88h-33z" />
    <glyph glyph-name="gcommaaccent" unicode="&#x123;" horiz-adv-x="435" 
d="M269 689v-111h-105v91l45 121l51 -12l-23 -89h32zM288 520h108v-482c0 -144 -57 -233 -191 -233c-98 0 -159 49 -168 152l118 15c3 -35 11 -67 55 -67c37 0 64 24 64 114v58h-1c-12 -29 -46 -65 -103 -65c-84 0 -141 58 -141 239c0 204 59 281 154 281
c48 0 74 -20 93 -56h2zM276 258c0 117 -10 172 -56 172c-44 0 -63 -39 -63 -181c0 -120 22 -136 58 -136c51 0 61 56 61 145z" />
    <glyph glyph-name="Hcircumflex" unicode="&#x124;" horiz-adv-x="523" 
d="M472 734v-734h-130v309h-162v-309h-130v734h130v-309h162v309h130zM228 917h66l113 -113l-37 -45l-110 71l-109 -71l-37 45z" />
    <glyph glyph-name="hcircumflex" unicode="&#x125;" horiz-adv-x="439" 
d="M402 363v-363h-123v346c0 50 -8 80 -48 80c-63 0 -65 -69 -65 -155v-271h-123v734h123v-269h2c14 31 47 67 112 67c90 0 122 -58 122 -169zM79 912h66l113 -113l-37 -45l-110 71l-109 -71l-37 45z" />
    <glyph glyph-name="Hbar" unicode="&#x126;" horiz-adv-x="543" 
d="M482 734v-106h48v-104h-48v-524h-130v309h-162v-309h-130v524h-47v104h47v106h130v-106h162v106h130zM190 425h162v99h-162v-99z" />
    <glyph glyph-name="hbar" unicode="&#x127;" horiz-adv-x="439" 
d="M402 363v-363h-123v346c0 50 -8 80 -48 80c-63 0 -65 -69 -65 -155v-271h-123v584h-48v92h48v58h123v-58h128v-92h-128v-119h2c14 31 47 67 112 67c90 0 122 -58 122 -169z" />
    <glyph glyph-name="Itilde" unicode="&#x128;" horiz-adv-x="311" 
d="M220 635v-536h63v-99h-255v99h62v536h-61v99h253v-99h-62zM80 780l-54 7c10 70 37 108 80 108c36 0 69 -26 93 -26c11 0 23 5 30 36l54 -7c-12 -74 -34 -112 -82 -112c-41 0 -72 24 -93 24c-11 0 -22 -4 -28 -30z" />
    <glyph glyph-name="itilde" unicode="&#x129;" horiz-adv-x="207" 
d="M43 0v520h125v-520h-125zM31 602l-54 7c10 70 37 108 80 108c36 0 68 -26 92 -26c11 0 23 5 30 36l54 -7c-13 -74 -34 -112 -81 -112c-41 0 -73 24 -93 24c-11 0 -22 -4 -28 -30z" />
    <glyph glyph-name="Imacron" unicode="&#x12a;" horiz-adv-x="311" 
d="M220 635v-536h63v-99h-255v99h62v536h-61v99h253v-99h-62zM30 791v90h250v-90h-250z" />
    <glyph glyph-name="imacron" unicode="&#x12b;" horiz-adv-x="207" 
d="M43 0v520h125v-520h-125zM-19 610v89h248v-89h-248z" />
    <glyph glyph-name="Ibreve" unicode="&#x12c;" horiz-adv-x="311" 
d="M220 635v-536h63v-99h-255v99h62v536h-61v99h253v-99h-62zM23 896l59 12c7 -47 38 -61 73 -61c32 0 62 13 76 62l58 -12c-9 -83 -60 -131 -138 -131c-73 0 -122 41 -128 130z" />
    <glyph glyph-name="ibreve" unicode="&#x12d;" horiz-adv-x="207" 
d="M43 0v520h125v-520h-125zM-22 729l58 7c7 -55 33 -74 69 -74c32 0 58 18 72 75l57 -7c-8 -92 -55 -148 -133 -148c-74 0 -118 49 -123 147z" />
    <glyph glyph-name="Iogonek" unicode="&#x12e;" horiz-adv-x="311" 
d="M220 635v-536h63v-99h-91c-21 -27 -43 -67 -43 -96c0 -16 7 -24 20 -24c12 0 24 9 35 26l44 -37c-23 -39 -62 -64 -112 -64c-45 0 -79 22 -79 67c0 50 41 98 74 128h-103v99h62v536h-61v99h253v-99h-62z" />
    <glyph glyph-name="iogonek" unicode="&#x12f;" horiz-adv-x="207" 
d="M43 0v520h125v-520h-29c-21 -27 -43 -67 -43 -96c0 -16 7 -24 20 -24c12 0 24 9 35 26l44 -37c-23 -39 -62 -64 -112 -64c-45 0 -79 22 -79 67c0 50 41 98 74 128h-35zM43 605v129h125v-129h-125z" />
    <glyph glyph-name="Idotaccent" unicode="&#x130;" horiz-adv-x="311" 
d="M220 635v-536h63v-99h-255v99h62v536h-61v99h253v-99h-62zM92 778v129h125v-129h-125z" />
    <glyph glyph-name="idotaccent" horiz-adv-x="207" 
d="M43 605v129h125v-129h-125zM43 0v520h125v-520h-125z" />
    <glyph glyph-name="dotlessi" unicode="&#x131;" horiz-adv-x="207" 
d="M43 0v520h125v-520h-125z" />
    <glyph glyph-name="IJ" unicode="&#x132;" horiz-adv-x="734" 
d="M220 635v-536h63v-99h-255v99h62v536h-61v99h253v-99h-62zM328 216l124 8c3 -60 7 -124 59 -124c37 0 57 18 57 104v530h124v-546c0 -132 -63 -200 -186 -200c-133 0 -178 89 -178 228z" />
    <glyph glyph-name="Jcircumflex" unicode="&#x134;" horiz-adv-x="421" 
d="M11 216l124 8c3 -60 7 -124 59 -124c37 0 57 18 57 104v530h124v-546c0 -132 -63 -200 -186 -200c-133 0 -178 89 -178 228zM281 917h66l113 -113l-37 -45l-110 71l-109 -71l-37 45z" />
    <glyph glyph-name="jcircumflex" unicode="&#x135;" horiz-adv-x="206" 
d="M-66 -183l15 93c16 -5 28 -6 41 -6c37 0 54 23 54 88v528h123v-530c0 -145 -73 -185 -159 -185c-29 0 -59 7 -74 12zM70 746h69l100 -143l-49 -38l-85 86l-86 -86l-47 37z" />
    <glyph glyph-name="Kcommaaccent" unicode="&#x136;" horiz-adv-x="504" 
d="M207 -156v111h105v-90l-45 -122l-50 13l23 88h-33zM180 734v-307l199 307h139l-200 -296l182 -438h-140l-131 306l-49 -73v-233h-130v734h130z" />
    <glyph glyph-name="kcommaaccent" unicode="&#x137;" horiz-adv-x="436" 
d="M170 -156v111h105v-90l-45 -122l-50 13l23 88h-33zM165 734v-406l126 192h139l-138 -185l147 -335h-136l-93 227l-45 -59v-168h-123v734h123z" />
    <glyph glyph-name="kgreenlandic" unicode="&#x138;" horiz-adv-x="436" 
d="M165 520v-182l126 182h139l-137 -185l146 -335h-136l-93 223l-45 -61v-162h-123v520h123z" />
    <glyph glyph-name="Lacute" unicode="&#x139;" horiz-adv-x="397" 
d="M180 932l53 -91l-176 -79l-34 56zM180 734v-621h200v-113h-330v734h130z" />
    <glyph glyph-name="lacute" unicode="&#x13a;" horiz-adv-x="205" 
d="M168 932l53 -91l-176 -79l-34 56zM164 734v-734h-123v734h123z" />
    <glyph glyph-name="Lcommaaccent" unicode="&#x13b;" horiz-adv-x="397" 
d="M159 -156v111h105v-90l-45 -122l-50 13l23 88h-33zM180 734v-621h200v-113h-330v734h130z" />
    <glyph glyph-name="lcommaaccent" unicode="&#x13c;" horiz-adv-x="205" 
d="M50 -156v111h105v-90l-45 -122l-50 13l23 88h-33zM164 734v-734h-123v734h123z" />
    <glyph glyph-name="Lcaron" unicode="&#x13d;" horiz-adv-x="397" 
d="M244 734h101l-38 -188l-60 4zM180 734v-621h200v-113h-330v734h130z" />
    <glyph glyph-name="lcaron" unicode="&#x13e;" horiz-adv-x="280" 
d="M202 734h101l-38 -188l-60 4zM164 734v-734h-123v734h123z" />
    <glyph glyph-name="Ldot" unicode="&#x13f;" horiz-adv-x="397" 
d="M263 351v125h113v-125h-113zM180 734v-621h200v-113h-330v734h130z" />
    <glyph glyph-name="ldot" unicode="&#x140;" horiz-adv-x="316" 
d="M164 734v-734h-123v734h123zM202 321v125h117v-125h-117z" />
    <glyph glyph-name="Lslash" unicode="&#x141;" horiz-adv-x="397" 
d="M180 734v-280l112 61l27 -93l-139 -75v-234h200v-113h-330v287l-63 -35l-25 93l88 48v341h130z" />
    <glyph glyph-name="lslash" unicode="&#x142;" horiz-adv-x="300" 
d="M214 734v-265l56 30l26 -91l-82 -45v-363h-123v311l-56 -29l-25 90l81 45v317h123z" />
    <glyph glyph-name="Nacute" unicode="&#x143;" horiz-adv-x="546" 
d="M353 932l53 -91l-176 -79l-34 56zM496 0h-146l-176 498l-3 -1v-497h-121v734h156l167 -492l3 1v491h120v-734z" />
    <glyph glyph-name="nacute" unicode="&#x144;" horiz-adv-x="440" 
d="M261 763l81 -63l-136 -137l-52 42zM403 363v-363h-123v346c0 50 -9 80 -48 80c-63 0 -66 -70 -66 -155v-271h-123v520h111l3 -69h2c12 29 40 81 119 81c93 0 125 -58 125 -169z" />
    <glyph glyph-name="Ncommaaccent" unicode="&#x145;" horiz-adv-x="546" 
d="M228 -156v111h105v-90l-45 -122l-50 13l23 88h-33zM496 0h-146l-176 498l-3 -1v-497h-121v734h156l167 -492l3 1v491h120v-734z" />
    <glyph glyph-name="ncommaaccent" unicode="&#x146;" horiz-adv-x="440" 
d="M171 -156v111h105v-90l-45 -122l-50 13l23 88h-33zM403 363v-363h-123v346c0 50 -9 80 -48 80c-63 0 -66 -70 -66 -155v-271h-123v520h111l3 -69h2c12 29 40 81 119 81c93 0 125 -58 125 -169z" />
    <glyph glyph-name="Ncaron" unicode="&#x147;" horiz-adv-x="546" 
d="M317 764h-66l-110 109l38 44l105 -66l106 66l38 -44zM496 0h-146l-176 498l-3 -1v-497h-121v734h156l167 -492l3 1v491h120v-734z" />
    <glyph glyph-name="ncaron" unicode="&#x148;" horiz-adv-x="440" 
d="M255 576h-59l-103 144l47 37l85 -89l86 89l47 -37zM403 363v-363h-123v346c0 50 -9 80 -48 80c-63 0 -66 -70 -66 -155v-271h-123v520h111l3 -69h2c12 29 40 81 119 81c93 0 125 -58 125 -169z" />
    <glyph glyph-name="napostrophe" unicode="&#x149;" horiz-adv-x="492" 
d="M87 725v-111h-33l23 -89l-50 -12l-45 122v90h105zM455 363v-363h-123v346c0 50 -9 80 -48 80c-63 0 -66 -70 -66 -155v-271h-123v520h111l3 -69h2c12 29 40 81 119 81c93 0 125 -58 125 -169z" />
    <glyph glyph-name="Eng" unicode="&#x14a;" horiz-adv-x="546" 
d="M496 -12c0 -115 -53 -183 -175 -183c-52 0 -102 14 -114 22l17 99c14 -5 39 -13 67 -13c50 0 73 22 73 89l-190 496v-498h-124v734h147l176 -463v463h123v-746z" />
    <glyph glyph-name="eng" unicode="&#x14b;" horiz-adv-x="440" 
d="M169 -183l15 93c17 -5 29 -6 42 -6c37 0 54 23 54 88v354c0 50 -9 80 -48 80c-63 0 -66 -70 -66 -155v-271h-123v520h111l3 -69h2c12 29 40 81 119 81c93 0 125 -58 125 -169v-373c0 -145 -73 -185 -159 -185c-29 0 -60 7 -75 12z" />
    <glyph glyph-name="Omacron" unicode="&#x14c;" horiz-adv-x="514" 
d="M137 791v90h250v-90h-250zM251 -12c-168 0 -217 128 -217 378c0 251 72 381 233 381c169 0 213 -127 213 -367c0 -260 -60 -392 -229 -392zM258 96c70 0 86 78 86 277c0 191 -16 261 -82 261c-69 0 -91 -73 -91 -265c0 -195 14 -273 87 -273z" />
    <glyph glyph-name="omacron" unicode="&#x14d;" horiz-adv-x="430" 
d="M97 610v89h248v-89h-248zM210 -12c-132 0 -182 91 -182 271c0 182 71 273 194 273c132 0 180 -89 180 -263c0 -189 -59 -281 -192 -281zM216 91c49 0 58 53 58 172c0 116 -8 163 -56 163c-49 0 -62 -50 -62 -166c0 -118 8 -169 60 -169z" />
    <glyph glyph-name="Obreve" unicode="&#x14e;" horiz-adv-x="514" 
d="M130 904l59 12c7 -47 38 -61 73 -61c32 0 62 13 76 62l58 -12c-9 -83 -60 -131 -138 -131c-73 0 -122 41 -128 130zM251 -12c-168 0 -217 128 -217 378c0 251 72 381 233 381c169 0 213 -127 213 -367c0 -260 -60 -392 -229 -392zM258 96c70 0 86 78 86 277
c0 191 -16 261 -82 261c-69 0 -91 -73 -91 -265c0 -195 14 -273 87 -273z" />
    <glyph glyph-name="obreve" unicode="&#x14f;" horiz-adv-x="430" 
d="M210 -12c-132 0 -182 91 -182 271c0 182 71 273 194 273c132 0 180 -89 180 -263c0 -189 -59 -281 -192 -281zM216 91c49 0 58 53 58 172c0 116 -8 163 -56 163c-49 0 -62 -50 -62 -166c0 -118 8 -169 60 -169zM94 729l58 7c7 -55 33 -74 69 -74c32 0 58 18 72 75l57 -7
c-8 -92 -55 -148 -133 -148c-74 0 -118 49 -123 147z" />
    <glyph glyph-name="Ohungarumlaut" unicode="&#x150;" horiz-adv-x="514" 
d="M251 -12c-168 0 -217 128 -217 378c0 251 72 381 233 381c169 0 213 -127 213 -367c0 -260 -60 -392 -229 -392zM258 96c70 0 86 78 86 277c0 191 -16 261 -82 261c-69 0 -91 -73 -91 -265c0 -195 14 -273 87 -273zM431 919l53 -67l-160 -90l-32 43zM273 932l54 -71
l-154 -96l-32 41z" />
    <glyph glyph-name="ohungarumlaut" unicode="&#x151;" horiz-adv-x="430" 
d="M356 745l67 -54l-133 -121l-39 34zM218 753l72 -50l-115 -132l-42 28zM210 -12c-132 0 -182 91 -182 271c0 182 71 273 194 273c132 0 180 -89 180 -263c0 -189 -59 -281 -192 -281zM216 91c49 0 58 53 58 172c0 116 -8 163 -56 163c-49 0 -62 -50 -62 -166
c0 -118 8 -169 60 -169z" />
    <glyph glyph-name="OE" unicode="&#x152;" horiz-adv-x="705" 
d="M643 428v-106h-187v-209h228v-113h-345c-27 -8 -59 -12 -89 -12c-166 0 -216 128 -216 378c0 251 72 381 232 381c21 0 49 -4 78 -13h321v-113h-209v-193h187zM258 96c19 0 45 4 68 12v514c-18 7 -41 12 -64 12c-69 0 -91 -73 -91 -265c0 -195 14 -273 87 -273z" />
    <glyph glyph-name="oe" unicode="&#x153;" horiz-adv-x="659" 
d="M520 185l111 -5c-5 -153 -91 -192 -172 -192c-57 0 -95 19 -124 56c-31 -39 -73 -56 -126 -56c-131 0 -181 96 -181 261c0 195 70 283 191 283c58 0 93 -20 122 -60c32 41 74 60 128 60c129 0 176 -106 162 -293h-233c0 -88 10 -147 67 -147c36 0 52 25 55 93zM215 91
c50 0 59 54 59 171c0 118 -8 164 -57 164s-61 -49 -61 -175c0 -107 9 -160 59 -160zM398 321h109c1 76 -16 106 -51 106c-42 0 -56 -38 -58 -106z" />
    <glyph glyph-name="Racute" unicode="&#x154;" horiz-adv-x="489" 
d="M347 0l-129 306h-6h-32v-306h-130v734h172c158 0 231 -69 231 -202c0 -89 -25 -166 -109 -203l148 -329h-145zM180 416h28c78 0 113 24 113 109c0 78 -42 96 -94 96h-47v-205zM285 932l53 -91l-176 -79l-34 56z" />
    <glyph glyph-name="racute" unicode="&#x155;" horiz-adv-x="386" 
d="M242 763l81 -63l-136 -137l-52 42zM376 334l-121 -9c4 66 -1 101 -30 101c-44 0 -59 -70 -59 -173v-253h-123v520h111l3 -70h2c11 30 44 82 114 82c82 0 117 -68 103 -198z" />
    <glyph glyph-name="Rcommaaccent" unicode="&#x156;" horiz-adv-x="489" 
d="M347 0l-129 306h-6h-32v-306h-130v734h172c158 0 231 -69 231 -202c0 -89 -25 -166 -109 -203l148 -329h-145zM180 416h28c78 0 113 24 113 109c0 78 -42 96 -94 96h-47v-205zM201 -156v111h105v-90l-45 -122l-50 13l23 88h-33z" />
    <glyph glyph-name="rcommaaccent" unicode="&#x157;" horiz-adv-x="386" 
d="M51 -156v111h105v-90l-45 -122l-50 13l23 88h-33zM376 334l-121 -9c4 66 -1 101 -30 101c-44 0 -59 -70 -59 -173v-253h-123v520h111l3 -70h2c11 30 44 82 114 82c82 0 117 -68 103 -198z" />
    <glyph glyph-name="Rcaron" unicode="&#x158;" horiz-adv-x="489" 
d="M254 764h-66l-110 109l38 44l105 -66l106 66l38 -44zM347 0l-129 306h-6h-32v-306h-130v734h172c158 0 231 -69 231 -202c0 -89 -25 -166 -109 -203l148 -329h-145zM180 416h28c78 0 113 24 113 109c0 78 -42 96 -94 96h-47v-205z" />
    <glyph glyph-name="rcaron" unicode="&#x159;" horiz-adv-x="386" 
d="M236 576h-59l-103 144l47 37l85 -89l86 89l47 -37zM376 334l-121 -9c4 66 -1 101 -30 101c-44 0 -59 -70 -59 -173v-253h-123v520h111l3 -70h2c11 30 44 82 114 82c82 0 117 -68 103 -198z" />
    <glyph glyph-name="Sacute" unicode="&#x15a;" horiz-adv-x="484" 
d="M444 512l-125 -16c-3 107 -28 141 -82 141c-52 0 -75 -34 -75 -76c0 -63 44 -92 101 -121c84 -42 190 -82 190 -231c0 -151 -96 -221 -213 -221c-144 0 -209 75 -216 237l132 14c4 -106 30 -144 88 -144c50 0 77 27 77 89c0 72 -49 102 -108 130c-82 40 -180 78 -180 223
c0 139 93 210 213 210c127 0 198 -74 198 -235zM309 932l53 -91l-176 -79l-34 56z" />
    <glyph glyph-name="sacute" unicode="&#x15b;" horiz-adv-x="377" 
d="M230 763l81 -63l-136 -137l-52 42zM355 364l-112 -12c0 50 -13 81 -54 81c-26 0 -45 -14 -45 -43c0 -97 217 -60 217 -239c0 -114 -80 -163 -172 -163c-111 0 -171 48 -176 168l119 12c3 -53 16 -85 58 -85c33 0 48 17 48 49c0 99 -215 62 -215 238c0 111 84 162 172 162
c100 0 160 -53 160 -168z" />
    <glyph glyph-name="Scircumflex" unicode="&#x15c;" horiz-adv-x="484" 
d="M444 512l-125 -16c-3 107 -28 141 -82 141c-52 0 -75 -34 -75 -76c0 -63 44 -92 101 -121c84 -42 190 -82 190 -231c0 -151 -96 -221 -213 -221c-144 0 -209 75 -216 237l132 14c4 -106 30 -144 88 -144c50 0 77 27 77 89c0 72 -49 102 -108 130c-82 40 -180 78 -180 223
c0 139 93 210 213 210c127 0 198 -74 198 -235zM213 917h66l113 -113l-37 -45l-110 71l-109 -71l-37 45z" />
    <glyph glyph-name="scircumflex" unicode="&#x15d;" horiz-adv-x="377" 
d="M157 746h69l100 -143l-49 -38l-85 86l-86 -86l-47 37zM355 364l-112 -12c0 50 -13 81 -54 81c-26 0 -45 -14 -45 -43c0 -97 217 -60 217 -239c0 -114 -80 -163 -172 -163c-111 0 -171 48 -176 168l119 12c3 -53 16 -85 58 -85c33 0 48 17 48 49c0 99 -215 62 -215 238
c0 111 84 162 172 162c100 0 160 -53 160 -168z" />
    <glyph glyph-name="Scedilla" unicode="&#x15e;" horiz-adv-x="484" 
d="M177 -85l30 75c-121 10 -177 86 -183 235l132 14c4 -106 30 -144 88 -144c50 0 77 27 77 89c0 72 -49 102 -108 130c-82 40 -180 78 -180 223c0 139 93 210 213 210c127 0 198 -74 198 -235l-125 -16c-3 107 -28 141 -82 141c-52 0 -75 -34 -75 -76
c0 -63 44 -92 101 -121c84 -42 190 -82 190 -231c0 -142 -85 -212 -192 -220l-16 -36c9 4 15 5 25 5c48 0 73 -37 73 -85c0 -62 -43 -93 -101 -93c-36 0 -76 14 -100 61l47 29c15 -25 29 -30 42 -30c19 0 29 11 29 35s-9 35 -23 35c-8 0 -15 -3 -22 -10z" />
    <glyph glyph-name="scedilla" unicode="&#x15f;" horiz-adv-x="377" 
d="M124 -85l30 75c-89 10 -137 59 -141 166l119 12c3 -53 16 -85 58 -85c33 0 48 17 48 49c0 99 -215 62 -215 238c0 111 84 162 172 162c100 0 160 -53 160 -168l-112 -12c0 50 -13 81 -54 81c-26 0 -45 -14 -45 -43c0 -97 217 -60 217 -239c0 -106 -69 -155 -153 -162
l-16 -36c9 4 15 5 25 5c48 0 73 -37 73 -85c0 -62 -43 -93 -101 -93c-36 0 -76 14 -100 61l47 29c15 -25 29 -30 42 -30c19 0 29 11 29 35s-9 35 -23 35c-8 0 -15 -3 -22 -10z" />
    <glyph glyph-name="Scaron" unicode="&#x160;" horiz-adv-x="484" 
d="M444 512l-125 -16c-3 107 -28 141 -82 141c-52 0 -75 -34 -75 -76c0 -63 44 -92 101 -121c84 -42 190 -82 190 -231c0 -151 -96 -221 -213 -221c-144 0 -209 75 -216 237l132 14c4 -106 30 -144 88 -144c50 0 77 27 77 89c0 72 -49 102 -108 130c-82 40 -180 78 -180 223
c0 139 93 210 213 210c127 0 198 -74 198 -235zM278 774h-66l-110 109l38 44l105 -66l106 66l38 -44z" />
    <glyph glyph-name="scaron" unicode="&#x161;" horiz-adv-x="377" 
d="M221 576h-59l-103 144l47 37l85 -89l86 89l47 -37zM355 364l-112 -12c0 50 -13 81 -54 81c-26 0 -45 -14 -45 -43c0 -97 217 -60 217 -239c0 -114 -80 -163 -172 -163c-111 0 -171 48 -176 168l119 12c3 -53 16 -85 58 -85c33 0 48 17 48 49c0 99 -215 62 -215 238
c0 111 84 162 172 162c100 0 160 -53 160 -168z" />
    <glyph glyph-name="Scommaaccent" unicode="&#x218;" horiz-adv-x="484" 
d="M444 512l-125 -16c-3 107 -28 141 -82 141c-52 0 -75 -34 -75 -76c0 -63 44 -92 101 -121c84 -42 190 -82 190 -231c0 -151 -96 -221 -213 -221c-144 0 -209 75 -216 237l132 14c4 -106 30 -144 88 -144c50 0 77 27 77 89c0 72 -49 102 -108 130c-82 40 -180 78 -180 223
c0 139 93 210 213 210c127 0 198 -74 198 -235zM185 -156v111h105v-90l-45 -122l-50 13l23 88h-33z" />
    <glyph glyph-name="scommaaccent" unicode="&#x219;" horiz-adv-x="377" 
d="M131 -156v111h105v-90l-45 -122l-50 13l23 88h-33zM355 364l-112 -12c0 50 -13 81 -54 81c-26 0 -45 -14 -45 -43c0 -97 217 -60 217 -239c0 -114 -80 -163 -172 -163c-111 0 -171 48 -176 168l119 12c3 -53 16 -85 58 -85c33 0 48 17 48 49c0 99 -215 62 -215 238
c0 111 84 162 172 162c100 0 160 -53 160 -168z" />
    <glyph glyph-name="uni0162" unicode="&#x162;" horiz-adv-x="433" 
d="M152 0v621h-153v113h436v-113h-153v-621h-41l-21 -47c9 4 15 5 25 5c48 0 73 -37 73 -85c0 -62 -43 -93 -101 -93c-36 0 -76 14 -100 61l47 29c15 -25 29 -30 42 -30c19 0 29 11 29 35s-9 35 -23 35c-8 0 -15 -3 -22 -10l-38 15l34 85h-34z" />
    <glyph glyph-name="uni0163" unicode="&#x163;" horiz-adv-x="314" 
d="M125 -85l32 80c-55 15 -90 57 -90 154v276h-60v95h60v99l124 34v-133h104v-95h-104v-253c0 -65 13 -84 56 -84c17 0 37 4 53 9l12 -94c-15 -6 -55 -15 -96 -15h-8l-15 -35c9 4 15 5 25 5c48 0 73 -37 73 -85c0 -62 -43 -93 -101 -93c-36 0 -76 14 -100 61l47 29
c15 -25 29 -30 42 -30c19 0 29 11 29 35s-9 35 -23 35c-8 0 -15 -3 -22 -10z" />
    <glyph glyph-name="Tcaron" unicode="&#x164;" horiz-adv-x="433" 
d="M246 764h-66l-110 109l38 44l105 -66l106 66l38 -44zM152 0v621h-153v113h436v-113h-153v-621h-130z" />
    <glyph glyph-name="tcaron" unicode="&#x165;" horiz-adv-x="314" 
d="M228 749h101l-38 -188l-60 4zM7 425v95h60v99l124 34v-133h104v-95h-104v-253c0 -65 13 -84 56 -84c17 0 37 4 53 9l12 -94c-15 -6 -55 -15 -96 -15c-86 0 -149 33 -149 161v276h-60z" />
    <glyph glyph-name="Tbar" unicode="&#x166;" horiz-adv-x="433" 
d="M152 0v331h-119v105h119v185h-153v113h436v-113h-153v-185h118v-105h-118v-331h-130z" />
    <glyph glyph-name="tbar" unicode="&#x167;" horiz-adv-x="314" 
d="M7 425v95h60v99l124 34v-133h104v-95h-104v-68h104v-91h-104v-94c0 -65 13 -84 56 -84c17 0 37 4 53 9l12 -94c-15 -6 -55 -15 -96 -15c-86 0 -149 33 -149 161v117h-60v91h60v68h-60z" />
    <glyph glyph-name="uni021A" unicode="&#x21a;" horiz-adv-x="433" 
d="M152 0v621h-153v113h436v-113h-153v-621h-130zM164 -156v111h105v-90l-45 -122l-50 13l23 88h-33z" />
    <glyph glyph-name="uni021B" unicode="&#x21b;" horiz-adv-x="314" 
d="M138 -156v111h105v-90l-45 -122l-50 13l23 88h-33zM7 425v95h60v99l124 34v-133h104v-95h-104v-253c0 -65 13 -84 56 -84c17 0 37 4 53 9l12 -94c-15 -6 -55 -15 -96 -15c-86 0 -149 33 -149 161v276h-60z" />
    <glyph glyph-name="Utilde" unicode="&#x168;" horiz-adv-x="511" 
d="M182 780l-54 7c10 70 37 108 80 108c36 0 69 -26 93 -26c11 0 23 5 30 36l54 -7c-12 -74 -34 -112 -82 -112c-41 0 -72 24 -93 24c-11 0 -22 -4 -28 -30zM339 270v464h127v-487c0 -161 -49 -259 -214 -259c-172 0 -207 105 -207 264v482h128v-462c0 -128 12 -175 84 -175
c65 0 82 44 82 173z" />
    <glyph glyph-name="utilde" unicode="&#x169;" horiz-adv-x="434" 
d="M37 174v346h123v-332c0 -64 8 -94 46 -94c59 0 64 71 64 156v270h123v-520h-106l-8 73h-2c-12 -32 -38 -85 -118 -85c-91 0 -122 58 -122 186zM142 602l-54 7c10 70 37 108 80 108c36 0 68 -26 92 -26c11 0 23 5 30 36l54 -7c-13 -74 -34 -112 -81 -112
c-41 0 -73 24 -93 24c-11 0 -22 -4 -28 -30z" />
    <glyph glyph-name="Umacron" unicode="&#x16a;" horiz-adv-x="511" 
d="M132 791v90h250v-90h-250zM339 270v464h127v-487c0 -161 -49 -259 -214 -259c-172 0 -207 105 -207 264v482h128v-462c0 -128 12 -175 84 -175c65 0 82 44 82 173z" />
    <glyph glyph-name="umacron" unicode="&#x16b;" horiz-adv-x="434" 
d="M37 174v346h123v-332c0 -64 8 -94 46 -94c59 0 64 71 64 156v270h123v-520h-106l-8 73h-2c-12 -32 -38 -85 -118 -85c-91 0 -122 58 -122 186zM90 610v89h248v-89h-248z" />
    <glyph glyph-name="Ubreve" unicode="&#x16c;" horiz-adv-x="511" 
d="M125 896l59 12c7 -47 38 -61 73 -61c32 0 62 13 76 62l58 -12c-9 -83 -60 -131 -138 -131c-73 0 -122 41 -128 130zM339 270v464h127v-487c0 -161 -49 -259 -214 -259c-172 0 -207 105 -207 264v482h128v-462c0 -128 12 -175 84 -175c65 0 82 44 82 173z" />
    <glyph glyph-name="ubreve" unicode="&#x16d;" horiz-adv-x="434" 
d="M37 174v346h123v-332c0 -64 8 -94 46 -94c59 0 64 71 64 156v270h123v-520h-106l-8 73h-2c-12 -32 -38 -85 -118 -85c-91 0 -122 58 -122 186zM89 729l58 7c7 -55 33 -74 69 -74c32 0 58 18 72 75l57 -7c-8 -92 -55 -148 -133 -148c-74 0 -118 49 -123 147z" />
    <glyph glyph-name="Uring" unicode="&#x16e;" horiz-adv-x="511" 
d="M339 270v464h127v-487c0 -161 -49 -259 -214 -259c-172 0 -207 105 -207 264v482h128v-462c0 -128 12 -175 84 -175c65 0 82 44 82 173zM255 762c-69 0 -97 33 -97 87s40 87 101 87c65 0 96 -32 96 -84c0 -57 -34 -90 -100 -90zM257 808c15 0 27 11 27 42s-12 40 -26 40
c-17 0 -30 -8 -30 -41c0 -32 11 -41 29 -41z" />
    <glyph glyph-name="uring" unicode="&#x16f;" horiz-adv-x="434" 
d="M214 579c-69 0 -97 33 -97 87s40 87 101 87c65 0 96 -32 96 -84c0 -57 -34 -90 -100 -90zM216 625c15 0 27 11 27 42c0 30 -12 40 -26 40c-17 0 -30 -8 -30 -41c0 -32 11 -41 29 -41zM37 174v346h123v-332c0 -64 8 -94 46 -94c59 0 64 71 64 156v270h123v-520h-106l-8 73
h-2c-12 -32 -38 -85 -118 -85c-91 0 -122 58 -122 186z" />
    <glyph glyph-name="Uhungarumlaut" unicode="&#x170;" horiz-adv-x="511" 
d="M339 270v464h127v-487c0 -161 -49 -259 -214 -259c-172 0 -207 105 -207 264v482h128v-462c0 -128 12 -175 84 -175c65 0 82 44 82 173zM428 919l53 -67l-160 -90l-32 43zM270 932l54 -71l-154 -96l-32 41z" />
    <glyph glyph-name="uhungarumlaut" unicode="&#x171;" horiz-adv-x="434" 
d="M37 174v346h123v-332c0 -64 8 -94 46 -94c59 0 64 71 64 156v270h123v-520h-106l-8 73h-2c-12 -32 -38 -85 -118 -85c-91 0 -122 58 -122 186zM334 745l67 -54l-133 -121l-39 34zM196 753l72 -50l-115 -132l-42 28z" />
    <glyph glyph-name="Uogonek" unicode="&#x172;" horiz-adv-x="511" 
d="M339 270v464h127v-487c0 -117 -29 -189 -101 -238c-41 -28 -66 -74 -66 -105c0 -16 7 -24 19 -24s24 9 35 26l44 -37c-23 -39 -61 -64 -111 -64c-45 0 -79 22 -79 67c0 46 36 90 72 117c-9 0 -18 -1 -27 -1c-172 0 -207 105 -207 264v482h128v-462
c0 -128 12 -175 84 -175c65 0 82 44 82 173z" />
    <glyph glyph-name="uogonek" unicode="&#x173;" horiz-adv-x="434" 
d="M37 174v346h123v-332c0 -64 8 -94 46 -94c59 0 64 71 64 156v270h123v-520h-22c-21 -27 -43 -67 -43 -96c0 -16 7 -24 20 -24c12 0 24 9 35 26l44 -37c-23 -39 -62 -64 -112 -64c-45 0 -79 22 -79 67c0 50 41 98 74 128h-23l-8 73h-2c-12 -32 -38 -85 -118 -85
c-91 0 -122 58 -122 186z" />
    <glyph glyph-name="Wcircumflex" unicode="&#x174;" horiz-adv-x="751" 
d="M623 0h-173l-71 530h-4l-69 -530h-173l-122 734h136l71 -594h4l81 594h153l80 -592h4l68 592h132zM347 917h66l113 -113l-37 -45l-110 71l-109 -71l-37 45z" />
    <glyph glyph-name="wcircumflex" unicode="&#x175;" horiz-adv-x="674" 
d="M308 746h69l100 -143l-49 -38l-85 86l-86 -86l-47 37zM274 0h-157l-118 520h141l56 -400h3l66 400h156l66 -400h3l55 400h130l-108 -520h-157l-67 389h-2z" />
    <glyph glyph-name="Wgrave" unicode="&#x1e80;" horiz-adv-x="751" 
d="M262 841l55 86l156 -111l-35 -55zM623 0h-173l-71 530h-4l-69 -530h-173l-122 734h136l71 -594h4l81 594h153l80 -592h4l68 592h132z" />
    <glyph glyph-name="wgrave" unicode="&#x1e81;" horiz-adv-x="674" 
d="M274 0h-157l-118 520h141l56 -400h3l66 400h156l66 -400h3l55 400h130l-108 -520h-157l-67 389h-2zM232 699l85 65l107 -159l-53 -40z" />
    <glyph glyph-name="Wacute" unicode="&#x1e82;" horiz-adv-x="751" 
d="M443 932l53 -91l-176 -79l-34 56zM623 0h-173l-71 530h-4l-69 -530h-173l-122 734h136l71 -594h4l81 594h153l80 -592h4l68 592h132z" />
    <glyph glyph-name="wacute" unicode="&#x1e83;" horiz-adv-x="674" 
d="M369 763l81 -63l-136 -137l-52 42zM274 0h-157l-118 520h141l56 -400h3l66 400h156l66 -400h3l55 400h130l-108 -520h-157l-67 389h-2z" />
    <glyph glyph-name="Wdieresis" unicode="&#x1e84;" horiz-adv-x="751" 
d="M407 779v112h94v-112h-94zM259 779v112h94v-112h-94zM623 0h-173l-71 530h-4l-69 -530h-173l-122 734h136l71 -594h4l81 594h153l80 -592h4l68 592h132z" />
    <glyph glyph-name="wdieresis" unicode="&#x1e85;" horiz-adv-x="674" 
d="M369 604v112h95v-112h-95zM222 604v112h95v-112h-95zM274 0h-157l-118 520h141l56 -400h3l66 400h156l66 -400h3l55 400h130l-108 -520h-157l-67 389h-2z" />
    <glyph glyph-name="Ygrave" unicode="&#x1ef2;" horiz-adv-x="475" 
d="M301 284v-284h-128v281l-174 453h139l101 -313l105 313h132zM123 841l55 86l156 -111l-35 -55z" />
    <glyph glyph-name="ygrave" unicode="&#x1ef3;" horiz-adv-x="396" 
d="M402 520l-145 -538c-35 -128 -79 -177 -173 -177c-30 0 -66 7 -78 13l15 90c16 -5 32 -8 46 -8c45 0 57 23 73 86l6 23l-150 511h140l68 -367h3l64 367h131zM90 699l85 65l107 -159l-53 -40z" />
    <glyph glyph-name="Ycircumflex" unicode="&#x176;" horiz-adv-x="475" 
d="M301 284v-284h-128v281l-174 453h139l101 -313l105 313h132zM208 917h66l113 -113l-37 -45l-110 71l-109 -71l-37 45z" />
    <glyph glyph-name="ycircumflex" unicode="&#x177;" horiz-adv-x="396" 
d="M402 520l-145 -538c-35 -128 -79 -177 -173 -177c-30 0 -66 7 -78 13l15 90c16 -5 32 -8 46 -8c45 0 57 23 73 86l6 23l-150 511h140l68 -367h3l64 367h131zM169 746h69l100 -143l-49 -38l-85 86l-86 -86l-47 37z" />
    <glyph glyph-name="Ydieresis" unicode="&#x178;" horiz-adv-x="475" 
d="M301 284v-284h-128v281l-174 453h139l101 -313l105 313h132zM268 779v112h94v-112h-94zM120 779v112h94v-112h-94z" />
    <glyph glyph-name="Zacute" unicode="&#x179;" horiz-adv-x="394" 
d="M23 621v113h349v-104l-209 -517h213v-113h-364v104l212 517h-201zM257 932l53 -91l-176 -79l-34 56z" />
    <glyph glyph-name="zacute" unicode="&#x17a;" horiz-adv-x="375" 
d="M226 763l81 -63l-136 -137l-52 42zM28 410v110h326v-101l-186 -309h191v-110h-342v102l191 308h-180z" />
    <glyph glyph-name="Zdotaccent" unicode="&#x17b;" horiz-adv-x="394" 
d="M131 778v129h125v-129h-125zM23 621v113h349v-104l-209 -517h213v-113h-364v104l212 517h-201z" />
    <glyph glyph-name="zdotaccent" unicode="&#x17c;" horiz-adv-x="375" 
d="M28 410v110h326v-101l-186 -309h191v-110h-342v102l191 308h-180zM134 605v129h125v-129h-125z" />
    <glyph glyph-name="Zcaron" unicode="&#x17d;" horiz-adv-x="394" 
d="M226 764h-66l-110 109l38 44l105 -66l106 66l38 -44zM23 621v113h349v-104l-209 -517h213v-113h-364v104l212 517h-201z" />
    <glyph glyph-name="zcaron" unicode="&#x17e;" horiz-adv-x="375" 
d="M226 576h-59l-103 144l47 37l85 -89l86 89l47 -37zM28 410v110h326v-101l-186 -309h191v-110h-342v102l191 308h-180z" />
    <glyph glyph-name="longs" unicode="&#x17f;" horiz-adv-x="245" 
d="M302 733l-16 -94c-16 6 -33 9 -51 9c-42 0 -62 -24 -62 -89v-559h-124v562c0 144 76 185 168 185c34 0 70 -9 85 -14z" />
    <glyph glyph-name="dotlessj" unicode="&#x237;" horiz-adv-x="206" 
d="M-66 -183l15 93c16 -5 28 -6 41 -6c37 0 54 23 54 88v528h123v-530c0 -145 -73 -185 -159 -185c-29 0 -59 7 -74 12z" />
    <glyph glyph-name="circumflex" unicode="&#x2c6;" 
d="M215 746h69l100 -143l-49 -38l-85 86l-86 -86l-47 37z" />
    <glyph glyph-name="caron" unicode="&#x2c7;" 
d="M279 576h-59l-103 144l47 37l85 -89l86 89l47 -37z" />
    <glyph glyph-name="uni02C9" unicode="&#x2c9;" 
d="M126 610v89h248v-89h-248z" />
    <glyph glyph-name="breve" unicode="&#x2d8;" 
d="M123 729l58 7c7 -55 33 -74 69 -74c32 0 58 18 72 75l57 -7c-8 -92 -55 -148 -133 -148c-74 0 -118 49 -123 147z" />
    <glyph glyph-name="dieresis" unicode="&#xa8;" 
d="M276 604v112h95v-112h-95zM129 604v112h95v-112h-95z" />
    <glyph glyph-name="macron" unicode="&#xaf;" 
d="M126 610v89h248v-89h-248z" />
    <glyph glyph-name="degree" unicode="&#xb0;" horiz-adv-x="292" 
d="M144 527c-67 0 -104 42 -104 111c0 70 47 112 109 112c64 0 103 -41 103 -107c0 -74 -39 -116 -108 -116zM145 584c22 0 35 15 35 56c0 40 -15 52 -34 52c-18 0 -36 -10 -36 -53c0 -41 13 -55 35 -55z" />
    <glyph glyph-name="acute" unicode="&#xb4;" 
d="M285 763l81 -63l-136 -137l-52 42z" />
    <glyph glyph-name="grave" unicode="`" 
d="M136 699l85 65l107 -159l-53 -40z" />
    <glyph glyph-name="cedilla" unicode="&#xb8;" 
d="M200 -85l34 85h55l-21 -47c9 4 15 5 25 5c48 0 73 -37 73 -85c0 -62 -43 -93 -101 -93c-36 0 -76 14 -100 61l47 29c15 -25 29 -30 42 -30c19 0 29 11 29 35s-9 35 -23 35c-8 0 -15 -3 -22 -10z" />
    <glyph glyph-name="dotaccent" unicode="&#x2d9;" 
d="M187 605v129h125v-129h-125z" />
    <glyph glyph-name="ring" unicode="&#x2da;" 
d="M248 579c-69 0 -97 33 -97 87s40 87 101 87c65 0 96 -32 96 -84c0 -57 -34 -90 -100 -90zM250 625c15 0 27 11 27 42c0 30 -12 40 -26 40c-17 0 -30 -8 -30 -41c0 -32 11 -41 29 -41z" />
    <glyph glyph-name="ogonek" unicode="&#x2db;" 
d="M234 5h59c-22 -27 -47 -70 -47 -101c0 -16 7 -24 20 -24c12 0 24 9 35 26l44 -37c-23 -39 -62 -64 -112 -64c-45 0 -79 22 -79 67c0 52 46 103 80 133z" />
    <glyph glyph-name="tilde" unicode="&#x2dc;" 
d="M176 602l-54 7c10 70 37 108 80 108c36 0 68 -26 92 -26c11 0 23 5 30 36l54 -7c-13 -74 -34 -112 -81 -112c-41 0 -73 24 -93 24c-11 0 -22 -4 -28 -30z" />
    <glyph glyph-name="hungarumlaut" unicode="&#x2dd;" 
d="M385 745l67 -54l-133 -121l-39 34zM247 753l72 -50l-115 -132l-42 28z" />
    <glyph glyph-name="perthousand" unicode="&#x2030;" horiz-adv-x="891" 
d="M27 557c0 115 47 177 138 177c95 0 126 -60 126 -171c0 -120 -38 -182 -135 -182s-129 64 -129 176zM729 -12c-97 0 -129 63 -129 176c0 115 47 177 138 177c95 0 126 -61 126 -171c0 -120 -38 -182 -135 -182zM732 62c34 0 41 33 41 105s-8 100 -39 100
s-42 -30 -42 -102c0 -68 4 -103 40 -103zM159 455c34 0 41 33 41 105s-8 100 -39 100s-42 -29 -42 -102c0 -67 4 -103 40 -103zM440 -12c-97 0 -129 63 -129 176c0 115 46 177 138 177c95 0 125 -61 125 -171c0 -120 -38 -182 -134 -182zM443 62c34 0 41 33 41 105
s-8 100 -39 100s-42 -30 -42 -102c0 -68 4 -103 40 -103zM112 124l-66 72l498 444l67 -70z" />
    <glyph glyph-name="percent" unicode="%" horiz-adv-x="723" 
d="M155 22l331 730l89 -37l-331 -733zM554 -12c-102 0 -136 71 -136 202c0 134 49 204 146 204c101 0 134 -68 134 -197c0 -138 -40 -209 -144 -209zM558 63c36 0 44 37 44 130c0 94 -8 126 -41 126c-34 0 -46 -35 -46 -127c0 -90 4 -129 43 -129zM161 329
c-102 0 -136 70 -136 202c0 133 49 203 146 203c101 0 134 -68 134 -196c0 -139 -40 -209 -144 -209zM165 404c36 0 44 37 44 130s-8 125 -41 125c-34 0 -46 -35 -46 -127c0 -90 4 -128 43 -128z" />
    <glyph glyph-name="fraction" unicode="&#x2044;" horiz-adv-x="171" 
d="M-124 22l330 730l89 -37l-330 -733z" />
    <glyph glyph-name="zerosuperior" unicode="&#x2070;" horiz-adv-x="346" 
d="M169 383c-113 0 -143 79 -143 234c0 156 46 236 154 236c114 0 140 -78 140 -227c0 -162 -38 -243 -151 -243zM173 462c38 0 45 37 45 159c0 117 -8 153 -42 153c-36 0 -47 -39 -47 -155c0 -119 4 -157 44 -157z" />
    <glyph glyph-name="onesuperior" unicode="&#xb9;" horiz-adv-x="238" 
d="M27 714l-19 72c34 13 71 33 106 59h81v-455h-102v355c-13 -9 -35 -20 -66 -31z" />
    <glyph glyph-name="twosuperior" unicode="&#xb2;" horiz-adv-x="299" 
d="M142 472h121v-82h-232c0 12 -1 24 -1 37c0 23 3 45 9 67c28 85 138 156 138 253c0 17 -7 28 -25 28c-21 0 -33 -10 -25 -76l-91 -6c-12 88 10 160 120 160c78 0 118 -38 118 -108c0 -133 -129 -208 -132 -273z" />
    <glyph glyph-name="threesuperior" unicode="&#xb3;" horiz-adv-x="305" 
d="M98 584l-4 77c66 2 78 22 78 73c0 35 -12 41 -28 41c-19 0 -30 -13 -23 -73l-92 -4c-12 81 8 155 120 155c79 0 124 -39 124 -112c0 -66 -40 -97 -82 -111c67 -17 89 -59 89 -110c0 -94 -45 -137 -129 -137c-104 0 -132 53 -134 144l96 5c2 -54 10 -70 37 -70
c21 0 28 19 28 57c0 54 -19 67 -80 65z" />
    <glyph glyph-name="foursuperior" unicode="&#x2074;" horiz-adv-x="322" 
d="M91 548h77v192h-2zM263 845v-297h44v-79h-44v-79h-95v79h-161v58l132 318h124z" />
    <glyph glyph-name="fivesuperior" unicode="&#x2075;" horiz-adv-x="314" 
d="M153 615c-19 0 -34 -11 -40 -35l-79 6l16 259h222v-81h-140l-11 -100c15 15 38 27 67 27c52 0 103 -29 103 -145c0 -119 -48 -163 -137 -163c-87 0 -130 43 -131 144l96 5c1 -60 18 -70 35 -70c28 0 36 29 36 83c0 58 -16 70 -37 70z" />
    <glyph glyph-name="sixsuperior" unicode="&#x2076;" horiz-adv-x="329" 
d="M178 775c-27 0 -42 -29 -47 -136c12 17 38 34 73 34c57 0 101 -41 101 -142c0 -109 -56 -148 -132 -148c-110 0 -141 66 -141 213c0 173 43 257 157 257c82 0 119 -39 113 -136l-99 -5c3 47 -6 63 -25 63zM168 602c-25 0 -36 -18 -36 -61c0 -64 14 -80 38 -80
c26 0 34 21 34 70c0 56 -12 71 -36 71z" />
    <glyph glyph-name="sevensuperior" unicode="&#x2077;" horiz-adv-x="261" 
d="M164 390h-118c3 171 52 281 112 373h-149v82h244v-62c-85 -135 -88 -240 -89 -393z" />
    <glyph glyph-name="eightsuperior" unicode="&#x2078;" horiz-adv-x="344" 
d="M170 383c-104 0 -145 55 -145 128c0 64 27 107 86 127c-52 14 -71 54 -71 97c0 70 47 118 135 118c92 0 129 -46 129 -116c0 -46 -24 -85 -73 -97c61 -15 88 -59 88 -122c0 -80 -43 -135 -149 -135zM173 460c29 0 47 17 47 64c0 53 -12 74 -48 74c-31 0 -47 -22 -47 -74
c0 -44 13 -64 48 -64zM172 676c29 0 31 20 31 60c0 33 -8 51 -31 51c-25 0 -32 -20 -32 -52c0 -39 6 -59 32 -59z" />
    <glyph glyph-name="ninesuperior" unicode="&#x2079;" horiz-adv-x="329" 
d="M154 461c32 0 44 41 46 136c-12 -17 -33 -34 -68 -34c-56 0 -107 40 -107 135c0 115 55 155 137 155c103 0 136 -67 136 -214c0 -172 -34 -256 -148 -256c-82 0 -130 38 -129 135l98 6c1 -48 14 -63 35 -63zM162 634c24 0 36 16 36 69c0 58 -15 72 -36 72
c-26 0 -36 -22 -36 -69c0 -60 13 -72 36 -72z" />
    <glyph glyph-name="zeroinferior" unicode="&#x2080;" horiz-adv-x="346" 
d="M169 -137c-113 0 -143 79 -143 234c0 156 46 236 154 236c114 0 140 -78 140 -227c0 -162 -38 -243 -151 -243zM173 -58c38 0 45 37 45 159c0 117 -8 153 -42 153c-36 0 -47 -39 -47 -155c0 -119 4 -157 44 -157z" />
    <glyph glyph-name="oneinferior" unicode="&#x2081;" horiz-adv-x="238" 
d="M27 194l-19 72c34 13 71 33 106 59h81v-455h-102v355c-13 -9 -35 -20 -66 -31z" />
    <glyph glyph-name="twoinferior" unicode="&#x2082;" horiz-adv-x="299" 
d="M142 -48h121v-82h-232c0 12 -1 24 -1 37c0 23 3 45 9 67c28 85 138 156 138 253c0 17 -7 28 -25 28c-21 0 -33 -10 -25 -76l-91 -6c-12 88 10 160 120 160c78 0 118 -38 118 -108c0 -133 -129 -208 -132 -273z" />
    <glyph glyph-name="threeinferior" unicode="&#x2083;" horiz-adv-x="305" 
d="M98 64l-4 77c66 2 78 22 78 73c0 35 -12 41 -28 41c-19 0 -30 -13 -23 -73l-92 -4c-12 81 8 155 120 155c79 0 124 -39 124 -112c0 -66 -40 -97 -82 -111c67 -17 89 -59 89 -110c0 -94 -45 -137 -129 -137c-104 0 -132 53 -134 144l96 5c2 -54 10 -70 37 -70
c21 0 28 19 28 57c0 54 -19 67 -80 65z" />
    <glyph glyph-name="fourinferior" unicode="&#x2084;" horiz-adv-x="322" 
d="M91 28h77v192h-2zM263 325v-297h44v-79h-44v-79h-95v79h-161v58l132 318h124z" />
    <glyph glyph-name="fiveinferior" unicode="&#x2085;" horiz-adv-x="314" 
d="M153 95c-19 0 -34 -11 -40 -35l-79 6l16 259h222v-81h-140l-11 -100c15 15 38 27 67 27c52 0 103 -29 103 -145c0 -119 -48 -163 -137 -163c-87 0 -130 43 -131 144l96 5c1 -60 18 -70 35 -70c28 0 36 29 36 83c0 58 -16 70 -37 70z" />
    <glyph glyph-name="sixinferior" unicode="&#x2086;" horiz-adv-x="329" 
d="M178 255c-27 0 -42 -29 -47 -136c12 17 38 34 73 34c57 0 101 -41 101 -142c0 -109 -56 -148 -132 -148c-110 0 -141 66 -141 213c0 173 43 257 157 257c82 0 119 -39 113 -136l-99 -5c3 47 -6 63 -25 63zM168 82c-25 0 -36 -18 -36 -61c0 -64 14 -80 38 -80
c26 0 34 21 34 70c0 56 -12 71 -36 71z" />
    <glyph glyph-name="seveninferior" unicode="&#x2087;" horiz-adv-x="261" 
d="M164 -130h-118c3 171 52 281 112 373h-149v82h244v-62c-85 -135 -88 -240 -89 -393z" />
    <glyph glyph-name="eightinferior" unicode="&#x2088;" horiz-adv-x="344" 
d="M170 -137c-104 0 -145 55 -145 128c0 64 27 107 86 127c-52 14 -71 54 -71 97c0 70 47 118 135 118c92 0 129 -46 129 -116c0 -46 -24 -85 -73 -97c61 -15 88 -59 88 -122c0 -80 -43 -135 -149 -135zM173 -60c29 0 47 17 47 64c0 53 -12 74 -48 74c-31 0 -47 -22 -47 -74
c0 -44 13 -64 48 -64zM172 156c29 0 31 20 31 60c0 33 -8 51 -31 51c-25 0 -32 -20 -32 -52c0 -39 6 -59 32 -59z" />
    <glyph glyph-name="nineinferior" unicode="&#x2089;" horiz-adv-x="329" 
d="M154 -59c32 0 44 41 46 136c-12 -17 -33 -34 -68 -34c-56 0 -107 40 -107 135c0 115 55 155 137 155c103 0 136 -67 136 -214c0 -172 -34 -256 -148 -256c-82 0 -130 38 -129 135l98 6c1 -48 14 -63 35 -63zM162 114c24 0 36 16 36 69c0 58 -15 72 -36 72
c-26 0 -36 -22 -36 -69c0 -60 13 -72 36 -72z" />
    <glyph glyph-name="zero.num" horiz-adv-x="346" 
d="M169 271c-113 0 -143 79 -143 234c0 156 46 236 154 236c114 0 140 -78 140 -227c0 -162 -38 -243 -151 -243zM173 350c38 0 45 37 45 159c0 117 -8 153 -42 153c-36 0 -47 -39 -47 -155c0 -119 4 -157 44 -157z" />
    <glyph glyph-name="one.num" horiz-adv-x="238" 
d="M27 602l-19 72c34 13 71 33 106 59h81v-455h-102v355c-13 -9 -35 -20 -66 -31z" />
    <glyph glyph-name="two.num" horiz-adv-x="299" 
d="M142 360h121v-82h-232c0 12 -1 24 -1 37c0 23 3 45 9 67c28 85 138 156 138 253c0 17 -7 28 -25 28c-21 0 -33 -10 -25 -76l-91 -6c-12 88 10 160 120 160c78 0 118 -38 118 -108c0 -133 -129 -208 -132 -273z" />
    <glyph glyph-name="three.num" horiz-adv-x="305" 
d="M98 472l-4 77c66 2 78 22 78 73c0 35 -12 41 -28 41c-19 0 -30 -13 -23 -73l-92 -4c-12 81 8 155 120 155c79 0 124 -39 124 -112c0 -66 -40 -97 -82 -111c67 -17 89 -59 89 -110c0 -94 -45 -137 -129 -137c-104 0 -132 53 -134 144l96 5c2 -54 10 -70 37 -70
c21 0 28 19 28 57c0 54 -19 67 -80 65z" />
    <glyph glyph-name="four.num" horiz-adv-x="322" 
d="M91 436h77v192h-2zM263 733v-297h44v-79h-44v-79h-95v79h-161v58l132 318h124z" />
    <glyph glyph-name="five.num" horiz-adv-x="314" 
d="M153 503c-19 0 -34 -11 -40 -35l-79 6l16 259h222v-81h-140l-11 -100c15 15 38 27 67 27c52 0 103 -29 103 -145c0 -119 -48 -163 -137 -163c-87 0 -130 43 -131 144l96 5c1 -60 18 -70 35 -70c28 0 36 29 36 83c0 58 -16 70 -37 70z" />
    <glyph glyph-name="six.num" horiz-adv-x="329" 
d="M178 663c-27 0 -42 -29 -47 -136c12 17 38 34 73 34c57 0 101 -41 101 -142c0 -109 -56 -148 -132 -148c-110 0 -141 66 -141 213c0 173 43 257 157 257c82 0 119 -39 113 -136l-99 -5c3 47 -6 63 -25 63zM168 490c-25 0 -36 -18 -36 -61c0 -64 14 -80 38 -80
c26 0 34 21 34 70c0 56 -12 71 -36 71z" />
    <glyph glyph-name="seven.num" horiz-adv-x="261" 
d="M164 278h-118c3 171 52 281 112 373h-149v82h244v-62c-85 -135 -88 -240 -89 -393z" />
    <glyph glyph-name="eight.num" horiz-adv-x="344" 
d="M170 271c-104 0 -145 55 -145 128c0 64 27 107 86 127c-52 14 -71 54 -71 97c0 70 47 118 135 118c92 0 129 -46 129 -116c0 -46 -24 -85 -73 -97c61 -15 88 -59 88 -122c0 -80 -43 -135 -149 -135zM173 348c29 0 47 17 47 64c0 53 -12 74 -48 74c-31 0 -47 -22 -47 -74
c0 -44 13 -64 48 -64zM172 564c29 0 31 20 31 60c0 33 -8 51 -31 51c-25 0 -32 -20 -32 -52c0 -39 6 -59 32 -59z" />
    <glyph glyph-name="nine.num" horiz-adv-x="329" 
d="M154 349c32 0 44 41 46 136c-12 -17 -33 -34 -68 -34c-56 0 -107 40 -107 135c0 115 55 155 137 155c103 0 136 -67 136 -214c0 -172 -34 -256 -148 -256c-82 0 -130 38 -129 135l98 6c1 -48 14 -63 35 -63zM162 522c24 0 36 16 36 69c0 58 -15 72 -36 72
c-26 0 -36 -22 -36 -69c0 -60 13 -72 36 -72z" />
    <glyph glyph-name="zero.denom" horiz-adv-x="346" 
d="M169 -7c-113 0 -143 79 -143 234c0 156 46 236 154 236c114 0 140 -78 140 -227c0 -162 -38 -243 -151 -243zM173 72c38 0 45 37 45 159c0 117 -8 153 -42 153c-36 0 -47 -39 -47 -155c0 -119 4 -157 44 -157z" />
    <glyph glyph-name="one.denom" horiz-adv-x="238" 
d="M27 324l-19 72c34 13 71 33 106 59h81v-455h-102v355c-13 -9 -35 -20 -66 -31z" />
    <glyph glyph-name="two.denom" horiz-adv-x="299" 
d="M142 82h121v-82h-232c0 12 -1 24 -1 37c0 23 3 45 9 67c28 85 138 156 138 253c0 17 -7 28 -25 28c-21 0 -33 -10 -25 -76l-91 -6c-12 88 10 160 120 160c78 0 118 -38 118 -108c0 -133 -129 -208 -132 -273z" />
    <glyph glyph-name="three.denom" horiz-adv-x="305" 
d="M98 194l-4 77c66 2 78 22 78 73c0 35 -12 41 -28 41c-19 0 -30 -13 -23 -73l-92 -4c-12 81 8 155 120 155c79 0 124 -39 124 -112c0 -66 -40 -97 -82 -111c67 -17 89 -59 89 -110c0 -94 -45 -137 -129 -137c-104 0 -132 53 -134 144l96 5c2 -54 10 -70 37 -70
c21 0 28 19 28 57c0 54 -19 67 -80 65z" />
    <glyph glyph-name="four.denom" horiz-adv-x="322" 
d="M91 158h77v192h-2zM263 455v-297h44v-79h-44v-79h-95v79h-161v58l132 318h124z" />
    <glyph glyph-name="five.denom" horiz-adv-x="314" 
d="M153 225c-19 0 -34 -11 -40 -35l-79 6l16 259h222v-81h-140l-11 -100c15 15 38 27 67 27c52 0 103 -29 103 -145c0 -119 -48 -163 -137 -163c-87 0 -130 43 -131 144l96 5c1 -60 18 -70 35 -70c28 0 36 29 36 83c0 58 -16 70 -37 70z" />
    <glyph glyph-name="six.denom" horiz-adv-x="329" 
d="M178 385c-27 0 -42 -29 -47 -136c12 17 38 34 73 34c57 0 101 -41 101 -142c0 -109 -56 -148 -132 -148c-110 0 -141 66 -141 213c0 173 43 257 157 257c82 0 119 -39 113 -136l-99 -5c3 47 -6 63 -25 63zM168 212c-25 0 -36 -18 -36 -61c0 -64 14 -80 38 -80
c26 0 34 21 34 70c0 56 -12 71 -36 71z" />
    <glyph glyph-name="seven.denom" horiz-adv-x="261" 
d="M164 0h-118c3 171 52 281 112 373h-149v82h244v-62c-85 -135 -88 -240 -89 -393z" />
    <glyph glyph-name="eight.denom" horiz-adv-x="344" 
d="M170 -7c-104 0 -145 55 -145 128c0 64 27 107 86 127c-52 14 -71 54 -71 97c0 70 47 118 135 118c92 0 129 -46 129 -116c0 -46 -24 -85 -73 -97c61 -15 88 -59 88 -122c0 -80 -43 -135 -149 -135zM173 70c29 0 47 17 47 64c0 53 -12 74 -48 74c-31 0 -47 -22 -47 -74
c0 -44 13 -64 48 -64zM172 286c29 0 31 20 31 60c0 33 -8 51 -31 51c-25 0 -32 -20 -32 -52c0 -39 6 -59 32 -59z" />
    <glyph glyph-name="nine.denom" horiz-adv-x="329" 
d="M154 71c32 0 44 41 46 136c-12 -17 -33 -34 -68 -34c-56 0 -107 40 -107 135c0 115 55 155 137 155c103 0 136 -67 136 -214c0 -172 -34 -256 -148 -256c-82 0 -130 38 -129 135l98 6c1 -48 14 -63 35 -63zM162 244c24 0 36 16 36 69c0 58 -15 72 -36 72
c-26 0 -36 -22 -36 -69c0 -60 13 -72 36 -72z" />
    <glyph glyph-name="onehalf" unicode="&#xbd;" horiz-adv-x="722" 
d="M678 83h-121c3 65 132 140 132 273c0 70 -40 108 -118 108c-110 0 -132 -72 -120 -160l91 6c-8 66 4 76 25 76c18 0 25 -11 25 -28c0 -97 -110 -168 -138 -253c-6 -22 -9 -44 -9 -67c0 -13 1 -25 1 -37h232v82zM32 603l-19 72c34 13 71 33 106 59h81v-455h-102v355
c-13 -9 -35 -20 -66 -31zM127 22l330 730l89 -37l-330 -733z" />
    <glyph glyph-name="onequarter" unicode="&#xbc;" horiz-adv-x="722" 
d="M477 158h77v192h-2zM649 455v-297h44v-79h-44v-79h-95v79h-161v58l132 318h124zM28 603l-19 72c34 13 71 33 106 59h81v-455h-102v355c-13 -9 -35 -20 -66 -31zM128 22l330 730l89 -37l-330 -733z" />
    <glyph glyph-name="threequarters" unicode="&#xbe;" horiz-adv-x="722" 
d="M489 158h77v192h-2zM661 455v-297h44v-79h-44v-79h-95v79h-161v58l132 318h124zM86 549l4 -77c61 2 80 -11 80 -65c0 -38 -7 -57 -28 -57c-27 0 -35 16 -37 70l-96 -5c2 -91 30 -144 134 -144c84 0 129 43 129 137c0 51 -22 93 -89 110c42 14 82 45 82 111
c0 73 -45 112 -124 112c-112 0 -132 -74 -120 -155l92 4c-7 60 4 73 23 73c16 0 28 -6 28 -41c0 -51 -12 -71 -78 -73zM157 22l330 730l89 -37l-330 -733z" />
    <glyph glyph-name="onethird" unicode="&#x2153;" horiz-adv-x="722" 
d="M508 271l4 -77c61 2 80 -11 80 -65c0 -38 -7 -57 -28 -57c-27 0 -35 16 -37 70l-96 -5c2 -91 30 -144 134 -144c84 0 129 43 129 137c0 51 -22 93 -89 110c42 14 82 45 82 111c0 73 -45 112 -124 112c-112 0 -132 -74 -120 -155l92 4c-7 60 4 73 23 73c16 0 28 -6 28 -41
c0 -51 -12 -71 -78 -73zM27 603l-19 72c34 13 71 33 106 59h81v-455h-102v355c-13 -9 -35 -20 -66 -31zM124 22l330 730l89 -37l-330 -733z" />
    <glyph glyph-name="twothirds" unicode="&#x2154;" horiz-adv-x="722" 
d="M523 271l4 -77c61 2 80 -11 80 -65c0 -38 -7 -57 -28 -57c-27 0 -35 16 -37 70l-96 -5c2 -91 30 -144 134 -144c84 0 129 43 129 137c0 51 -22 93 -89 110c42 14 82 45 82 111c0 73 -45 112 -124 112c-112 0 -132 -74 -120 -155l92 4c-7 60 4 73 23 73c16 0 28 -6 28 -41
c0 -51 -12 -71 -78 -73zM245 360h-121c3 65 132 140 132 273c0 70 -40 108 -118 108c-110 0 -132 -72 -120 -160l91 6c-8 66 4 76 25 76c18 0 25 -11 25 -28c0 -97 -110 -168 -138 -253c-6 -22 -9 -44 -9 -67c0 -13 1 -25 1 -37h232v82zM152 22l330 730l89 -37l-330 -733z
" />
    <glyph glyph-name="zero.slash" horiz-adv-x="467" 
d="M227 -12c-157 0 -197 128 -197 378c0 251 62 381 213 381c158 0 194 -127 194 -367c0 -260 -51 -392 -210 -392zM234 97c55 0 69 63 72 222h-145c2 -159 15 -222 73 -222zM238 638c-53 0 -73 -62 -77 -213h145c-3 153 -18 213 -68 213z" />
    <glyph glyph-name="zero.tf" horiz-adv-x="467" 
d="M227 -12c-157 0 -197 128 -197 378c0 251 62 381 213 381c158 0 194 -127 194 -367c0 -260 -51 -392 -210 -392zM234 97c61 0 72 77 72 276c0 192 -12 265 -68 265c-59 0 -77 -77 -77 -269c0 -196 9 -272 73 -272z" />
    <glyph glyph-name="one.tf" horiz-adv-x="467" 
d="M96 0v109h99v481c-20 -15 -58 -36 -103 -55l-25 102c49 21 106 55 156 97h101v-625h88v-109h-316z" />
    <glyph glyph-name="two.tf" horiz-adv-x="467" 
d="M203 114h187v-114h-327c-1 15 -2 32 -2 48c0 30 3 62 10 90c31 158 205 268 205 436c0 39 -12 64 -44 64c-39 0 -56 -28 -44 -140l-118 -8c-18 139 14 257 167 257c111 0 167 -62 167 -174c0 -215 -199 -333 -201 -459z" />
    <glyph glyph-name="three.tf" horiz-adv-x="467" 
d="M160 324l-6 106c94 3 120 35 120 126c0 67 -22 82 -51 82c-40 0 -57 -32 -46 -134l-118 -6c-18 132 13 249 170 249c110 0 175 -63 175 -181c0 -110 -56 -158 -119 -179c95 -23 129 -93 129 -181c0 -146 -65 -218 -184 -218c-148 0 -186 91 -189 232l124 7
c3 -94 17 -128 65 -128c35 0 54 31 54 107c0 100 -37 120 -124 118z" />
    <glyph glyph-name="four.tf" horiz-adv-x="467" 
d="M132 252h120v324h-2zM374 734v-482h67v-113h-67v-139h-122v139h-236v84l199 511h159z" />
    <glyph glyph-name="five.tf" horiz-adv-x="467" 
d="M226 376c-31 0 -56 -20 -67 -61l-100 9l23 410h311v-112h-206l-17 -187c23 28 58 47 101 47c76 0 149 -49 149 -238c0 -178 -68 -256 -197 -256c-126 0 -185 78 -186 230l125 8c2 -101 30 -127 64 -127c45 0 64 48 64 143c0 116 -28 134 -64 134z" />
    <glyph glyph-name="six.tf" horiz-adv-x="467" 
d="M249 638c-50 0 -75 -58 -82 -242c21 35 62 60 111 60c86 0 151 -68 151 -229c0 -175 -82 -239 -189 -239c-155 0 -200 109 -200 341c0 280 60 418 222 418c121 0 170 -73 160 -216l-126 -8c4 82 -9 115 -47 115zM234 356c-42 0 -66 -29 -66 -116c0 -103 29 -143 71 -143
c45 0 61 46 61 130c0 99 -21 129 -66 129z" />
    <glyph glyph-name="seven.tf" horiz-adv-x="467" 
d="M271 0h-149c6 275 79 460 175 620h-245v114h368v-87c-129 -218 -146 -400 -149 -647z" />
    <glyph glyph-name="eight.tf" horiz-adv-x="467" 
d="M230 -12c-149 0 -205 90 -205 207c0 103 37 173 123 205c-74 23 -102 87 -102 156c0 114 67 191 191 191c131 0 182 -75 182 -186c0 -74 -34 -137 -104 -158c88 -25 126 -96 126 -196c0 -128 -60 -219 -211 -219zM234 96c54 0 79 39 79 114c0 89 -18 136 -80 136
c-54 0 -79 -47 -79 -134c0 -74 21 -116 80 -116zM233 452c49 0 57 40 57 109c0 54 -13 91 -57 91s-58 -39 -58 -94c0 -69 12 -106 58 -106z" />
    <glyph glyph-name="nine.tf" horiz-adv-x="467" 
d="M220 97c56 0 76 73 81 242c-22 -35 -58 -60 -106 -60c-87 0 -158 68 -158 219c0 184 82 249 196 249c146 0 194 -109 194 -340c0 -280 -49 -419 -212 -419c-120 0 -183 71 -182 216l125 8c2 -84 22 -115 62 -115zM231 379c43 0 67 30 67 126c0 94 -24 133 -67 133
c-45 0 -65 -46 -65 -131c0 -98 21 -128 65 -128z" />
    <glyph glyph-name="dollar.tf" horiz-adv-x="468" 
d="M428 494l-122 -14c-3 106 -25 137 -76 137c-49 0 -67 -33 -67 -75c0 -157 272 -74 272 -319c0 -120 -61 -188 -146 -208v-80h-126v81c-91 23 -136 96 -141 227l132 15c5 -106 26 -143 82 -143c44 0 66 29 66 82c0 166 -270 77 -270 334c0 96 54 160 131 185v81h126v-75
c89 -19 139 -93 139 -228z" />
    <glyph glyph-name="Euro.tf" horiz-adv-x="467" 
d="M262 94c52 0 63 52 69 123l124 -9c-15 -151 -75 -220 -199 -220c-127 0 -179 85 -193 257h-62l13 87h45v29v31h-47l16 87h37c20 179 90 268 214 268c129 0 172 -97 175 -226l-124 -10c-4 85 -15 126 -60 126s-68 -44 -76 -158h127l-13 -87h-117v-28v-32h114l-12 -87h-100
c5 -109 22 -151 69 -151z" />
    <glyph glyph-name="cent.tf" horiz-adv-x="419" 
d="M396 426l-113 -7c-2 74 -17 100 -57 100c-48 0 -63 -50 -63 -182c0 -95 11 -152 68 -152c35 0 50 26 53 96l113 -5c-3 -117 -52 -168 -112 -187v-89h-127v89c-98 29 -124 130 -124 259c0 142 43 236 132 266v81h126v-79c75 -23 105 -94 104 -190z" />
    <glyph glyph-name="sterling.tf" horiz-adv-x="467" 
d="M46 314v98h64c-22 40 -43 87 -43 155c0 113 76 180 190 180c124 0 171 -79 171 -188c0 -19 -1 -39 -4 -59l-117 10c1 15 2 28 2 40c0 70 -24 88 -56 88c-30 0 -59 -16 -59 -71c0 -61 27 -107 51 -155h147v-98h-115c1 -8 2 -15 2 -23c0 -55 -24 -106 -88 -178h227v-113
h-360v109c73 70 99 121 99 183c0 7 -1 15 -2 22h-109z" />
    <glyph glyph-name="yen.tf" horiz-adv-x="467" 
d="M392 331h-95v-69h95v-90h-95v-172h-128v172h-100v90h100v69h-100v89h66l-138 314h138l100 -278l103 278h132l-141 -314h63v-89z" />
    <glyph glyph-name="florin.tf" horiz-adv-x="467" 
d="M53 365l18 95h91l19 105c25 142 97 182 198 182c34 0 69 -9 83 -14l-31 -94c-15 6 -33 9 -50 9c-43 0 -67 -24 -78 -89l-18 -99h127l-17 -95h-126l-57 -327c-24 -138 -98 -178 -198 -178c-34 0 -69 9 -83 14l31 94c16 -6 33 -9 50 -9c41 0 66 23 77 83l57 323h-93z" />
    <glyph glyph-name="comma.tf" horiz-adv-x="233" 
d="M51 0v143h134v-120l-71 -153l-54 15l29 115h-38z" />
    <glyph glyph-name="period.tf" horiz-adv-x="234" 
d="M48 0v143h137v-143h-137z" />
    <glyph glyph-name="perthousand.tf" horiz-adv-x="467" 
d="M23 402l422 1v-76h-422v75zM116 -12c-74 0 -103 55 -103 152c0 99 41 155 110 155c73 0 101 -54 101 -150c0 -103 -34 -157 -108 -157zM347 -12c-74 0 -103 56 -103 153c0 99 40 154 110 154c73 0 101 -54 101 -149c0 -104 -34 -158 -108 -158zM350 51c26 0 31 30 31 93
c0 62 -6 87 -29 87c-24 0 -32 -27 -32 -89c0 -58 2 -91 30 -91zM116 432c-74 0 -103 55 -103 153c0 99 41 153 111 153c72 0 101 -52 101 -148c0 -104 -34 -158 -109 -158zM118 51c27 0 32 30 32 93c0 61 -6 87 -30 87s-32 -27 -32 -89c0 -58 4 -91 30 -91zM119 496
c26 0 31 29 31 91c0 63 -6 88 -29 88c-25 0 -33 -27 -33 -89c0 -59 4 -90 31 -90z" />
    <glyph glyph-name="percent.tf" horiz-adv-x="467" 
d="M55 402h357v-75h-357v75zM226 -12c-74 0 -102 56 -102 153c0 99 39 154 109 154c73 0 101 -54 101 -149c0 -104 -34 -158 -108 -158zM229 51c26 0 31 30 31 93c0 62 -5 87 -29 87s-32 -27 -32 -89c0 -58 3 -91 30 -91zM231 432c-74 0 -103 55 -103 153
c0 99 40 153 110 153c72 0 101 -52 101 -148c0 -104 -34 -158 -108 -158zM233 496c27 0 31 29 31 91c0 63 -6 88 -29 88c-24 0 -32 -27 -32 -89c0 -59 3 -90 30 -90z" />
    <glyph glyph-name="minus" unicode="&#x2212;" horiz-adv-x="467" 
d="M393 295h-319v93h319v-93z" />
    <glyph glyph-name="approxequal" unicode="&#x2248;" horiz-adv-x="467" 
d="M123 135l-76 23c12 92 54 120 111 120c24 0 50 -8 82 -22c25 -11 43 -18 61 -18c20 0 32 13 40 44l77 -22c-14 -72 -47 -117 -105 -117c-29 0 -60 12 -89 23c-33 12 -43 17 -57 17s-35 -6 -44 -48zM124 308l-76 23c12 92 54 120 111 120c24 0 50 -8 82 -22
c25 -11 43 -18 61 -18c20 0 32 14 40 44l77 -22c-14 -72 -47 -117 -105 -117c-29 0 -60 12 -89 23c-33 12 -43 17 -57 17s-35 -6 -44 -48z" />
    <glyph glyph-name="notequal" unicode="&#x2260;" horiz-adv-x="467" 
d="M393 183h-185l-42 -83h-78l43 83h-57v93h105l31 60h-136v93h184l38 75h75l-38 -75h60v-93h-108l-30 -60h138v-93z" />
    <glyph glyph-name="lessequal" unicode="&#x2264;" horiz-adv-x="467" 
d="M393 0h-319v93h319v-93zM393 120l-319 101v126l319 115v-111l-218 -64l218 -58v-109z" />
    <glyph glyph-name="greaterequal" unicode="&#x2265;" horiz-adv-x="467" 
d="M393 0h-319v93h319v-93zM74 462l319 -102v-126l-319 -114v110l217 65l-217 57v110z" />
    <glyph glyph-name="less" unicode="&#x3c;" horiz-adv-x="467" 
d="M393 119l-319 101v127l319 114v-110l-218 -65l218 -58v-109z" />
    <glyph glyph-name="equal" unicode="=" horiz-adv-x="467" 
d="M393 183h-319v93h319v-93zM393 336h-319v93h319v-93z" />
    <glyph glyph-name="greater" unicode="&#x3e;" horiz-adv-x="467" 
d="M74 461l319 -101v-127l-319 -114v110l217 65l-217 58v109z" />
    <glyph glyph-name="logicalnot" unicode="&#xac;" horiz-adv-x="467" 
d="M393 168h-98v127h-221v93h319v-220z" />
    <glyph glyph-name="plus" unicode="+" horiz-adv-x="467" 
d="M393 295h-114v-113h-92v113h-113v93h113v113h92v-113h114v-93z" />
    <glyph glyph-name="plusminus" unicode="&#xb1;" horiz-adv-x="467" 
d="M393 295h-114v-113h-92v113h-113v93h113v113h92v-113h114v-93zM393 0h-319v93h319v-93z" />
    <glyph glyph-name="divide" unicode="&#xf7;" horiz-adv-x="467" 
d="M393 295h-319v93h319v-93zM180 422v118h112v-118h-112zM180 141v118h112v-118h-112z" />
    <glyph glyph-name="multiply" unicode="&#xd7;" 
d="M395 421l-80 -80l80 -80l-66 -66l-80 79l-79 -79l-67 67l79 79l-79 80l67 66l79 -80l80 80z" />
    <glyph glyph-name="partialdiff" unicode="&#x2202;" horiz-adv-x="521" 
d="M355 407c1 116 -2 229 -101 229c-53 0 -95 -17 -133 -40l-39 82c43 29 123 56 182 56c174 0 207 -153 207 -307c0 -185 -24 -439 -239 -439c-160 0 -191 121 -191 228c0 131 55 257 197 257c57 0 93 -25 117 -66zM336 235c3 55 -3 146 -78 146c-71 0 -95 -67 -95 -161
c0 -77 16 -132 77 -132s91 68 96 147z" />
    <glyph glyph-name="Omega" unicode="&#x2126;" horiz-adv-x="572" 
d="M371 122v-14h119v-108h-176v163c45 25 60 57 60 230c0 164 -13 241 -84 241c-58 0 -91 -43 -91 -238c0 -155 12 -205 59 -233v-163h-182v108h125v13c-112 39 -140 146 -140 285c0 193 61 341 231 341c184 0 219 -149 219 -327c0 -139 -23 -238 -140 -298z" />
    <glyph glyph-name="Delta" unicode="&#x2206;" horiz-adv-x="549" 
d="M529 0h-509l170 734h167zM273 596l-97 -483h190l-90 483h-3z" />
    <glyph glyph-name="product" unicode="&#x220f;" horiz-adv-x="622" 
d="M538 734v-895h-130v783h-194v-783h-130v895h454z" />
    <glyph glyph-name="summation" unicode="&#x2211;" horiz-adv-x="486" 
d="M383 278l-220 -339h273v-115h-423v113l219 343l-197 342v112h399v-115h-246z" />
    <glyph glyph-name="uni0394" unicode="&#x394;" horiz-adv-x="549" 
d="M529 0h-509l170 734h167zM273 596l-97 -483h190l-90 483h-3z" />
    <glyph glyph-name="uni03A9" unicode="&#x3a9;" horiz-adv-x="572" 
d="M371 122v-14h119v-108h-176v163c45 25 60 57 60 230c0 164 -13 241 -84 241c-58 0 -91 -43 -91 -238c0 -155 12 -205 59 -233v-163h-182v108h125v13c-112 39 -140 146 -140 285c0 193 61 341 231 341c184 0 219 -149 219 -327c0 -139 -23 -238 -140 -298z" />
    <glyph glyph-name="uni03BC" unicode="&#x3bc;" horiz-adv-x="533" 
d="M82 -176v696h120v-301c0 -91 2 -122 52 -122c49 0 64 58 64 123v300h119v-520h-80l-22 82c-12 -52 -62 -87 -116 -87c-12 0 -22 1 -31 3l-3 -3l17 -171h-120z" />
    <glyph glyph-name="pi" unicode="&#x3c0;" horiz-adv-x="545" 
d="M470 520v-520h-123v420h-148v-420h-123v520h394z" />
    <glyph glyph-name="mu" unicode="&#xb5;" horiz-adv-x="509" 
d="M77 -176v696h120v-301c0 -91 2 -122 52 -122c49 0 64 58 64 123v300h119v-520h-80l-22 82c-12 -52 -62 -87 -116 -87c-12 0 -22 1 -31 3l-3 -3l17 -171h-120z" />
    <glyph glyph-name="radical" unicode="&#x221a;" horiz-adv-x="564" 
d="M370 0h-123l-105 247l-70 -29l-34 87l172 71l90 -232l136 607l102 -20z" />
    <glyph glyph-name="infinity" unicode="&#x221e;" horiz-adv-x="665" 
d="M480 180c-72 0 -114 43 -147 80c-33 -35 -79 -81 -153 -81c-69 0 -137 42 -137 134c0 81 57 140 150 140c66 0 109 -40 146 -80c34 37 81 80 148 80c69 0 135 -42 135 -140c0 -75 -65 -133 -142 -133zM187 255c41 0 76 39 99 64c-27 31 -57 58 -96 58
c-33 0 -54 -28 -54 -58c0 -31 14 -64 51 -64zM386 315c27 -32 51 -60 90 -60c32 0 53 30 53 62c0 29 -12 61 -50 61c-35 0 -63 -30 -93 -63z" />
    <glyph glyph-name="integral" unicode="&#x222b;" horiz-adv-x="411" 
d="M346 733l-4 -94c-16 6 -36 9 -53 9c-37 0 -50 -24 -42 -89l72 -563c16 -127 -55 -179 -154 -179c-34 0 -71 9 -87 14l4 93c15 -5 34 -8 51 -8c42 0 60 23 52 83l-71 565c-16 128 44 183 144 183c34 0 72 -9 88 -14z" />
    <glyph glyph-name="lozenge" unicode="&#x25ca;" horiz-adv-x="522" 
d="M321 46h-120l-150 324l150 324h120l150 -324zM261 144l98 226l-98 225l-98 -225z" />
    <glyph glyph-name="commaaccent" 
d="M196 -156v111h105v-90l-45 -122l-50 13l23 88h-33z" />
    <glyph glyph-name="revcommaaccent" 
d="M300 689v-111h-105v91l45 121l51 -12l-23 -89h32z" />
    <glyph glyph-name="tilde.cap" 
d="M175 780l-54 7c10 70 37 108 80 108c36 0 69 -26 93 -26c11 0 23 5 30 36l54 -7c-12 -74 -34 -112 -82 -112c-41 0 -72 24 -93 24c-11 0 -22 -4 -28 -30z" />
    <glyph glyph-name="ring.cap" 
d="M248 762c-69 0 -97 33 -97 87s40 87 101 87c65 0 96 -32 96 -84c0 -57 -34 -90 -100 -90zM250 808c15 0 27 11 27 42s-12 40 -26 40c-17 0 -30 -8 -30 -41c0 -32 11 -41 29 -41z" />
    <glyph glyph-name="circumflex.cap" 
d="M217 917h66l113 -113l-37 -45l-110 71l-109 -71l-37 45z" />
    <glyph glyph-name="acute.cap" 
d="M313 932l53 -91l-176 -79l-34 56z" />
    <glyph glyph-name="grave.cap" 
d="M132 841l55 86l156 -111l-35 -55z" />
    <glyph glyph-name="dieresis.cap" 
d="M277 779v112h94v-112h-94zM129 779v112h94v-112h-94z" />
    <glyph glyph-name="caron.cap" 
d="M282 764h-66l-110 109l38 44l105 -66l106 66l38 -44z" />
    <glyph glyph-name="macron.cap" 
d="M125 791v90h250v-90h-250z" />
    <glyph glyph-name="dotaccent.cap" 
d="M187 778v129h125v-129h-125z" />
    <glyph glyph-name="cedilla.cap" 
d="M200 -85l34 85h55l-21 -47c9 4 15 5 25 5c48 0 73 -37 73 -85c0 -62 -43 -93 -101 -93c-36 0 -76 14 -100 61l47 29c15 -25 29 -30 42 -30c19 0 29 11 29 35s-9 35 -23 35c-8 0 -15 -3 -22 -10z" />
    <glyph glyph-name="hungarumlaut.cap" 
d="M439 919l53 -67l-160 -90l-32 43zM281 932l54 -71l-154 -96l-32 41z" />
    <glyph glyph-name="apostrophe" unicode="&#x2bc;" 
d="M301 728v-111h-33l23 -89l-50 -12l-45 122v90h105z" />
    <glyph glyph-name="commaaccent.cap" 
d="M196 -156v111h105v-90l-45 -122l-50 13l23 88h-33z" />
    <glyph glyph-name="breve.cap" 
d="M118 896l59 12c7 -47 38 -61 73 -61c32 0 62 13 76 62l58 -12c-9 -83 -60 -131 -138 -131c-73 0 -122 41 -128 130z" />
    <glyph glyph-name="caron.alt" 
d="M216 734h101l-38 -188l-60 4z" />
    <glyph glyph-name="thinspace" unicode="&#x2009;" horiz-adv-x="125" 
 />
    </font>
</defs>
</svg>
